<?xml version="1.0" encoding="utf-8"?>
<!-- Generator: Adobe Illustrator 23.0.3, SVG Export Plug-In . SVG Version: 6.00 Build 0)  -->
<svg version="1.1" id="Layer_1" xmlns="http://www.w3.org/2000/svg" xmlns:xlink="http://www.w3.org/1999/xlink" x="0px" y="0px"
	 viewBox="0 0 384.5 378.7" style="enable-background:new 0 0 384.5 378.7;" xml:space="preserve">
<style type="text/css">
	.st0{fill:#FFEA3D;}
</style>
<g>
	<path class="st0" d="M162.4,136.1c-16.8,0-28.3,11-28.3,27.5h53.5C187.7,147.1,177.5,136.1,162.4,136.1z"/>
	<path class="st0" d="M192.3,0C77.2,0,0,75.9,0,189.7c0,113.1,77.2,189,192.2,189c115.1,0,192.3-75.9,192.3-189.7
		C384.5,75.9,307.4,0,192.3,0z M261.3,199.1c-0.3,3.1-2.3,4.6-5.6,4.6H134.2c0,0,0,23.7,31.9,23.7c19.4,0,40.8-4.6,57.8-12.5
		c2.5-1,4.8,0.5,5.6,3.1l16.3,46.9c0.8,2.5,0,4.1-2.5,5.6c-19.9,13.2-49.2,21.1-78.2,21.1c-67,0-111.6-43.8-111.6-109.3
		c0-66,44.1-109.8,109.8-109.8c62.7,0,99.9,40.5,99.6,109.6C262.8,187.6,262.3,193.5,261.3,199.1z M297,287.7
		c-18.9,0-34.1-15.3-34.1-34.1c0-18.9,15.3-34.1,34.1-34.1c18.9,0,34.1,15.3,34.1,34.1C331.1,272.4,315.8,287.7,297,287.7z"/>
</g>
</svg>
