<?xml version="1.0" encoding="utf-8"?>
<!-- Generator: Adobe Illustrator 23.0.1, SVG Export Plug-In . SVG Version: 6.00 Build 0)  -->
<svg version="1.1" id="Layer_1" xmlns="http://www.w3.org/2000/svg" xmlns:xlink="http://www.w3.org/1999/xlink" x="0px" y="0px"
	 viewBox="0 0 384.5 378.7" style="enable-background:new 0 0 384.5 378.7;" xml:space="preserve">
<style type="text/css">
	.st0{fill:#161412;}
	.st1{fill:#FFFFFF;}
</style>
<path class="st0" d="M384.5,189c0,113.8-77.2,189.7-192.3,189.7C77.2,378.7,0,302.8,0,189.7C0,75.9,77.2,0,192.3,0
	C307.4,0,384.5,75.9,384.5,189z"/>
<g>
	<path class="st1" d="M239.5,230.3c0,1-0.9,2.1-2.2,2.1H211c-1,0-2.1-1-2.1-2.1v-98.1c0-1.2,1-2.2,2.1-2.2h26.3c1.3,0,2.2,1,2.2,2.2
		V230.3z"/>
	<path class="st1" d="M275,234.6c-9.6,0-21.7-3.4-30-8.5c-0.7-0.7-1.2-1.5-0.9-2.4l7.6-17.2c0.3-0.9,1.2-1,1.9-0.6
		c5.8,3.4,12,6.1,17.1,6.1c3.1,0.3,5.2-1.5,5.2-3.7c0-7.6-32.5-5.2-32.5-33.1c0-15.9,13.5-26.6,33.7-26.6c9.7,0,21.2,3.4,29.1,8.5
		c0.7,0.6,1.2,1.3,0.9,2.1l-7.6,17.5c-0.3,0.9-1.2,1-1.9,0.6c-5.8-3.7-12-6.1-17.1-6.1c-3.1-0.3-5.2,1.2-5.2,3.6
		c0,7.9,32.5,5,32.5,33.3C307.8,223.9,294.7,234.6,275,234.6z"/>
	<circle class="st1" cx="333.5" cy="212.7" r="21.9"/>
	<path class="st1" d="M74.1,148.6c-25.8,0-43.1,17.2-43.1,43.1c0,25.7,17.5,42.9,43.8,42.9c11.4,0,22.9-3.1,30.7-8.3
		c1-0.6,1.3-1.2,1-2.2l-6.4-18.4c-0.3-1-1.2-1.6-2.2-1.2c-6.7,3.1-15.1,4.9-22.7,4.9c-12.5,0-12.5-9.3-12.5-9.3h47.7
		c1.3,0,2.1-0.6,2.2-1.8c0.4-2.2,0.6-4.5,0.6-6.7C113.3,164.5,98.7,148.6,74.1,148.6z M62.7,184.4c0-6.5,4.5-10.8,11.1-10.8
		c5.9,0,9.9,4.3,9.9,10.8H62.7z"/>
	<path class="st1" d="M165.8,148.5c-10,0-19.5,3.9-25.1,9.8l-2.2-5.3c-0.6-1.3-1.3-2.2-2.4-2.2h-16.8c-1.2,0-2.2,1-2.2,2.2v105
		c0,1,1,2.1,2.2,2.1h26.1c1.2,0,2.2-1,2.2-2.1v-29.1c4.5,3.6,11.1,5.6,18.1,5.6c23.5,0,39.2-17.2,39.2-42.9
		C205,165.7,189.3,148.5,165.8,148.5z M159.5,208.9c-5.2,0-10-3.3-11.7-8.2V182c1.8-4.9,6.5-8.2,11.7-8.2c8.2,0,13.7,7.1,13.7,17.8
		C173.1,202.1,167.6,208.9,159.5,208.9z"/>
</g>
</svg>
