<svg xmlns="http://www.w3.org/2000/svg" viewBox="0 0 369.81 66.76"><path d="M35 49.09c.14.48 0 .76-.48 1.03-3.64 2.41-8.94 3.85-14.23 3.85C8.11 53.97 0 46 0 34.1c0-11.96 7.98-19.94 19.94-19.94 11.41 0 18.15 7.36 18.15 19.87 0 1.03-.07 2.06-.27 3.09-.07.55-.41.83-1.03.83H14.71s0 4.33 5.78 4.33c3.51 0 7.43-.83 10.52-2.27.48-.21.89.07 1.03.55L35 49.09zM24.41 30.73c0-3.03-1.86-5.02-4.61-5.02-3.09 0-5.16 1.99-5.16 5.02h9.77zm28.46-12.1c2.61-2.75 7.01-4.54 11.62-4.54 10.86 0 18.15 7.98 18.15 19.94 0 11.89-7.29 19.87-18.15 19.87-3.23 0-6.33-.96-8.39-2.61v13.48c0 .48-.48.96-1.03.96h-12.1c-.55 0-1.03-.48-1.03-.96V16.16c0-.55.48-1.03 1.03-1.03h7.77c.48 0 .83.41 1.1 1.03l1.03 2.47zM56.1 38.3c.82 2.27 3.02 3.78 5.43 3.78 3.78 0 6.33-3.16 6.33-7.98 0-4.95-2.54-8.25-6.33-8.25-2.41 0-4.61 1.51-5.43 3.78v8.67zM99.62 3.09c.55 0 1.03.48 1.03.96V51.9c0 .55-.48 1.03-1.03 1.03h-12.1c-.55 0-1.03-.48-1.03-1.03V4.06c0-.48.48-.96 1.03-.96h12.1zm8.73 37.89c.14-.41.55-.48.89-.28 2.68 1.58 5.57 2.82 7.91 2.82 1.44.14 2.41-.69 2.41-1.72 0-3.51-15.06-2.41-15.06-15.33 0-7.36 6.26-12.31 15.61-12.31 4.47 0 9.83 1.58 13.48 3.92.34.27.55.62.41.96l-3.51 8.11c-.14.41-.55.48-.89.28-2.68-1.72-5.57-2.82-7.91-2.82-1.44-.14-2.41.55-2.41 1.65 0 3.64 15.06 2.34 15.06 15.4 0 7.36-6.05 12.31-15.2 12.31-4.47 0-10.04-1.58-13.89-3.92-.34-.34-.55-.69-.41-1.1l3.51-7.97zm35 12.92c-3.64 0-6.05-2.27-6.05-5.64 0-3.44 2.41-5.78 6.05-5.78s6.05 2.34 6.05 5.78c0 3.38-2.41 5.64-6.05 5.64zm48.67-50.81c.55 0 1.03.48 1.03.96V51.9c0 .55-.48 1.03-1.03 1.03h-7.77c-.48 0-.83-.41-1.1-1.03l-1.03-2.48c-2.61 2.75-7.01 4.54-11.62 4.54-10.86 0-18.15-7.98-18.15-19.94 0-11.9 7.29-19.87 18.15-19.87 3.23 0 6.33.96 8.39 2.61V4.06c0-.48.48-.96 1.03-.96h12.1zm-13.13 26.68c-.83-2.27-3.03-3.78-5.43-3.78-3.78 0-6.33 3.16-6.33 7.98 0 4.95 2.54 8.25 6.33 8.25 2.41 0 4.61-1.51 5.43-3.78v-8.67zm53.01 19.32c.14.48 0 .76-.48 1.03-3.64 2.41-8.94 3.85-14.23 3.85-12.17 0-20.28-7.98-20.28-19.87 0-11.96 7.98-19.94 19.94-19.94 11.41 0 18.15 7.36 18.15 19.87 0 1.03-.07 2.06-.27 3.09-.07.55-.41.83-1.03.83h-22.07s0 4.33 5.78 4.33c3.51 0 7.43-.83 10.52-2.27.48-.21.89.07 1.03.55l2.94 8.53zm-10.59-18.36c0-3.03-1.86-5.02-4.61-5.02-3.09 0-5.16 1.99-5.16 5.02h9.77zm20.28 10.25c.14-.41.55-.48.89-.28 2.68 1.58 5.57 2.82 7.91 2.82 1.44.14 2.41-.69 2.41-1.72 0-3.51-15.06-2.41-15.06-15.33 0-7.36 6.26-12.31 15.61-12.31 4.47 0 9.83 1.58 13.48 3.92.34.27.55.62.41.96l-3.51 8.11c-.14.41-.55.48-.89.28-2.68-1.72-5.57-2.82-7.91-2.82-1.44-.14-2.41.55-2.41 1.65 0 3.64 15.06 2.34 15.06 15.4 0 7.36-6.05 12.31-15.2 12.31-4.47 0-10.04-1.58-13.89-3.92-.34-.34-.55-.69-.41-1.1l3.51-7.97zm44.55-33.9c0 4.06-3.03 6.81-7.56 6.81-4.54 0-7.56-2.75-7.56-6.81 0-4.26 3.03-7.08 7.56-7.08 4.53 0 7.56 2.82 7.56 7.08zm-1.44 8.05c.55 0 1.03.48 1.03.96v35.82c0 .55-.48 1.03-1.03 1.03h-12.1c-.55 0-1.03-.48-1.03-1.03V16.09c0-.48.48-.96 1.03-.96h12.1zm29.83 32.86c-1.1 2.2-4.4 3.64-8.25 3.64-10.04 0-16.71-7.22-16.71-18.08 0-12.17 6.19-19.39 16.71-19.39 5.29 0 9.49 1.44 11.28 3.92l1.24-1.93c.41-.62 1.03-1.03 1.58-1.03h7.29c.62 0 1.03.41 1.03 1.03v33.28c0 10.38-9.42 17.33-21.11 17.33-6.81 0-12.86-1.58-16.23-4.33-.41-.34-.55-.83-.41-1.17l3.51-8.53c.21-.48.62-.69 1.03-.41 2.96 2.41 7.49 3.85 12.1 3.85 4.33 0 6.94-2.27 6.94-6.19v-1.99zm0-17.87s-1.03-3.09-4.74-3.09c-3.44 0-5.43 2.41-5.43 6.53s1.99 6.6 5.43 6.6c3.71 0 4.74-3.09 4.74-3.09v-6.95zm29.77-12.11c2.2-2.41 6.88-3.85 11.07-3.85 9.35 0 14.44 4.33 14.44 15.06v22.69c0 .55-.48 1.03-1.03 1.03h-12.1c-.55 0-1.03-.48-.96-1.03V31.35c0-2.75-1.24-4.33-3.37-4.33-3.92 0-4.54 3.85-4.54 3.85v21.04c0 .55-.48 1.03-1.03 1.03h-12.1c-.55 0-1.03-.48-1.03-1.03V16.09c0-.62.34-.96.96-.96h7.7c.48 0 .89.21 1.1.69l.89 2.19z"/></svg>