<?xml version="1.0" encoding="utf-8"?>
<!-- Generator: Adobe Illustrator 25.0.0, SVG Export Plug-In . SVG Version: 6.00 Build 0)  -->
<svg version="1.1" id="Raw" xmlns="http://www.w3.org/2000/svg" xmlns:xlink="http://www.w3.org/1999/xlink" x="0px" y="0px"
	 viewBox="0 0 256 256" style="enable-background:new 0 0 256 256;" xml:space="preserve">
<g>
	<path d="M216,88h-64V40c0-8.8-7.2-16-16-16H40c-8.8,0-16,7.2-16,16v184c0,4.4,3.6,8,8,8s8-3.6,8-8V40h96v184c0,4.4,3.6,8,8,8
		s8-3.6,8-8V104h64v120c0,4.4,3.6,8,8,8s8-3.6,8-8V104C232,95.2,224.8,88,216,88z"/>
	<path d="M64,80h32c4.4,0,8-3.6,8-8s-3.6-8-8-8H64c-4.4,0-8,3.6-8,8S59.6,80,64,80z"/>
	<path d="M112,144H80c-4.4,0-8,3.6-8,8s3.6,8,8,8h32c4.4,0,8-3.6,8-8S116.4,144,112,144z"/>
	<path d="M96,184H64c-4.4,0-8,3.6-8,8s3.6,8,8,8h32c4.4,0,8-3.6,8-8S100.4,184,96,184z"/>
	<path d="M192,168h-16c-4.4,0-8,3.6-8,8s3.6,8,8,8h16c4.4,0,8-3.6,8-8S196.4,168,192,168z"/>
	<path d="M192,128h-16c-4.4,0-8,3.6-8,8s3.6,8,8,8h16c4.4,0,8-3.6,8-8S196.4,128,192,128z"/>
</g>
</svg>
