<?xml version="1.0" encoding="utf-8"?>
<!-- Generator: Adobe Illustrator 25.0.0, SVG Export Plug-In . SVG Version: 6.00 Build 0)  -->
<svg version="1.1" id="Raw" xmlns="http://www.w3.org/2000/svg" xmlns:xlink="http://www.w3.org/1999/xlink" x="0px" y="0px"
	 viewBox="0 0 256 256" style="enable-background:new 0 0 256 256;" xml:space="preserve">
<path d="M232,95.9c0-0.6-0.1-1.2-0.2-1.8c0-0.1,0-0.1-0.1-0.2c-0.1-0.2-0.1-0.4-0.2-0.7c0-0.1-0.1-0.2-0.1-0.2
	c-0.1-0.2-0.2-0.4-0.3-0.6c0-0.1-0.1-0.2-0.1-0.2c-0.1-0.2-0.2-0.4-0.4-0.6c0-0.1-0.1-0.1-0.1-0.2c0,0,0,0,0,0
	c-0.2-0.2-0.4-0.5-0.6-0.7c0,0-0.1-0.1-0.1-0.1c-0.2-0.2-0.3-0.3-0.5-0.5c-0.1-0.1-0.1-0.1-0.2-0.2c-0.2-0.2-0.4-0.3-0.6-0.4
	c0,0-0.1-0.1-0.1-0.1l-96-64c-2.7-1.8-6.2-1.8-8.9,0l-96,64c0,0-0.1,0.1-0.1,0.1c-0.2,0.1-0.4,0.3-0.6,0.4c-0.1,0.1-0.1,0.1-0.2,0.2
	c-0.2,0.2-0.3,0.3-0.5,0.5c0,0-0.1,0.1-0.1,0.1c-0.2,0.2-0.4,0.4-0.6,0.7c0,0,0,0,0,0c0,0-0.1,0.1-0.1,0.1c-0.1,0.2-0.3,0.4-0.4,0.6
	c0,0.1-0.1,0.2-0.1,0.2c-0.1,0.2-0.2,0.4-0.3,0.6c0,0.1-0.1,0.2-0.1,0.2c-0.1,0.2-0.2,0.4-0.2,0.7c0,0.1,0,0.1-0.1,0.2
	c-0.1,0.6-0.2,1.2-0.2,1.8c0,0,0,0.1,0,0.1v104c0,8.8,7.2,16,16,16h176c8.8,0,16-7.2,16-16L232,95.9C232,96,232,95.9,232,95.9z
	 M40,111.5L96.7,152L40,192V111.5z M113.1,160h29.8l56.6,40H56.5L113.1,160z M159.3,152l56.7-40.4V192L159.3,152z M128,41.6
	l81.9,54.6l-67,47.8h-29.8l-67-47.8L128,41.6z"/>
</svg>
