<svg version="1.1" id="Layer_1" xmlns="http://www.w3.org/2000/svg" x="0" y="0" viewBox="0 0 384.5 378.7" xml:space="preserve"><style>.st1{fill:#fff}</style><path d="M384.5 189c0 113.8-77.2 189.7-192.3 189.7-115 0-192.2-75.9-192.2-189C0 75.9 77.2 0 192.3 0c115.1 0 192.2 75.9 192.2 189z" fill="#161412"/><path class="st1" d="M239.5 230.3c0 1-.9 2.1-2.2 2.1H211c-1 0-2.1-1-2.1-2.1v-98.1c0-1.2 1-2.2 2.1-2.2h26.3c1.3 0 2.2 1 2.2 2.2v98.1zm35.5 4.3c-9.6 0-21.7-3.4-30-8.5-.7-.7-1.2-1.5-.9-2.4l7.6-17.2c.3-.9 1.2-1 1.9-.6 5.8 3.4 12 6.1 17.1 6.1 3.1.3 5.2-1.5 5.2-3.7 0-7.6-32.5-5.2-32.5-33.1 0-15.9 13.5-26.6 33.7-26.6 9.7 0 21.2 3.4 29.1 8.5.7.6 1.2 1.3.9 2.1l-7.6 17.5c-.3.9-1.2 1-1.9.6-5.8-3.7-12-6.1-17.1-6.1-3.1-.3-5.2 1.2-5.2 3.6 0 7.9 32.5 5 32.5 33.3 0 15.8-13.1 26.5-32.8 26.5z"/><circle class="st1" cx="333.5" cy="212.7" r="21.9"/><path class="st1" d="M74.1 148.6c-25.8 0-43.1 17.2-43.1 43.1 0 25.7 17.5 42.9 43.8 42.9 11.4 0 22.9-3.1 30.7-8.3 1-.6 1.3-1.2 1-2.2l-6.4-18.4c-.3-1-1.2-1.6-2.2-1.2-6.7 3.1-15.1 4.9-22.7 4.9-12.5 0-12.5-9.3-12.5-9.3h47.7c1.3 0 2.1-.6 2.2-1.8.4-2.2.6-4.5.6-6.7.1-27.1-14.5-43-39.1-43zm-11.4 35.8c0-6.5 4.5-10.8 11.1-10.8 5.9 0 9.9 4.3 9.9 10.8h-21zm103.1-35.9c-10 0-19.5 3.9-25.1 9.8l-2.2-5.3c-.6-1.3-1.3-2.2-2.4-2.2h-16.8c-1.2 0-2.2 1-2.2 2.2v105c0 1 1 2.1 2.2 2.1h26.1c1.2 0 2.2-1 2.2-2.1v-29.1c4.5 3.6 11.1 5.6 18.1 5.6 23.5 0 39.2-17.2 39.2-42.9.1-25.9-15.6-43.1-39.1-43.1zm-6.3 60.4c-5.2 0-10-3.3-11.7-8.2V182c1.8-4.9 6.5-8.2 11.7-8.2 8.2 0 13.7 7.1 13.7 17.8-.1 10.5-5.6 17.3-13.7 17.3z"/></svg>