<svg xmlns="http://www.w3.org/2000/svg" viewBox="0 0 369.8 66.8"><path d="M35 49.1c.1.5 0 .8-.5 1-3.6 2.4-8.9 3.8-14.2 3.8C8.1 54 0 46 0 34.1c0-12 8-19.9 19.9-19.9 11.4 0 18.1 7.4 18.1 19.9 0 1-.1 2.1-.3 3.1-.1.5-.4.8-1 .8h-22s0 4.3 5.8 4.3c3.5 0 7.4-.8 10.5-2.3.5-.2.9.1 1 .5l3 8.6zM24.4 30.7c0-3-1.9-5-4.6-5-3.1 0-5.2 2-5.2 5h9.8zm28.5-12.1c2.6-2.8 7-4.5 11.6-4.5 10.9 0 18.2 8 18.2 19.9s-7.3 19.9-18.2 19.9c-3.2 0-6.3-1-8.4-2.6v13.5c0 .5-.5 1-1 1H43c-.5 0-1-.5-1-1V16.2c0-.6.5-1 1-1h7.8c.5 0 .8.4 1.1 1l1 2.4zm3.2 19.7c.8 2.3 3 3.8 5.4 3.8 3.8 0 6.3-3.2 6.3-8 0-5-2.5-8.2-6.3-8.2-2.4 0-4.6 1.5-5.4 3.8v8.6zM99.6 3.1c.6 0 1 .5 1 1v47.8c0 .5-.5 1-1 1H87.5c-.6 0-1-.5-1-1V4.1c0-.5.5-1 1-1h12.1zm8.7 37.9c.1-.4.6-.5.9-.3 2.7 1.6 5.6 2.8 7.9 2.8 1.4.1 2.4-.7 2.4-1.7 0-3.5-15.1-2.4-15.1-15.3 0-7.4 6.3-12.3 15.6-12.3 4.5 0 9.8 1.6 13.5 3.9.3.3.6.6.4 1l-3.5 8.1c-.1.4-.6.5-.9.3-2.7-1.7-5.6-2.8-7.9-2.8-1.4-.1-2.4.5-2.4 1.6 0 3.6 15.1 2.3 15.1 15.4 0 7.4-6.1 12.3-15.2 12.3-4.5 0-10-1.6-13.9-3.9-.3-.3-.6-.7-.4-1.1l3.5-8zm35.1 12.9c-3.6 0-6.1-2.3-6.1-5.6 0-3.4 2.4-5.8 6.1-5.8s6.1 2.3 6.1 5.8c-.1 3.3-2.5 5.6-6.1 5.6zM192 3.1c.6 0 1 .5 1 1v47.8c0 .5-.5 1-1 1h-7.8c-.5 0-.8-.4-1.1-1l-1-2.5c-2.6 2.8-7 4.5-11.6 4.5-10.9 0-18.1-8-18.1-19.9s7.3-19.9 18.1-19.9c3.2 0 6.3 1 8.4 2.6V4.1c0-.5.5-1 1-1H192zm-13.1 26.7c-.8-2.3-3-3.8-5.4-3.8-3.8 0-6.3 3.2-6.3 8 0 5 2.5 8.2 6.3 8.2 2.4 0 4.6-1.5 5.4-3.8v-8.6zm53 19.3c.1.5 0 .8-.5 1-3.6 2.4-8.9 3.8-14.2 3.8-12.2 0-20.3-8-20.3-19.9 0-12 8-19.9 19.9-19.9 11.4 0 18.1 7.4 18.1 19.9 0 1-.1 2.1-.3 3.1-.1.5-.4.8-1 .8h-22.1s0 4.3 5.8 4.3c3.5 0 7.4-.8 10.5-2.3.5-.2.9.1 1 .5l3.1 8.7zm-10.6-18.4c0-3-1.9-5-4.6-5-3.1 0-5.2 2-5.2 5h9.8zM241.6 41c.1-.4.6-.5.9-.3 2.7 1.6 5.6 2.8 7.9 2.8 1.4.1 2.4-.7 2.4-1.7 0-3.5-15.1-2.4-15.1-15.3 0-7.4 6.3-12.3 15.6-12.3 4.5 0 9.8 1.6 13.5 3.9.3.3.5.6.4 1l-3.5 8.1c-.1.4-.5.5-.9.3-2.7-1.7-5.6-2.8-7.9-2.8-1.4-.1-2.4.5-2.4 1.6 0 3.6 15.1 2.3 15.1 15.4 0 7.4-6 12.3-15.2 12.3-4.5 0-10-1.6-13.9-3.9-.3-.3-.6-.7-.4-1.1l3.5-8zm44.5-33.9c0 4.1-3 6.8-7.6 6.8-4.5 0-7.6-2.8-7.6-6.8 0-4.3 3-7.1 7.6-7.1s7.6 2.8 7.6 7.1zm-1.4 8c.5 0 1 .5 1 1v35.8c0 .5-.5 1-1 1h-12.1c-.5 0-1-.5-1-1V16.1c0-.5.5-1 1-1h12.1zM314.5 48c-1.1 2.2-4.4 3.6-8.2 3.6-10 0-16.7-7.2-16.7-18.1 0-12.2 6.2-19.4 16.7-19.4 5.3 0 9.5 1.4 11.3 3.9l1.2-1.9c.4-.6 1-1 1.6-1h7.3c.6 0 1 .4 1 1v33.3c0 10.4-9.4 17.3-21.1 17.3-6.8 0-12.9-1.6-16.2-4.3-.4-.3-.5-.8-.4-1.2l3.5-8.5c.2-.5.6-.7 1-.4 3 2.4 7.5 3.8 12.1 3.8 4.3 0 6.9-2.3 6.9-6.2V48zm0-17.9s-1-3.1-4.7-3.1c-3.4 0-5.4 2.4-5.4 6.5s2 6.6 5.4 6.6c3.7 0 4.7-3.1 4.7-3.1v-6.9zM344.3 18c2.2-2.4 6.9-3.9 11.1-3.9 9.4 0 14.4 4.3 14.4 15.1v22.7c0 .5-.5 1-1 1h-12.1c-.5 0-1-.5-1-1V31.4c0-2.8-1.2-4.3-3.4-4.3-3.9 0-4.5 3.9-4.5 3.9v21c0 .5-.5 1-1 1h-12.1c-.5 0-1-.5-1-1V16.1c0-.6.3-1 1-1h7.7c.5 0 .9.2 1.1.7l.8 2.2z"/></svg>