<svg version="1.1" id="Layer_1" xmlns="http://www.w3.org/2000/svg" x="0" y="0" viewBox="0 0 384.5 378.7" xml:space="preserve"><style>.st0{fill:#ffea3d}</style><path class="st0" d="M162.4 136.1c-16.8 0-28.3 11-28.3 27.5h53.5c.1-16.5-10.1-27.5-25.2-27.5z"/><path class="st0" d="M192.3 0C77.2 0 0 75.9 0 189.7c0 113.1 77.2 189 192.2 189 115.1 0 192.3-75.9 192.3-189.7 0-113.1-77.1-189-192.2-189zm69 199.1c-.3 3.1-2.3 4.6-5.6 4.6H134.2s0 23.7 31.9 23.7c19.4 0 40.8-4.6 57.8-12.5 2.5-1 4.8.5 5.6 3.1l16.3 46.9c.8 2.5 0 4.1-2.5 5.6-19.9 13.2-49.2 21.1-78.2 21.1-67 0-111.6-43.8-111.6-109.3 0-66 44.1-109.8 109.8-109.8 62.7 0 99.9 40.5 99.6 109.6-.1 5.5-.6 11.4-1.6 17zm35.7 88.6c-18.9 0-34.1-15.3-34.1-34.1 0-18.9 15.3-34.1 34.1-34.1 18.9 0 34.1 15.3 34.1 34.1s-15.3 34.1-34.1 34.1z"/></svg>