<?xml version="1.0" encoding="UTF-8"?>
<svg id="Layer_1" xmlns="http://www.w3.org/2000/svg" version="1.1" viewBox="0 0 24 24">
  <!-- Generator: Adobe Illustrator 29.8.0, SVG Export Plug-In . SVG Version: 2.1.1 Build 160)  -->
  <path d="M3.53,22c-.53,0-1.03-.14-1.48-.4-1.43-.83-1.92-2.67-1.1-4.1L9.43,3.35s0,0,0,0c.25-.41.6-.76,1.01-1.01,1.41-.86,3.26-.41,4.12,1.01l8.47,14.15c.27.46.41.97.41,1.48,0,.8-.3,1.56-.86,2.13-.56.57-1.31.89-2.11.9H3.53ZM11.15,4.38L2.68,18.51c-.27.46-.1,1.08.37,1.35.15.09.32.13.49.13h16.93c.26,0,.51-.11.69-.3.19-.19.29-.44.29-.71,0-.17-.05-.34-.13-.49L12.85,4.37c-.28-.47-.9-.62-1.37-.33-.14.08-.25.2-.34.34Z"/>
  <path d="M12,14c-.55,0-1-.45-1-1v-4c0-.55.45-1,1-1s1,.45,1,1v4c0,.55-.45,1-1,1Z"/>
  <path d="M12,18c-.26,0-.52-.11-.71-.29-.04-.05-.09-.1-.12-.15-.04-.06-.07-.12-.09-.18-.03-.06-.05-.12-.06-.18-.01-.07-.02-.13-.02-.2,0-.13.03-.26.08-.38.05-.12.12-.23.21-.33.28-.28.72-.36,1.09-.21.13.05.23.12.33.21.09.1.16.21.21.33.05.12.08.25.08.38,0,.07-.01.13-.02.2-.01.06-.03.12-.06.18-.02.06-.05.12-.09.18-.03.05-.08.1-.12.15-.09.09-.2.16-.33.21-.12.06-.25.08-.38.08Z"/>
</svg>