<?xml version="1.0" encoding="UTF-8"?>
<svg version="1.1" viewBox="0 0 24 24" xmlns="http://www.w3.org/2000/svg" xmlns:xlink="http://www.w3.org/1999/xlink">
    <!--Generated by IJSVG (https://github.com/iconjar/IJSVG)-->
    <g stroke-linecap="round" stroke-width="2" stroke="#000" fill="none" stroke-linejoin="round">
        <path d="M10.29,3.86l-8.47,14.14l-7.80912e-08,1.35236e-07c-0.552351,0.956547 -0.224686,2.17975 0.73186,2.7321c0.297614,0.171855 0.634491,0.264121 0.97814,0.267898h16.94l-1.12917e-07,1.24109e-09c1.1045,-0.0121397 1.99004,-0.917357 1.9779,-2.02186c-0.00377709,-0.343648 -0.0960428,-0.680526 -0.267898,-0.97814l-8.47,-14.14l1.92952e-08,3.18097e-08c-0.572861,-0.944407 -1.80285,-1.2456 -2.74726,-0.672744c-0.275097,0.166869 -0.505875,0.397647 -0.672744,0.672744Z"></path>
        <path d="M12,9v4"></path>
        <path d="M12,17v0"></path>
    </g>
</svg>