<?xml version="1.0" encoding="UTF-8"?>
<svg id="Layer_1" xmlns="http://www.w3.org/2000/svg" version="1.1" viewBox="0 0 24 24">
  <!-- Generator: Adobe Illustrator 29.8.0, SVG Export Plug-In . SVG Version: 2.1.1 Build 160)  -->
  <path d="M11.99,23c-.51,0-1.03-.13-1.5-.4-.45-.26-.83-.64-1.09-1.09-.28-.48-.11-1.09.36-1.37.48-.28,1.09-.11,1.37.36.09.15.21.28.36.36.48.28,1.09.11,1.37-.36.28-.48.89-.64,1.37-.36.48.28.64.89.36,1.37-.56.96-1.56,1.49-2.6,1.49Z"/>
  <path d="M18.63,14c-.44,0-.84-.29-.96-.74-.47-1.72-.69-3.5-.67-5.28,0-.55.46-.98,1-.98h.02c.55,0,.99.46.98,1.02-.03,1.59.17,3.18.59,4.72.15.53-.17,1.08-.7,1.23-.09.02-.18.04-.26.04Z"/>
  <path d="M17,18H3c-.44,0-.83-.29-.96-.71-.13-.42.04-.88.4-1.12.01,0,2.55-1.9,2.55-8.17,0-.69.1-1.37.3-2.03.16-.53.72-.82,1.25-.66.53.16.82.72.66,1.25-.14.47-.22.96-.22,1.44,0,4.01-.96,6.52-1.86,8h11.86c.55,0,1,.45,1,1s-.45,1-1,1Z"/>
  <path d="M18,9h0c-.55,0-1-.45-1-1,0-2.76-2.24-5-4.99-5.01h0c-.99,0-1.95.29-2.77.84-.46.31-1.08.18-1.39-.28-.31-.46-.18-1.08.28-1.39,1.15-.77,2.5-1.18,3.88-1.18h.01c3.86,0,7,3.15,6.99,7.01,0,.55-.45,1-1,1Z"/>
  <path d="M23,24c-.26,0-.51-.1-.71-.29L.29,1.71C-.1,1.32-.1.68.29.29S1.32-.1,1.71.29l22,22c.39.39.39,1.02,0,1.41-.2.2-.45.29-.71.29Z"/>
</svg>