<?xml version="1.0" encoding="UTF-8"?>
<svg version="1.1" viewBox="0 0 24 24" xmlns="http://www.w3.org/2000/svg" xmlns:xlink="http://www.w3.org/1999/xlink">
    <!--Generated by IJSVG (https://github.com/iconjar/IJSVG)-->
    <g stroke-linecap="round" stroke-width="2" stroke="#000" fill="none" stroke-linejoin="round">
        <path d="M13.73,21l-1.62211e-08,2.79635e-08c-0.554242,0.955453 -1.77809,1.2807 -2.73354,0.726456c-0.301277,-0.174766 -0.551691,-0.42518 -0.726456,-0.726456"></path>
        <path d="M18.63,13l4.41102e-07,1.61479e-06c-0.44487,-1.62859 -0.656974,-3.31195 -0.630001,-5"></path>
        <path d="M6.26,6.26l1.63201e-07,-5.2944e-07c-0.173734,0.563611 -0.261389,1.15022 -0.26,1.74c0,7 -3,9 -3,9h14"></path>
        <path d="M18,8l1.66983e-07,-0.000113264c0.00485406,-3.3137 -2.6775,-6.00393 -5.9912,-6.00878c-1.18832,-0.00174071 -2.3504,0.34942 -3.33889,1.00896"></path>
        <path d="M1,1l22,22"></path>
    </g>
</svg>