<?xml version="1.0" encoding="UTF-8"?>
<svg id="Layer_1" xmlns="http://www.w3.org/2000/svg" version="1.1" viewBox="0 0 24 24">
  <!-- Generator: Adobe Illustrator 29.8.0, SVG Export Plug-In . SVG Version: 2.1.1 Build 160)  -->
  <path d="M19,22c-.21,0-.41-.06-.58-.19l-6.42-4.58-6.42,4.58c-.3.22-.71.25-1.04.08s-.54-.51-.54-.89V5c0-1.65,1.35-3,3-3h10c1.65,0,3,1.35,3,3v16c0,.38-.21.72-.54.89-.14.07-.3.11-.46.11ZM12,15c.2,0,.41.06.58.19l5.42,3.87V5c0-.55-.45-1-1-1H7c-.55,0-1,.45-1,1v14.06l5.42-3.87c.17-.12.38-.19.58-.19Z"/>
</svg>