<?xml version="1.0" encoding="UTF-8"?>
<svg id="Layer_1" xmlns="http://www.w3.org/2000/svg" version="1.1" viewBox="0 0 24 24">
  <!-- Generator: Adobe Illustrator 29.8.0, SVG Export Plug-In . SVG Version: 2.1.1 Build 160)  -->
  <path d="M19,23H5c-1.65,0-3-1.35-3-3V6c0-1.65,1.35-3,3-3h14c1.65,0,3,1.35,3,3v14c0,1.65-1.35,3-3,3ZM5,5c-.55,0-1,.45-1,1v14c0,.55.45,1,1,1h14c.55,0,1-.45,1-1V6c0-.55-.45-1-1-1H5Z"/>
  <path d="M16,7c-.55,0-1-.45-1-1V2c0-.55.45-1,1-1s1,.45,1,1v4c0,.55-.45,1-1,1Z"/>
  <path d="M8,7c-.55,0-1-.45-1-1V2c0-.55.45-1,1-1s1,.45,1,1v4c0,.55-.45,1-1,1Z"/>
  <path d="M21,11H3c-.55,0-1-.45-1-1s.45-1,1-1h18c.55,0,1,.45,1,1s-.45,1-1,1Z"/>
</svg>