<?xml version="1.0" encoding="UTF-8"?>
<svg id="Layer_1" xmlns="http://www.w3.org/2000/svg" version="1.1" viewBox="0 0 192 192">
  <!-- Generator: Adobe Illustrator 29.8.0, SVG Export Plug-In . SVG Version: 2.1.1 Build 160)  -->
  <path d="M172.4,113.1l9.8-54c.1-.7.2-1.4.2-2.1,0-6.6-5.4-12-12-12H44.6l-3.7-20.1c-1-5.7-6-9.9-11.8-9.9h-13.5c-3.3,0-6,2.7-6,6s2.7,6,6,6h13.5l20,110.1c.2,1,.5,1.9.9,2.8-4.6,3.9-7.5,9.6-7.5,16,0,11.6,9.4,21,21,21s21-9.4,21-21c0-3.2-.8-6.3-2.1-9h52.1c-1.3,2.7-2.1,5.8-2.1,9,0,11.6,9.4,21,21,21s21-9.4,21-21-9.1-20.6-20.4-21H61l-2.2-12h101.8c5.8.1,10.8-4,11.8-9.8ZM72.6,156c0,5-4,9-9,9s-9-4-9-9,4-9,9-9,9,4,9,9ZM162.6,156c0,5-4,9-9,9s-9-4-9-9,4-9,9-9,9,4,9,9ZM46.8,57h123.6l-9.8,54H56.6l-9.8-54Z"/>
</svg>