<?xml version="1.0" encoding="UTF-8"?>
<svg id="Layer_1" xmlns="http://www.w3.org/2000/svg" version="1.1" viewBox="0 0 24 24">
  <!-- Generator: Adobe Illustrator 29.8.0, SVG Export Plug-In . SVG Version: 2.1.1 Build 160)  -->
  <path d="M11,18c-.26,0-.51-.1-.71-.29l-5-5c-.39-.39-.39-1.02,0-1.41l5-5c.39-.39,1.02-.39,1.41,0s.39,1.02,0,1.41l-4.29,4.29,4.29,4.29c.39.39.39,1.02,0,1.41-.2.2-.45.29-.71.29Z"/>
  <path d="M18,18c-.26,0-.51-.1-.71-.29l-5-5c-.39-.39-.39-1.02,0-1.41l5-5c.39-.39,1.02-.39,1.41,0s.39,1.02,0,1.41l-4.29,4.29,4.29,4.29c.39.39.39,1.02,0,1.41-.2.2-.45.29-.71.29Z"/>
</svg>