<?xml version="1.0" encoding="UTF-8"?>
<svg id="Layer_1" xmlns="http://www.w3.org/2000/svg" version="1.1" viewBox="0 0 24 24">
  <!-- Generator: Adobe Illustrator 29.8.0, SVG Export Plug-In . SVG Version: 2.1.1 Build 160)  -->
  <path d="M12,23c-2.94,0-5.7-1.14-7.78-3.22C-.07,15.49-.07,8.51,4.22,4.22,8.51-.07,15.49-.07,19.78,4.22h0c4.29,4.29,4.29,11.27,0,15.56-2.08,2.08-4.84,3.22-7.78,3.22ZM12,3c-2.3,0-4.61.88-6.36,2.63-3.51,3.51-3.51,9.22,0,12.73,1.7,1.7,3.96,2.64,6.36,2.64s4.66-.94,6.36-2.64c3.51-3.51,3.51-9.22,0-12.73-1.75-1.75-4.06-2.63-6.36-2.63Z"/>
  <path d="M16,15c-.15,0-.3-.03-.45-.11l-4-2c-.34-.17-.55-.52-.55-.89v-6c0-.55.45-1,1-1s1,.45,1,1v5.38l3.45,1.72c.49.25.69.85.45,1.34-.18.35-.53.55-.9.55Z"/>
</svg>