<?xml version="1.0" encoding="utf-8"?>
<!-- Generator: Adobe Illustrator 25.0.0, SVG Export Plug-In . SVG Version: 6.00 Build 0)  -->
<svg version="1.1" id="Raw" xmlns="http://www.w3.org/2000/svg" xmlns:xlink="http://www.w3.org/1999/xlink" x="0px" y="0px"
	 viewBox="0 0 256 256" style="enable-background:new 0 0 256 256;" xml:space="preserve">
<g>
	<path d="M128,24C70.7,24,24,70.7,24,128s46.7,104,104,104s104-46.7,104-104S185.3,24,128,24z M128,216c-48.5,0-88-39.5-88-88
		s39.5-88,88-88s88,39.5,88,88S176.5,216,128,216z"/>
	<path d="M184,120h-48V72c0-4.4-3.6-8-8-8c-4.4,0-8,3.6-8,8v56c0,4.4,3.6,8,8,8h56c4.4,0,8-3.6,8-8C192,123.6,188.4,120,184,120z"/>
</g>
</svg>
