<?xml version="1.0" encoding="UTF-8"?>
<svg id="Layer_1" xmlns="http://www.w3.org/2000/svg" version="1.1" viewBox="0 0 24 24">
  <!-- Generator: Adobe Illustrator 29.8.0, SVG Export Plug-In . SVG Version: 2.1.1 Build 160)  -->
  <path d="M6,19c-.26,0-.51-.1-.71-.29-.39-.39-.39-1.02,0-1.41l12-12c.39-.39,1.02-.39,1.41,0s.39,1.02,0,1.41l-12,12c-.2.2-.45.29-.71.29Z"/>
  <path d="M18,19c-.26,0-.51-.1-.71-.29L5.29,6.71c-.39-.39-.39-1.02,0-1.41s1.02-.39,1.41,0l12,12c.39.39.39,1.02,0,1.41-.2.2-.45.29-.71.29Z"/>
</svg>