<?xml version="1.0" encoding="UTF-8"?>
<svg id="Layer_1" xmlns="http://www.w3.org/2000/svg" version="1.1" viewBox="0 0 24 24">
  <!-- Generator: Adobe Illustrator 29.8.0, SVG Export Plug-In . SVG Version: 2.1.1 Build 160)  -->
  <path d="M20,21H4c-1.65,0-3-1.35-3-3V6c0-1.65,1.35-3,3-3h16c1.65,0,3,1.35,3,3v12c0,1.65-1.35,3-3,3ZM4,5c-.55,0-1,.45-1,1v12c0,.55.45,1,1,1h16c.55,0,1-.45,1-1V6c0-.55-.45-1-1-1H4Z"/>
  <path d="M12,14c-.2,0-.4-.06-.57-.18L1.43,6.82c-.45-.32-.56-.94-.25-1.39.32-.45.94-.56,1.39-.25l9.43,6.6,9.43-6.6c.45-.32,1.08-.21,1.39.25.32.45.21,1.08-.25,1.39l-10,7c-.17.12-.37.18-.57.18Z"/>
</svg>