<?xml version="1.0" encoding="UTF-8"?>
<svg id="Layer_1" xmlns="http://www.w3.org/2000/svg" version="1.1" viewBox="0 0 24 24">
  <!-- Generator: Adobe Illustrator 29.8.0, SVG Export Plug-In . SVG Version: 2.1.1 Build 160)  -->
  <path d="M12,22.23c-.27,0-.52-.11-.71-.29L2.45,13.1C-.08,10.56-.08,6.44,2.45,3.9c2.53-2.53,6.66-2.53,9.19,0l.35.35.35-.35s.01-.01.02-.02c1.23-1.22,2.85-1.88,4.58-1.88h0c1.74,0,3.37.68,4.6,1.9h0c1.23,1.23,1.9,2.86,1.9,4.6,0,1.74-.68,3.37-1.91,4.6l-8.84,8.84c-.19.19-.44.29-.71.29ZM7.05,4c-1.15,0-2.31.44-3.18,1.32s-1.32,1.98-1.32,3.18.47,2.33,1.32,3.18l8.13,8.13,8.13-8.13c.85-.85,1.32-1.98,1.32-3.18,0-1.2-.47-2.33-1.32-3.18h0c-1.75-1.76-4.61-1.76-6.36,0h0s0,0-.01.01l-1.05,1.05c-.38.38-1.04.38-1.41,0l-1.06-1.06c-.88-.88-2.03-1.32-3.18-1.32Z"/>
</svg>