<?xml version="1.0" encoding="UTF-8"?>
<svg version="1.1" viewBox="0 0 24 24" xmlns="http://www.w3.org/2000/svg" xmlns:xlink="http://www.w3.org/1999/xlink">
    <!--Generated by IJSVG (https://github.com/iconjar/IJSVG)-->
    <path d="M20.84,4.61l1.9475e-07,1.94841e-07c-2.14738,-2.14839 -5.62979,-2.14921 -7.77817,-0.00182601c-0.000608683,0.000608398 -0.00121722,0.00121694 -0.00182562,0.00182562l-1.06,1.06l-1.06,-1.06l3.78705e-07,3.78706e-07c-2.14839,-2.14839 -5.63161,-2.14839 -7.78,-7.57411e-07c-2.14839,2.14839 -2.14839,5.63161 -7.57411e-07,7.78c0,0 1.77636e-15,1.77636e-15 1.77636e-15,1.77636e-15l1.06,1.06l7.78,7.78l7.78,-7.78l1.06,-1.06l9.88459e-08,-9.87995e-08c2.14839,-2.14738 2.1492,-5.62979 0.00182542,-7.77817c-0.000608398,-0.000608683 -0.00121694,-0.00121722 -0.00182562,-0.00182562Z" stroke-linecap="round" stroke-width="2" stroke="#000" fill="none" stroke-linejoin="round"></path>
</svg>