<?xml version="1.0" encoding="UTF-8"?>
<svg id="Layer_1" xmlns="http://www.w3.org/2000/svg" version="1.1" viewBox="0 0 24 24">
  <!-- Generator: Adobe Illustrator 29.8.0, SVG Export Plug-In . SVG Version: 2.1.1 Build 160)  -->
  <path d="M12,23c-2.94,0-5.7-1.14-7.78-3.22C-.07,15.49-.07,8.51,4.22,4.22,8.51-.07,15.49-.07,19.78,4.22h0c4.29,4.29,4.29,11.27,0,15.56-2.08,2.08-4.84,3.22-7.78,3.22ZM12,3c-2.3,0-4.61.88-6.36,2.63-3.51,3.51-3.51,9.22,0,12.73,1.7,1.7,3.96,2.64,6.36,2.64s4.66-.94,6.36-2.64c3.51-3.51,3.51-9.22,0-12.73-1.75-1.75-4.06-2.63-6.36-2.63Z"/>
  <path d="M11.92,14c-.42,0-.81-.26-.95-.68-.17-.52.11-1.09.63-1.27.6-.2,2.32-1.02,2.32-2.05,0-.85-.54-1.61-1.34-1.89-.5-.18-1.05-.15-1.53.08-.48.23-.84.64-1.02,1.14-.18.52-.75.8-1.28.61-.52-.18-.79-.75-.61-1.28.35-1.01,1.08-1.82,2.04-2.28.96-.46,2.05-.52,3.06-.17,1.6.56,2.68,2.08,2.67,3.78,0,2.64-3.31,3.82-3.68,3.95-.1.04-.21.05-.32.05Z"/>
  <path d="M12,18c-.26,0-.52-.11-.71-.29-.04-.05-.09-.1-.12-.15-.04-.06-.07-.12-.09-.18-.03-.06-.05-.12-.06-.18-.01-.07-.02-.13-.02-.2,0-.13.03-.26.08-.38.05-.12.12-.23.21-.33.28-.28.72-.36,1.09-.21.13.05.23.12.33.21.09.1.16.21.21.33.05.12.08.25.08.38,0,.07-.01.13-.02.2-.01.06-.03.12-.06.18-.02.06-.05.12-.09.18-.03.05-.08.1-.12.15-.09.09-.2.16-.33.21-.12.06-.25.08-.38.08Z"/>
</svg>