<?xml version="1.0" encoding="UTF-8"?>
<svg id="Layer_1" xmlns="http://www.w3.org/2000/svg" version="1.1" viewBox="0 0 24 24">
  <!-- Generator: Adobe Illustrator 29.8.0, SVG Export Plug-In . SVG Version: 2.1.1 Build 160)  -->
  <path d="M14.01,16c-1.83,0-3.64-.83-4.81-2.4-.33-.44-.24-1.07.2-1.4.44-.33,1.07-.24,1.4.2,1.32,1.77,3.83,2.13,5.6.81.15-.12.3-.24.43-.38l3-3c1.52-1.57,1.48-4.11-.11-5.64-1.56-1.5-4-1.5-5.56,0l-1.71,1.7c-.39.39-1.03.39-1.41,0-.39-.39-.39-1.02,0-1.41l1.72-1.71c2.35-2.27,6.01-2.27,8.35-.01,1.15,1.11,1.8,2.61,1.83,4.21.03,1.6-.57,3.12-1.68,4.27l-3.01,3.01c-.2.2-.42.39-.65.56-1.08.8-2.33,1.19-3.58,1.19Z"/>
  <path d="M7.05,22.94c-1.5,0-3-.56-4.16-1.69-2.38-2.3-2.45-6.11-.15-8.48l3.01-3.01c.2-.2.42-.39.65-.56,1.28-.96,2.86-1.36,4.45-1.13,1.59.23,2.99,1.06,3.95,2.34.33.44.24,1.07-.2,1.4-.44.33-1.07.24-1.4-.2-.64-.86-1.57-1.41-2.63-1.56-1.06-.15-2.11.12-2.97.76-.15.11-.3.24-.43.38l-3,3c-1.52,1.57-1.48,4.11.11,5.64,1.56,1.5,4,1.5,5.56,0l1.7-1.7c.39-.39,1.02-.39,1.41,0s.39,1.02,0,1.41l-1.71,1.71c-1.18,1.14-2.68,1.7-4.19,1.7Z"/>
</svg>