<?xml version="1.0" encoding="UTF-8"?>
<svg id="Layer_1" xmlns="http://www.w3.org/2000/svg" version="1.1" viewBox="0 0 24 24">
  <!-- Generator: Adobe Illustrator 29.8.0, SVG Export Plug-In . SVG Version: 2.1.1 Build 160)  -->
  <path d="M20.45,20.45h-3.55v-5.57c0-1.33-.03-3.04-1.85-3.04s-2.14,1.44-2.14,2.94v5.67h-3.55v-11.45h3.41v1.56h.05c.48-.9,1.64-1.85,3.37-1.85,3.6,0,4.27,2.37,4.27,5.45v6.29h0ZM5.34,7.43c-1.14,0-2.06-.93-2.06-2.07s.92-2.06,2.06-2.06,2.06.92,2.06,2.06-.93,2.07-2.06,2.07ZM7.12,20.45h-3.56v-11.45h3.56v11.45ZM22.23,0H1.77C.79,0,0,.77,0,1.73v20.54c0,.96.79,1.73,1.77,1.73h20.45c.98,0,1.78-.77,1.78-1.73V1.73c0-.95-.8-1.73-1.78-1.73h0Z"/>
</svg>