<?xml version="1.0" encoding="UTF-8"?>
<svg id="Layer_1" xmlns="http://www.w3.org/2000/svg" version="1.1" viewBox="0 0 24 24">
  <!-- Generator: Adobe Illustrator 29.8.0, SVG Export Plug-In . SVG Version: 2.1.1 Build 160)  -->
  <path d="M12,7c-.55,0-1-.45-1-1V2c0-.55.45-1,1-1s1,.45,1,1v4c0,.55-.45,1-1,1Z"/>
  <path d="M12,23c-.55,0-1-.45-1-1v-4c0-.55.45-1,1-1s1,.45,1,1v4c0,.55-.45,1-1,1Z"/>
  <path d="M7.76,8.76c-.26,0-.51-.1-.71-.29l-2.83-2.83c-.39-.39-.39-1.02,0-1.41s1.02-.39,1.41,0l2.83,2.83c.39.39.39,1.02,0,1.41-.2.2-.45.29-.71.29Z"/>
  <path d="M19.07,20.07c-.26,0-.51-.1-.71-.29l-2.83-2.83c-.39-.39-.39-1.02,0-1.41s1.02-.39,1.41,0l2.83,2.83c.39.39.39,1.02,0,1.41-.2.2-.45.29-.71.29Z"/>
  <path d="M6,13H2c-.55,0-1-.45-1-1s.45-1,1-1h4c.55,0,1,.45,1,1s-.45,1-1,1Z"/>
  <path d="M22,13h-4c-.55,0-1-.45-1-1s.45-1,1-1h4c.55,0,1,.45,1,1s-.45,1-1,1Z"/>
  <path d="M4.93,20.07c-.26,0-.51-.1-.71-.29-.39-.39-.39-1.02,0-1.41l2.83-2.83c.39-.39,1.02-.39,1.41,0s.39,1.02,0,1.41l-2.83,2.83c-.2.2-.45.29-.71.29Z"/>
  <path d="M16.24,8.76c-.26,0-.51-.1-.71-.29-.39-.39-.39-1.02,0-1.41l2.83-2.83c.39-.39,1.02-.39,1.41,0s.39,1.02,0,1.41l-2.83,2.83c-.2.2-.45.29-.71.29Z"/>
</svg>