<?xml version="1.0" encoding="UTF-8"?>
<svg id="Layer_1" xmlns="http://www.w3.org/2000/svg" version="1.1" viewBox="0 0 24 24">
  <!-- Generator: Adobe Illustrator 29.8.0, SVG Export Plug-In . SVG Version: 2.1.1 Build 160)  -->
  <path d="M12,24c-.19,0-.39-.06-.55-.17-.39-.26-9.45-6.38-9.45-13.83C2,4.49,6.49,0,12,0s10,4.49,10,10c0,7.45-9.06,13.58-9.45,13.83-.17.11-.36.17-.55.17ZM12,2c-4.41,0-8,3.59-8,8,0,5.41,6.1,10.36,8,11.77,1.9-1.41,8-6.36,8-11.77,0-4.41-3.59-8-8-8Z"/>
  <path d="M12,14c-1.07,0-2.07-.42-2.83-1.17-.76-.76-1.17-1.76-1.17-2.83s.42-2.07,1.17-2.83c1.51-1.51,4.15-1.51,5.66,0h0c.76.76,1.17,1.76,1.17,2.83s-.42,2.07-1.17,2.83c-.75.76-1.76,1.17-2.83,1.17ZM12,8c-.53,0-1.04.21-1.41.59-.78.78-.78,2.05,0,2.83s2.07.76,2.83,0c.38-.38.59-.88.59-1.41s-.21-1.04-.59-1.41h0c-.38-.38-.88-.59-1.41-.59Z"/>
</svg>