<?xml version="1.0" encoding="UTF-8"?>
<svg version="1.1" viewBox="0 0 24 24" xmlns="http://www.w3.org/2000/svg" xmlns:xlink="http://www.w3.org/1999/xlink">
    <!--Generated by IJSVG (https://github.com/iconjar/IJSVG)-->
    <g stroke-linecap="round" stroke-width="2" stroke="#000" fill="none" stroke-linejoin="round">
        <path d="M21,10c0,7 -9,13 -9,13c0,0 -9,-6 -9,-13l1.03029e-13,1.35896e-06c-7.50534e-07,-4.97056 4.02944,-9 9,-9c4.97056,-7.50534e-07 9,4.02944 9,9c0,0 0,7.10543e-15 0,7.10543e-15Z"></path>
        <path d="M14.1213,7.87868c1.17157,1.17157 1.17157,3.07107 0,4.24264c-1.17157,1.17157 -3.07107,1.17157 -4.24264,0c-1.17157,-1.17157 -1.17157,-3.07107 0,-4.24264c1.17157,-1.17157 3.07107,-1.17157 4.24264,-8.88178e-16"></path>
    </g>
</svg>