<?xml version="1.0" encoding="UTF-8"?>
<svg id="Layer_1" xmlns="http://www.w3.org/2000/svg" version="1.1" viewBox="0 0 24 24">
  <!-- Generator: Adobe Illustrator 29.8.0, SVG Export Plug-In . SVG Version: 2.1.1 Build 160)  -->
  <path d="M19,23H5c-1.65,0-3-1.35-3-3v-7c0-1.65,1.35-3,3-3h14c1.65,0,3,1.35,3,3v7c0,1.65-1.35,3-3,3ZM5,12c-.55,0-1,.45-1,1v7c0,.55.45,1,1,1h14c.55,0,1-.45,1-1v-7c0-.55-.45-1-1-1H5Z"/>
  <path d="M17,12c-.55,0-1-.45-1-1v-4c0-2.21-1.79-4-4-4s-4,1.79-4,4v4c0,.55-.45,1-1,1s-1-.45-1-1v-4c0-3.31,2.69-6,6-6s6,2.69,6,6v4c0,.55-.45,1-1,1Z"/>
</svg>