<?xml version="1.0" encoding="UTF-8"?>
<svg id="Layer_1" xmlns="http://www.w3.org/2000/svg" version="1.1" viewBox="0 0 24 24">
  <!-- Generator: Adobe Illustrator 29.8.0, SVG Export Plug-In . SVG Version: 2.1.1 Build 160)  -->
  <path d="M21,10c-.55,0-1-.45-1-1v-5h-5c-.55,0-1-.45-1-1s.45-1,1-1h6c.55,0,1,.45,1,1v6c0,.55-.45,1-1,1Z"/>
  <path d="M9,22H3c-.55,0-1-.45-1-1v-6c0-.55.45-1,1-1s1,.45,1,1v5h5c.55,0,1,.45,1,1s-.45,1-1,1Z"/>
  <path d="M14,11c-.26,0-.51-.1-.71-.29-.39-.39-.39-1.02,0-1.41l7-7c.39-.39,1.02-.39,1.41,0s.39,1.02,0,1.41l-7,7c-.2.2-.45.29-.71.29Z"/>
  <path d="M3,22c-.26,0-.51-.1-.71-.29-.39-.39-.39-1.02,0-1.41l7-7c.39-.39,1.02-.39,1.41,0s.39,1.02,0,1.41l-7,7c-.2.2-.45.29-.71.29Z"/>
</svg>