<?xml version="1.0" encoding="UTF-8"?>
<svg id="Layer_1" xmlns="http://www.w3.org/2000/svg" version="1.1" viewBox="0 0 24 24">
  <!-- Generator: Adobe Illustrator 29.8.0, SVG Export Plug-In . SVG Version: 2.1.1 Build 160)  -->
  <path d="M12,14c-.53,0-1.04-.21-1.41-.59-.78-.78-.78-2.05,0-2.83s2.07-.76,2.83,0c.78.78.78,2.05,0,2.83-.38.38-.88.59-1.41.59ZM12,12h0,0ZM12,12h0,0ZM12,12h0,0ZM12,12h.01-.01ZM12,12h0ZM12,12h0ZM12,12h0,0ZM12,12h0ZM12,12h0Z"/>
  <path d="M19,14c-.53,0-1.04-.21-1.41-.59-.78-.78-.78-2.05,0-2.83.76-.76,2.07-.76,2.83,0,.78.78.78,2.05,0,2.83-.38.38-.88.59-1.41.59ZM19,12h0,0ZM19,12h0,0ZM19,12h0,0ZM19,12h0,0ZM19,12h0,0ZM19,12h0ZM19,12h0ZM19,12h0ZM19,12h0Z"/>
  <path d="M5,14c-.53,0-1.04-.21-1.41-.59-.78-.78-.78-2.05,0-2.83s2.07-.76,2.83,0,.78,2.05,0,2.83c-.38.38-.88.59-1.41.59ZM5,12h0,0ZM5,12h0,0ZM5,12h0,0ZM5,12h.01-.01ZM5,12h0ZM5,12h0ZM5,12h0,0ZM5,12h0ZM5,12h0Z"/>
</svg>