<?xml version="1.0" encoding="UTF-8"?>
<svg version="1.1" viewBox="0 0 24 24" xmlns="http://www.w3.org/2000/svg" xmlns:xlink="http://www.w3.org/1999/xlink">
    <!--Generated by IJSVG (https://github.com/iconjar/IJSVG)-->
    <path d="M22,16.92v3l2.44948e-08,6.03691e-06c0.00448009,1.10456 -0.887311,2.00362 -1.99187,2.0081c-0.0628039,0.000254732 -0.125585,-0.00244895 -0.188134,-0.00810205l-1.4548e-06,-1.58076e-07c-3.07717,-0.334359 -6.033,-1.38586 -8.63,-3.07l8.2599e-07,5.24868e-07c-2.41617,-1.53534 -4.46466,-3.58383 -6,-6l9.31128e-07,1.43733e-06c-1.69002,-2.6088 -2.74176,-5.579 -3.07,-8.67l-5.04141e-09,-5.57865e-08c-0.0994143,-1.10009 0.711791,-2.07247 1.81188,-2.17189c0.0592255,-0.00535218 0.11866,-0.00806024 0.178127,-0.00811609h3l-6.91688e-08,6.80769e-10c1.00386,-0.00988019 1.8595,0.725967 2,1.72l4.73184e-09,3.58772e-08c0.126623,0.960066 0.361449,1.90273 0.7,2.81l4.22204e-08,1.12318e-07c0.274735,0.730875 0.099015,1.55481 -0.45,2.11l-1.27,1.27l-5.98357e-07,-1.05231e-06c1.42356,2.50355 3.49645,4.57644 6,6l1.27,-1.27l-8.35678e-08,8.26378e-08c0.555194,-0.549015 1.37912,-0.724735 2.11,-0.45l1.01236e-07,3.77765e-08c0.907273,0.338551 1.84993,0.573377 2.81,0.7l3.11183e-08,4.39001e-09c1.00556,0.14186 1.74519,1.01479 1.72,2.03Z" stroke-linecap="round" stroke-width="2" stroke="#000" fill="none" stroke-linejoin="round"></path>
</svg>