<?xml version="1.0" encoding="UTF-8"?>
<svg id="Layer_1" xmlns="http://www.w3.org/2000/svg" version="1.1" viewBox="0 0 24 24">
  <!-- Generator: Adobe Illustrator 29.8.0, SVG Export Plug-In . SVG Version: 2.1.1 Build 160)  -->
  <path d="M19.98,22.93c-.08,0-.17,0-.25-.01-3.23-.35-6.37-1.47-9.08-3.23-2.52-1.6-4.7-3.78-6.3-6.3-1.76-2.72-2.88-5.87-3.22-9.1-.07-.81.17-1.59.68-2.21.51-.62,1.24-.99,2.03-1.07.09,0,.18-.01.27-.01h3.03c1.48,0,2.75,1.1,2.96,2.58.12.89.34,1.76.65,2.6.41,1.09.15,2.33-.68,3.16l-.72.72c1.18,1.84,2.74,3.41,4.59,4.59l.72-.72c.83-.82,2.08-1.09,3.17-.68.83.31,1.71.53,2.59.64,1.51.21,2.62,1.52,2.59,3.03v2.99c0,.8-.31,1.55-.87,2.12s-1.32.88-2.12.89h-.03ZM7.13,3h-3.02c-.35.03-.59.15-.77.36-.17.21-.25.46-.23.73.31,2.9,1.32,5.75,2.91,8.22,1.45,2.28,3.42,4.25,5.7,5.7,2.46,1.6,5.3,2.6,8.2,2.92.35.04.59-.1.78-.29.19-.19.29-.44.29-.71v-3.03c.01-.51-.36-.94-.86-1.01-1.02-.13-2.04-.39-3.02-.75-.37-.14-.78-.05-1.06.22l-1.27,1.27c-.32.32-.81.38-1.2.16-2.66-1.51-4.86-3.72-6.38-6.37-.22-.39-.16-.88.16-1.2l1.27-1.27c.27-.27.36-.69.22-1.05-.37-.98-.62-2-.76-3.03-.07-.48-.49-.85-.99-.85Z"/>
</svg>