<?xml version="1.0" encoding="utf-8"?>
<!-- Generator: Adobe Illustrator 25.0.0, SVG Export Plug-In . SVG Version: 6.00 Build 0)  -->
<svg version="1.1" id="Raw" xmlns="http://www.w3.org/2000/svg" xmlns:xlink="http://www.w3.org/1999/xlink" x="0px" y="0px"
	 viewBox="0 0 256 256" style="enable-background:new 0 0 256 256;" xml:space="preserve">
<g>
	<path d="M128,24C70.7,24,24,70.7,24,128s46.7,104,104,104s104-46.7,104-104S185.3,24,128,24z M128,216c-48.5,0-88-39.5-88-88
		s39.5-88,88-88s88,39.5,88,88S176.5,216,128,216z"/>
	<path d="M164.4,121.3l-48-32c-2.5-1.6-5.6-1.8-8.2-0.4c-2.6,1.4-4.2,4.1-4.2,7.1v64c0,3,1.6,5.7,4.2,7.1c1.2,0.6,2.5,0.9,3.8,0.9
		c1.6,0,3.1-0.5,4.4-1.3l48-32c2.2-1.5,3.6-4,3.6-6.7S166.7,122.8,164.4,121.3z M120,145.1v-34.1l25.6,17.1L120,145.1z"/>
</g>
</svg>
