<?xml version="1.0" encoding="UTF-8"?>
<svg id="Layer_1" xmlns="http://www.w3.org/2000/svg" version="1.1" viewBox="0 0 24 24">
  <!-- Generator: Adobe Illustrator 29.8.0, SVG Export Plug-In . SVG Version: 2.1.1 Build 160)  -->
  <path d="M11,14c-.26,0-.51-.1-.71-.29-.39-.39-.39-1.02,0-1.41L21.29,1.29c.39-.39,1.02-.39,1.41,0s.39,1.02,0,1.41l-11,11c-.2.2-.45.29-.71.29Z"/>
  <path d="M15,23c-.39,0-.75-.23-.91-.59l-3.84-8.65L1.59,9.91c-.37-.17-.61-.54-.59-.95.02-.41.28-.77.67-.9L21.67,1.06c.36-.13.77-.04,1.04.24.27.27.36.67.24,1.04l-7,20c-.14.39-.49.65-.9.67-.01,0-.03,0-.04,0ZM4.71,9.11l6.7,2.98c.23.1.41.28.51.51l2.98,6.7,5.48-15.66-15.66,5.48Z"/>
</svg>