<?xml version="1.0" encoding="UTF-8"?>
<svg id="Layer_1" xmlns="http://www.w3.org/2000/svg" version="1.1" viewBox="0 0 24 24">
  <!-- Generator: Adobe Illustrator 29.8.0, SVG Export Plug-In . SVG Version: 2.1.1 Build 160)  -->
  <path d="M12,16c-1.07,0-2.07-.42-2.83-1.17-.76-.75-1.17-1.76-1.17-2.83s.42-2.07,1.17-2.83c1.51-1.51,4.15-1.51,5.66,0h0c.76.76,1.17,1.76,1.17,2.83s-.42,2.07-1.17,2.83c-.75.76-1.76,1.17-2.83,1.17ZM12,10c-.53,0-1.04.21-1.41.59-.78.78-.78,2.05,0,2.83s2.07.76,2.83,0c.38-.38.59-.88.59-1.41s-.21-1.04-.59-1.41h0c-.38-.38-.88-.59-1.41-.59Z"/>
  <path d="M12.08,24c-1.65,0-3-1.35-3-3,0-.33-.17-.57-.42-.66-.3-.13-.59-.08-.78.11-1.22,1.22-3.12,1.22-4.29.05-.57-.57-.88-1.32-.88-2.12,0-.8.31-1.55.88-2.12.24-.25.29-.53.18-.77-.11-.25-.34-.4-.6-.4h-.17c-1.65,0-3-1.35-3-3s1.35-3,3-3c.33,0,.57-.17.66-.43.13-.3.08-.58-.11-.77-1.22-1.22-1.22-3.12-.05-4.29.57-.57,1.32-.88,2.12-.88h0c.8,0,1.55.31,2.12.88.25.24.53.29.77.18.06-.03.13-.05.2-.06.18-.12.28-.32.29-.54v-.17c0-1.65,1.35-3,3-3s3,1.35,3,3c0,.35.16.58.39.68.25.11.54.06.73-.13.62-.62,1.37-.93,2.17-.93h0c.8,0,1.55.31,2.12.88,1.17,1.17,1.17,3.07,0,4.24-.24.25-.29.53-.18.77.03.06.05.13.06.2.12.18.32.28.54.28h.17c1.65,0,3,1.35,3,3s-1.35,3-3,3c-.34,0-.58.16-.68.39,0,0,0,0,0,.01-.11.24-.06.53.13.72,1.22,1.22,1.22,3.12.05,4.29-.57.57-1.32.88-2.12.88h0c-.8,0-1.55-.31-2.12-.88-.25-.24-.53-.29-.77-.18-.25.11-.4.34-.4.6v.17c0,1.65-1.35,3-3,3ZM8.35,18.26c.36,0,.72.07,1.06.22.97.35,1.65,1.31,1.68,2.4,0,0,0,.11,0,.11,0,.55.45,1,1,1s1-.45,1-1v-.17c0-1.06.64-2.01,1.61-2.43.98-.44,2.13-.23,2.91.53.26.26.51.36.78.36h0c.27,0,.52-.1.71-.29.19-.19.29-.44.29-.71,0-.27-.1-.52-.29-.71-.83-.85-1.04-1.99-.6-2.99.42-.97,1.37-1.6,2.42-1.6.65,0,1.09-.45,1.09-1s-.45-1-1-1h-.17c-1.06,0-2.01-.63-2.43-1.61-.04-.08-.06-.17-.07-.26-.33-.95-.11-2,.61-2.73.46-.46.46-1.09.07-1.48-.19-.19-.44-.29-.71-.29h0c-.27,0-.52.1-.71.29-.85.83-2,1.04-2.99.6-.96-.41-1.59-1.36-1.6-2.42,0-.65-.45-1.09-1-1.09s-1,.45-1,1v.17c0,1.06-.63,2.01-1.61,2.43-.08.04-.17.06-.26.07-.95.33-2,.11-2.73-.61-.46-.46-1.09-.46-1.48-.07-.39.39-.39,1.03,0,1.42.83.85,1.04,1.99.6,2.99-.35.97-1.31,1.65-2.4,1.68,0,0-.11,0-.11,0-.55,0-1,.45-1,1s.45,1,1,1h.17c1.06,0,2.01.63,2.43,1.61.44.99.23,2.14-.53,2.91-.26.26-.36.51-.36.78,0,.27.1.52.29.71.39.39,1.03.39,1.42,0,.56-.55,1.25-.82,1.93-.82ZM19.4,15h0,0Z"/>
</svg>