<?xml version="1.0" encoding="UTF-8"?>
<svg version="1.1" viewBox="0 0 24 24" xmlns="http://www.w3.org/2000/svg" xmlns:xlink="http://www.w3.org/1999/xlink">
    <!--Generated by IJSVG (https://github.com/iconjar/IJSVG)-->
    <g stroke-linecap="round" stroke-width="2" stroke="#000" fill="none" stroke-linejoin="round">
        <path d="M14.1213,9.87868c1.17157,1.17157 1.17157,3.07107 0,4.24264c-1.17157,1.17157 -3.07107,1.17157 -4.24264,0c-1.17157,-1.17157 -1.17157,-3.07107 0,-4.24264c1.17157,-1.17157 3.07107,-1.17157 4.24264,0"></path>
        <path d="M19.4,15l-3.33184e-08,7.54938e-08c-0.272346,0.61709 -0.141666,1.33781 0.33,1.82l0.06,0.06l8.11059e-08,8.10157e-08c0.781483,0.780614 0.782187,2.04694 0.00157315,2.82843c-0.000524146,0.000524729 -0.00104858,0.00104917 -0.00157331,0.00157331l1.09942e-07,-1.10064e-07c-0.780614,0.781483 -2.04694,0.782187 -2.82843,0.00157353c-0.000524729,-0.000524146 -0.00104917,-0.00104858 -0.00157331,-0.00157331l-0.06,-0.06l-4.13623e-08,-4.04598e-08c-0.482187,-0.471666 -1.20291,-0.602346 -1.82,-0.33l-1.34293e-08,5.75562e-09c-0.604471,0.259068 -0.997377,0.852357 -1,1.51v0.17v0c0,1.10457 -0.895431,2 -2,2l-8.74228e-08,-7.10543e-15c-1.10457,-4.82823e-08 -2,-0.895431 -2,-2c0,0 0,0 0,0v-0.09l8.53804e-08,3.6503e-06c-0.0158419,-0.677329 -0.444125,-1.27614 -1.08,-1.51l-9.51042e-09,-4.19733e-09c-0.61709,-0.272346 -1.33781,-0.141666 -1.82,0.33l-0.06,0.06l1.09942e-07,-1.10064e-07c-0.780614,0.781483 -2.04694,0.782187 -2.82843,0.00157353c-0.000524729,-0.000524146 -0.00104917,-0.00104858 -0.00157331,-0.00157331l-3.6128e-08,-3.60878e-08c-0.781483,-0.780614 -0.782187,-2.04694 -0.00157324,-2.82843c0.000524146,-0.000524729 0.00104858,-0.00104917 0.00157331,-0.00157331l0.06,-0.06l-9.97385e-09,1.01963e-08c0.471666,-0.482187 0.602346,-1.20291 0.33,-1.82l-3.54571e-08,-8.27303e-08c-0.259068,-0.604471 -0.852357,-0.997377 -1.51,-1h-0.170004l-8.74228e-08,-3.55271e-15c-1.10457,-4.82823e-08 -2,-0.895431 -2,-2c0,0 0,0 0,0l2.4869e-14,3.01992e-07c-1.66785e-07,-1.10457 0.89543,-2 2,-2h0.09l-4.97861e-08,1.16455e-09c0.67733,-0.0158435 1.27614,-0.444129 1.51,-1.08l-2.49238e-08,5.64729e-08c0.272346,-0.61709 0.141666,-1.33781 -0.33,-1.82l-0.06,-0.06l-3.6128e-08,-3.60878e-08c-0.781483,-0.780614 -0.782187,-2.04694 -0.00157324,-2.82843c0.000524146,-0.000524729 0.00104858,-0.00104917 0.00157331,-0.00157331l1.92329e-08,-1.92543e-08c0.780614,-0.781483 2.04694,-0.782187 2.82843,-0.00157327c0.000524729,0.000524146 0.00104917,0.00104858 0.00157331,0.00157331l0.06,0.06l7.88552e-08,7.71347e-08c0.482187,0.471666 1.20291,0.602346 1.82,0.33h0.0799998l-1.19154e-07,5.1068e-08c0.604471,-0.259068 0.997377,-0.852357 1,-1.51v-0.17l2.30926e-14,3.01992e-07c-1.66785e-07,-1.10457 0.89543,-2 2,-2l-8.74228e-08,1.77636e-15c1.10457,-4.82823e-08 2,0.89543 2,2v0.09l-4.32677e-08,-1.08575e-05c0.00261858,0.657643 0.395521,1.25093 0.99999,1.51001l5.74929e-08,2.53739e-08c0.61709,0.272346 1.33781,0.141666 1.82,-0.33l0.06,-0.06l1.92329e-08,-1.92543e-08c0.780614,-0.781483 2.04694,-0.782187 2.82843,-0.00157327c0.000524729,0.000524146 0.00104917,0.00104858 0.00157331,0.00157331l8.11059e-08,8.10157e-08c0.781483,0.780614 0.782187,2.04694 0.00157315,2.82843c-0.000524146,0.000524729 -0.00104858,0.00104917 -0.00157331,0.00157331l-0.06,0.06l-9.08934e-08,9.29209e-08c-0.471666,0.482187 -0.602346,1.20291 -0.33,1.82v0.0800042l-1.9954e-09,-4.65575e-09c0.259068,0.604471 0.852357,0.997377 1.51,1h0.17001l-8.74228e-08,1.77636e-15c1.10457,-4.82823e-08 2,0.89543 2,2v0c0,1.10457 -0.895431,2 -2,2h-0.09l1.96701e-08,-7.8451e-11c-0.657643,0.0026229 -1.25093,0.395529 -1.51,1Z"></path>
    </g>
</svg>