<?xml version="1.0" encoding="UTF-8"?>
<svg id="Layer_1" xmlns="http://www.w3.org/2000/svg" version="1.1" viewBox="0 0 24 24">
  <!-- Generator: Adobe Illustrator 29.8.0, SVG Export Plug-In . SVG Version: 2.1.1 Build 160)  -->
  <path d="M18,9c-1.07,0-2.07-.42-2.83-1.17-.76-.76-1.17-1.76-1.17-2.83s.42-2.07,1.17-2.83c.75-.76,1.76-1.17,2.83-1.17s2.07.42,2.83,1.17c.76.76,1.17,1.76,1.17,2.83s-.42,2.07-1.17,2.83c-.75.76-1.76,1.17-2.83,1.17ZM18,3c-.53,0-1.04.21-1.41.59s-.59.88-.59,1.41.21,1.04.59,1.41c.76.76,2.07.76,2.83,0,.38-.38.59-.88.59-1.41s-.21-1.04-.59-1.41h0c-.38-.38-.88-.59-1.41-.59Z"/>
  <path d="M6,16c-1.07,0-2.07-.42-2.83-1.17-.76-.75-1.17-1.76-1.17-2.83s.42-2.07,1.17-2.83c1.51-1.51,4.15-1.51,5.66,0h0c.76.76,1.17,1.76,1.17,2.83s-.42,2.07-1.17,2.83c-.76.76-1.76,1.17-2.83,1.17ZM6,10c-.53,0-1.04.21-1.41.59s-.59.88-.59,1.41.21,1.04.59,1.41c.76.76,2.07.76,2.83,0,.38-.38.59-.88.59-1.41s-.21-1.04-.59-1.41h0c-.38-.38-.88-.59-1.41-.59Z"/>
  <path d="M18,23c-1.07,0-2.07-.42-2.83-1.17-.76-.75-1.17-1.76-1.17-2.83s.42-2.07,1.17-2.83c1.51-1.51,4.15-1.51,5.66,0h0c.76.75,1.17,1.76,1.17,2.83s-.42,2.07-1.17,2.83c-.75.76-1.76,1.17-2.83,1.17ZM18,17c-.53,0-1.04.21-1.41.59s-.59.88-.59,1.41.21,1.04.59,1.41c.76.76,2.07.76,2.83,0,.38-.38.59-.88.59-1.41s-.21-1.04-.59-1.41h0c-.38-.38-.88-.59-1.41-.59Z"/>
  <path d="M15.42,18.49c-.17,0-.34-.04-.5-.14l-6.83-3.98c-.48-.28-.64-.89-.36-1.37.28-.48.89-.64,1.37-.36l6.83,3.98c.48.28.64.89.36,1.37-.19.32-.52.5-.87.5Z"/>
  <path d="M8.59,11.49c-.34,0-.68-.18-.86-.5-.28-.48-.12-1.09.36-1.37l6.82-3.98c.48-.28,1.09-.12,1.37.36.28.48.12,1.09-.36,1.37l-6.82,3.98c-.16.09-.33.14-.5.14Z"/>
</svg>