<?xml version="1.0" encoding="UTF-8"?>
<svg id="Layer_1" xmlns="http://www.w3.org/2000/svg" version="1.1" viewBox="0 0 24 24">
  <!-- Generator: Adobe Illustrator 29.8.0, SVG Export Plug-In . SVG Version: 2.1.1 Build 160)  -->
  <path d="M5.04,15.16c0,1.39-1.13,2.52-2.52,2.52-1.39,0-2.52-1.13-2.52-2.52,0-1.39,1.13-2.52,2.52-2.52h2.52s0,2.52,0,2.52ZM6.31,15.16c0-1.39,1.13-2.52,2.52-2.52,1.39,0,2.52,1.13,2.52,2.52v6.31c0,1.39-1.13,2.52-2.52,2.52-1.39,0-2.52-1.13-2.52-2.52,0,0,0-6.31,0-6.31ZM8.83,5.04c-1.39,0-2.52-1.13-2.52-2.52,0-1.39,1.13-2.52,2.52-2.52,1.39,0,2.52,1.13,2.52,2.52v2.52h-2.52ZM8.83,6.31c1.39,0,2.52,1.13,2.52,2.52,0,1.39-1.13,2.52-2.52,2.52H2.52c-1.39,0-2.52-1.13-2.52-2.52,0-1.39,1.13-2.52,2.52-2.52,0,0,6.31,0,6.31,0ZM18.96,8.83c0-1.39,1.13-2.52,2.52-2.52,1.39,0,2.52,1.13,2.52,2.52,0,1.39-1.13,2.52-2.52,2.52h-2.52s0-2.52,0-2.52ZM17.69,8.83c0,1.39-1.13,2.52-2.52,2.52-1.39,0-2.52-1.13-2.52-2.52V2.52c0-1.39,1.13-2.52,2.52-2.52,1.39,0,2.52,1.13,2.52,2.52v6.31ZM15.16,18.96c1.39,0,2.52,1.13,2.52,2.52,0,1.39-1.13,2.52-2.52,2.52-1.39,0-2.52-1.13-2.52-2.52v-2.52s2.52,0,2.52,0ZM15.16,17.69c-1.39,0-2.52-1.13-2.52-2.52,0-1.39,1.13-2.52,2.52-2.52h6.31c1.39,0,2.52,1.13,2.52,2.52,0,1.39-1.13,2.52-2.52,2.52h-6.31Z"/>
</svg>