<?xml version="1.0" encoding="utf-8"?>
<!-- Generator: Adobe Illustrator 27.8.0, SVG Export Plug-In . SVG Version: 6.00 Build 0)  -->
<svg version="1.1" id="Layer_1" xmlns="http://www.w3.org/2000/svg" xmlns:xlink="http://www.w3.org/1999/xlink" x="0px" y="0px"
	 viewBox="0 0 24 24" style="enable-background:new 0 0 24 24;" xml:space="preserve">
<style type="text/css">
	.st0{fill-rule:evenodd;clip-rule:evenodd;}
</style>
<path class="st0" d="M1.1,0.9C1.2,1,2.9,3.5,5,6.5s3.9,5.7,4.2,6.1c0.3,0.4,0.5,0.7,0.5,0.7c0,0-0.1,0.1-0.2,0.3
	c-0.1,0.1-0.5,0.5-0.8,0.9c-0.3,0.3-0.8,0.9-1.1,1.3c-0.3,0.4-0.9,1-1.2,1.4c-0.4,0.4-1,1.2-1.4,1.7c-1.3,1.5-1.5,1.8-2.5,2.9
	c-0.5,0.6-1.1,1.2-1.1,1.3C1.1,23.1,1,23.2,1,23.2c0,0,0.3,0,1,0h1L4,22c0.6-0.7,1.1-1.3,1.3-1.5c0.3-0.3,2.2-2.6,2.4-2.8
	c0.1-0.1,0.2-0.2,0.2-0.2c0-0.1,0.4-0.5,0.9-1c0.4-0.5,0.8-0.9,0.8-0.9c0,0,0.2-0.3,0.5-0.6c0.3-0.3,0.5-0.5,0.5-0.5
	c0,0,1.3,1.9,2.9,4.3c1.6,2.3,3,4.3,3,4.4l0.1,0.1l3.3,0c2.7,0,3.3,0,3.3,0c0,0-1.6-2.3-5.6-8.2c-2.9-4.2-3.3-4.8-3.3-4.8
	c0,0,0.4-0.5,3-3.5c0.4-0.5,1.1-1.2,1.4-1.6c0.3-0.4,0.6-0.7,0.7-0.8c0.1-0.1,0.4-0.5,0.8-1c0.4-0.4,1-1.2,1.5-1.7
	c0.4-0.5,0.8-0.9,0.8-0.9c0,0,0,0-0.9,0h-1l-0.4,0.5c-0.6,0.7-1.6,1.9-1.9,2.2c-0.1,0.2-0.3,0.3-0.4,0.4c-0.1,0.1-0.2,0.2-0.3,0.3
	c-0.1,0.1-0.6,0.7-1.1,1.3c-0.5,0.6-0.9,1.1-0.9,1.1c0,0-0.1,0.1-0.2,0.3c-0.2,0.3-0.4,0.5-1.4,1.7C13.3,9,13.2,9,13.2,9
	c0,0-1.3-1.9-2.8-4.1L7.6,0.7l-3.3,0L1,0.7L1.1,0.9 M3.7,2.3c0,0,0.6,0.9,1.4,2c1.4,2,6.8,9.7,10.2,14.7c1.1,1.6,2,2.9,2,2.9
	c0,0,0.3,0,1.5,0l1.5,0L18,18.5l-1.6-2.2c-2.1-3-5.2-7.5-6.8-9.8l-3-4.3l-1.5,0L3.7,2.3L3.7,2.3"/>
</svg>
