<?xml version="1.0" encoding="UTF-8"?>
<svg id="Layer_1" xmlns="http://www.w3.org/2000/svg" version="1.1" viewBox="0 0 24 24">
  <!-- Generator: Adobe Illustrator 29.8.0, SVG Export Plug-In . SVG Version: 2.1.1 Build 160)  -->
  <path d="M19,23H5c-1.65,0-3-1.35-3-3v-7c0-1.65,1.35-3,3-3h14c1.65,0,3,1.35,3,3v7c0,1.65-1.35,3-3,3ZM5,12c-.55,0-1,.45-1,1v7c0,.55.45,1,1,1h14c.55,0,1-.45,1-1v-7c0-.55-.45-1-1-1H5Z"/>
  <path d="M7,12c-.55,0-1-.45-1-1v-4c0-1.6.62-3.11,1.75-4.24,1.13-1.13,2.64-1.76,4.24-1.76h0c2.84,0,5.31,2.02,5.88,4.81.11.54-.24,1.07-.78,1.18-.54.11-1.07-.24-1.18-.78-.38-1.86-2.03-3.2-3.92-3.2h0c-1.07,0-2.07.42-2.83,1.17-.75.76-1.17,1.76-1.17,2.83v4c0,.55-.45,1-1,1Z"/>
</svg>