<?xml version="1.0" encoding="UTF-8"?>
<svg id="Layer_1" xmlns="http://www.w3.org/2000/svg" version="1.1" viewBox="0 0 24 24">
  <!-- Generator: Adobe Illustrator 29.8.0, SVG Export Plug-In . SVG Version: 2.1.1 Build 160)  -->
  <path d="M16,22c-.55,0-1-.45-1-1v-2c0-1.65-1.35-3-3-3h-7c-1.65,0-3,1.35-3,3v2c0,.55-.45,1-1,1s-1-.45-1-1v-2c0-2.76,2.24-5,5-5h7c2.76,0,5,2.24,5,5v2c0,.55-.45,1-1,1Z"/>
  <path d="M8.5,12c-1.28,0-2.56-.49-3.54-1.46-1.95-1.95-1.95-5.12,0-7.07,1.95-1.95,5.12-1.95,7.07,0h0c1.95,1.95,1.95,5.12,0,7.07-.97.97-2.26,1.46-3.54,1.46ZM8.5,4c-.77,0-1.54.29-2.12.88-1.17,1.17-1.17,3.07,0,4.24,1.17,1.17,3.07,1.17,4.24,0,1.17-1.17,1.17-3.07,0-4.24-.58-.58-1.35-.88-2.12-.88Z"/>
  <path d="M20,15c-.55,0-1-.45-1-1v-6c0-.55.45-1,1-1s1,.45,1,1v6c0,.55-.45,1-1,1Z"/>
  <path d="M23,12h-6c-.55,0-1-.45-1-1s.45-1,1-1h6c.55,0,1,.45,1,1s-.45,1-1,1Z"/>
</svg>