<?xml version="1.0" encoding="UTF-8"?>
<svg version="1.1" viewBox="0 0 24 24" xmlns="http://www.w3.org/2000/svg" xmlns:xlink="http://www.w3.org/1999/xlink">
    <!--Generated by IJSVG (https://github.com/iconjar/IJSVG)-->
    <g stroke-linecap="round" stroke-width="2" stroke="#000" fill="none" stroke-linejoin="round">
        <path d="M17,21v-2v0c0,-2.20914 -1.79086,-4 -4,-4h-8l-1.74846e-07,3.55271e-15c-2.20914,9.65645e-08 -4,1.79086 -4,4c0,0 0,0 0,0v2"></path>
        <path d="M11.8284,4.17157c1.5621,1.5621 1.5621,4.09476 0,5.65685c-1.5621,1.5621 -4.09476,1.5621 -5.65685,0c-1.5621,-1.5621 -1.5621,-4.09476 -8.88178e-16,-5.65685c1.5621,-1.5621 4.09476,-1.5621 5.65685,-8.88178e-16"></path>
        <path d="M23,21v-2l1.59084e-07,0.000221498c-0.00125876,-1.82288 -1.23481,-3.41435 -2.99979,-3.87017"></path>
        <path d="M16,3.13l2.48985e-07,6.37503e-08c2.1401,0.547953 3.4308,2.72705 2.88284,4.86716c-0.362376,1.41531 -1.46754,2.52047 -2.88284,2.88284"></path>
    </g>
</svg>