<?xml version="1.0" encoding="UTF-8"?>
<svg id="Layer_1" xmlns="http://www.w3.org/2000/svg" version="1.1" viewBox="0 0 24 24">
  <!-- Generator: Adobe Illustrator 29.8.0, SVG Export Plug-In . SVG Version: 2.1.1 Build 160)  -->
  <path d="M20,22c-.55,0-1-.45-1-1v-2c0-1.65-1.35-3-3-3h-8c-1.65,0-3,1.35-3,3v2c0,.55-.45,1-1,1s-1-.45-1-1v-2c0-2.76,2.24-5,5-5h8c2.76,0,5,2.24,5,5v2c0,.55-.45,1-1,1Z"/>
  <path d="M12,12c-1.34,0-2.59-.52-3.54-1.46-1.95-1.95-1.95-5.12,0-7.07.94-.94,2.2-1.46,3.54-1.46s2.59.52,3.54,1.46h0c.94.94,1.46,2.2,1.46,3.54s-.52,2.59-1.46,3.54-2.2,1.46-3.54,1.46ZM12,4c-.8,0-1.55.31-2.12.88-1.17,1.17-1.17,3.07,0,4.24,1.13,1.13,3.11,1.13,4.24,0s1.17-3.07,0-4.24h0c-.57-.57-1.32-.88-2.12-.88Z"/>
</svg>