<?xml version="1.0" encoding="UTF-8"?>
<svg id="Layer_1" xmlns="http://www.w3.org/2000/svg" version="1.1" viewBox="0 0 24 24">
  <!-- Generator: Adobe Illustrator 29.8.0, SVG Export Plug-In . SVG Version: 2.1.1 Build 160)  -->
  <path d="M23.98,6.42c-.1,2.34-1.74,5.54-4.89,9.61-3.27,4.25-6.03,6.37-8.29,6.37-1.41,0-2.58-1.29-3.55-3.88l-1.92-7.11c-.72-2.58-1.49-3.88-2.31-3.88-.18,0-.81.38-1.88,1.13L0,7.2c1.17-1.03,2.34-2.08,3.5-3.13,1.58-1.37,2.76-2.09,3.55-2.16,1.87-.18,3.02,1.1,3.45,3.84.47,2.95.79,4.79.97,5.51.54,2.45,1.13,3.67,1.78,3.67.5,0,1.26-.8,2.27-2.39,1-1.59,1.54-2.8,1.61-3.63.14-1.37-.4-2.06-1.61-2.06-.57,0-1.17.12-1.78.39,1.19-3.87,3.43-5.76,6.76-5.64,2.47.06,3.63,1.66,3.49,4.8h-.01Z"/>
</svg>