<?xml version="1.0" encoding="UTF-8"?>
<svg id="Layer_1" xmlns="http://www.w3.org/2000/svg" version="1.1" viewBox="0 0 24 24">
  <!-- Generator: Adobe Illustrator 29.8.0, SVG Export Plug-In . SVG Version: 2.1.1 Build 160)  -->
  <path d="M23.5,6.19c-.28-1.04-1.08-1.85-2.12-2.14-1.87-.51-9.38-.51-9.38-.51,0,0-7.51,0-9.38.51-1.04.28-1.85,1.1-2.12,2.14-.5,1.88-.5,5.81-.5,5.81,0,0,0,3.93.5,5.81.28,1.04,1.08,1.85,2.12,2.14,1.87.5,9.38.5,9.38.5,0,0,7.51,0,9.38-.5,1.04-.28,1.85-1.1,2.12-2.14.5-1.88.5-5.81.5-5.81,0,0,0-3.93-.5-5.81ZM9.55,15.57v-7.14l6.27,3.57-6.27,3.57Z"/>
</svg>