<?xml version="1.0" encoding="UTF-8"?>
<svg id="Layer_1" xmlns="http://www.w3.org/2000/svg" version="1.1" viewBox="0 0 24 24">
  <!-- Generator: Adobe Illustrator 29.8.2, SVG Export Plug-In . SVG Version: 2.1.1 Build 3)  -->
  <path d="M11,20c-2.31,0-4.61-.88-6.36-2.63-3.51-3.51-3.51-9.22,0-12.73,1.7-1.7,3.96-2.64,6.36-2.64s4.66.94,6.36,2.64h0c3.51,3.51,3.51,9.22,0,12.73-1.75,1.75-4.06,2.63-6.36,2.63ZM11,4c-1.87,0-3.63.73-4.95,2.05-2.73,2.73-2.73,7.17,0,9.9,2.73,2.73,7.17,2.73,9.9,0,2.73-2.73,2.73-7.17,0-9.9-1.32-1.32-3.08-2.05-4.95-2.05Z"/>
  <path d="M21,22c-.26,0-.51-.1-.71-.29l-4.35-4.35c-.39-.39-.39-1.02,0-1.41s1.02-.39,1.41,0l4.35,4.35c.39.39.39,1.02,0,1.41-.2.2-.45.29-.71.29Z"/>
  <path d="M11,15c-.55,0-1-.45-1-1v-6c0-.55.45-1,1-1s1,.45,1,1v6c0,.55-.45,1-1,1Z"/>
  <path d="M14,12h-6c-.55,0-1-.45-1-1s.45-1,1-1h6c.55,0,1,.45,1,1s-.45,1-1,1Z"/>
</svg>