<?xml version="1.0" encoding="utf-8"?>
<!-- Generator: Adobe Illustrator 27.8.0, SVG Export Plug-In . SVG Version: 6.00 Build 0)  -->
<svg version="1.1" id="Raw" xmlns="http://www.w3.org/2000/svg" xmlns:xlink="http://www.w3.org/1999/xlink" x="0px" y="0px"
	 viewBox="0 0 256 256" style="enable-background:new 0 0 256 256;" xml:space="preserve">
<g>
	<path d="M229.7,218.3l-43.2-43.2c13.5-16,21.6-36.6,21.6-59.1c0-50.7-41.3-92-92-92c-50.7,0-92,41.3-92,92s41.3,92,92,92
		c22.5,0,43.1-8.1,59.1-21.6l43.2,43.2c1.6,1.6,3.6,2.3,5.7,2.3c2.1,0,4.1-0.8,5.7-2.3C232.8,226.5,232.8,221.5,229.7,218.3z
		 M116,192c-41.9,0-76-34.1-76-76c0-41.9,34.1-76,76-76s76,34.1,76,76C192,157.9,157.9,192,116,192z"/>
	<path d="M160,107h-35V72c0-5-4-9-9-9s-9,4-9,9v35H72c-5,0-9,4-9,9s4,9,9,9h35v35c0,5,4,9,9,9s9-4,9-9v-35h35c5,0,9-4,9-9
		S165,107,160,107z"/>
</g>
</svg>
