<?xml version="1.0" encoding="utf-8"?>
<!-- Generator: Adobe Illustrator 25.2.3, SVG Export Plug-In . SVG Version: 6.00 Build 0)  -->
<svg version="1.1" id="Layer_1" xmlns="http://www.w3.org/2000/svg" xmlns:xlink="http://www.w3.org/1999/xlink" x="0px" y="0px"
	 viewBox="0 0 369.8 66.8" style="enable-background:new 0 0 369.8 66.8;" xml:space="preserve">
<g>
	<path d="M35,49.1c0.1,0.5,0,0.8-0.5,1c-3.6,2.4-8.9,3.8-14.2,3.8C8.1,54,0,46,0,34.1c0-12,8-19.9,19.9-19.9
		c11.4,0,18.1,7.4,18.1,19.9c0,1-0.1,2.1-0.3,3.1c-0.1,0.5-0.4,0.8-1,0.8h-22c0,0,0,4.3,5.8,4.3c3.5,0,7.4-0.8,10.5-2.3
		c0.5-0.2,0.9,0.1,1,0.5L35,49.1z M24.4,30.7c0-3-1.9-5-4.6-5c-3.1,0-5.2,2-5.2,5H24.4z"/>
	<path d="M52.9,18.6c2.6-2.8,7-4.5,11.6-4.5c10.9,0,18.2,8,18.2,19.9s-7.3,19.9-18.2,19.9c-3.2,0-6.3-1-8.4-2.6v13.5
		c0,0.5-0.5,1-1,1H43c-0.5,0-1-0.5-1-1V16.2c0-0.6,0.5-1,1-1h7.8c0.5,0,0.8,0.4,1.1,1L52.9,18.6z M56.1,38.3c0.8,2.3,3,3.8,5.4,3.8
		c3.8,0,6.3-3.2,6.3-8c0-5-2.5-8.2-6.3-8.2c-2.4,0-4.6,1.5-5.4,3.8C56.1,29.7,56.1,38.3,56.1,38.3z"/>
	<path d="M99.6,3.1c0.6,0,1,0.5,1,1v47.8c0,0.5-0.5,1-1,1H87.5c-0.6,0-1-0.5-1-1V4.1c0-0.5,0.5-1,1-1H99.6L99.6,3.1z"/>
	<path d="M108.3,41c0.1-0.4,0.6-0.5,0.9-0.3c2.7,1.6,5.6,2.8,7.9,2.8c1.4,0.1,2.4-0.7,2.4-1.7c0-3.5-15.1-2.4-15.1-15.3
		c0-7.4,6.3-12.3,15.6-12.3c4.5,0,9.8,1.6,13.5,3.9c0.3,0.3,0.6,0.6,0.4,1l-3.5,8.1c-0.1,0.4-0.6,0.5-0.9,0.3
		c-2.7-1.7-5.6-2.8-7.9-2.8c-1.4-0.1-2.4,0.5-2.4,1.6c0,3.6,15.1,2.3,15.1,15.4c0,7.4-6.1,12.3-15.2,12.3c-4.5,0-10-1.6-13.9-3.9
		c-0.3-0.3-0.6-0.7-0.4-1.1L108.3,41z"/>
	<path d="M143.4,53.9c-3.6,0-6.1-2.3-6.1-5.6c0-3.4,2.4-5.8,6.1-5.8s6.1,2.3,6.1,5.8C149.4,51.6,147,53.9,143.4,53.9z"/>
	<path d="M192,3.1c0.6,0,1,0.5,1,1v47.8c0,0.5-0.5,1-1,1h-7.8c-0.5,0-0.8-0.4-1.1-1l-1-2.5c-2.6,2.8-7,4.5-11.6,4.5
		c-10.9,0-18.1-8-18.1-19.9s7.3-19.9,18.1-19.9c3.2,0,6.3,1,8.4,2.6V4.1c0-0.5,0.5-1,1-1H192L192,3.1z M178.9,29.8
		c-0.8-2.3-3-3.8-5.4-3.8c-3.8,0-6.3,3.2-6.3,8c0,5,2.5,8.2,6.3,8.2c2.4,0,4.6-1.5,5.4-3.8V29.8z"/>
	<path d="M231.9,49.1c0.1,0.5,0,0.8-0.5,1c-3.6,2.4-8.9,3.8-14.2,3.8c-12.2,0-20.3-8-20.3-19.9c0-12,8-19.9,19.9-19.9
		c11.4,0,18.1,7.4,18.1,19.9c0,1-0.1,2.1-0.3,3.1c-0.1,0.5-0.4,0.8-1,0.8h-22.1c0,0,0,4.3,5.8,4.3c3.5,0,7.4-0.8,10.5-2.3
		c0.5-0.2,0.9,0.1,1,0.5L231.9,49.1z M221.3,30.7c0-3-1.9-5-4.6-5c-3.1,0-5.2,2-5.2,5H221.3z"/>
	<path d="M241.6,41c0.1-0.4,0.6-0.5,0.9-0.3c2.7,1.6,5.6,2.8,7.9,2.8c1.4,0.1,2.4-0.7,2.4-1.7c0-3.5-15.1-2.4-15.1-15.3
		c0-7.4,6.3-12.3,15.6-12.3c4.5,0,9.8,1.6,13.5,3.9c0.3,0.3,0.5,0.6,0.4,1l-3.5,8.1c-0.1,0.4-0.5,0.5-0.9,0.3
		c-2.7-1.7-5.6-2.8-7.9-2.8c-1.4-0.1-2.4,0.5-2.4,1.6c0,3.6,15.1,2.3,15.1,15.4c0,7.4-6,12.3-15.2,12.3c-4.5,0-10-1.6-13.9-3.9
		c-0.3-0.3-0.6-0.7-0.4-1.1L241.6,41z"/>
	<path d="M286.1,7.1c0,4.1-3,6.8-7.6,6.8c-4.5,0-7.6-2.8-7.6-6.8c0-4.3,3-7.1,7.6-7.1C283.1,0,286.1,2.8,286.1,7.1z M284.7,15.1
		c0.5,0,1,0.5,1,1v35.8c0,0.5-0.5,1-1,1h-12.1c-0.5,0-1-0.5-1-1V16.1c0-0.5,0.5-1,1-1H284.7z"/>
	<path d="M314.5,48c-1.1,2.2-4.4,3.6-8.2,3.6c-10,0-16.7-7.2-16.7-18.1c0-12.2,6.2-19.4,16.7-19.4c5.3,0,9.5,1.4,11.3,3.9l1.2-1.9
		c0.4-0.6,1-1,1.6-1h7.3c0.6,0,1,0.4,1,1v33.3c0,10.4-9.4,17.3-21.1,17.3c-6.8,0-12.9-1.6-16.2-4.3c-0.4-0.3-0.5-0.8-0.4-1.2
		l3.5-8.5c0.2-0.5,0.6-0.7,1-0.4c3,2.4,7.5,3.8,12.1,3.8c4.3,0,6.9-2.3,6.9-6.2L314.5,48L314.5,48z M314.5,30.1c0,0-1-3.1-4.7-3.1
		c-3.4,0-5.4,2.4-5.4,6.5s2,6.6,5.4,6.6c3.7,0,4.7-3.1,4.7-3.1V30.1z"/>
	<path d="M344.3,18c2.2-2.4,6.9-3.9,11.1-3.9c9.4,0,14.4,4.3,14.4,15.1v22.7c0,0.5-0.5,1-1,1h-12.1c-0.5,0-1-0.5-1-1V31.4
		c0-2.8-1.2-4.3-3.4-4.3c-3.9,0-4.5,3.9-4.5,3.9v21c0,0.5-0.5,1-1,1h-12.1c-0.5,0-1-0.5-1-1V16.1c0-0.6,0.3-1,1-1h7.7
		c0.5,0,0.9,0.2,1.1,0.7L344.3,18z"/>
</g>
</svg>
