<?xml version="1.0" encoding="utf-8"?>
<!-- Generator: Adobe Illustrator 23.0.3, SVG Export Plug-In . SVG Version: 6.00 Build 0)  -->
<svg version="1.1" id="Layer_1" xmlns="http://www.w3.org/2000/svg" xmlns:xlink="http://www.w3.org/1999/xlink" x="0px" y="0px"
	 viewBox="0 0 369.81 66.76" style="enable-background:new 0 0 369.81 66.76;" xml:space="preserve">
<g>
	<path d="M35,49.09c0.14,0.48,0,0.76-0.48,1.03c-3.64,2.41-8.94,3.85-14.23,3.85C8.11,53.97,0,46,0,34.1
		c0-11.96,7.98-19.94,19.94-19.94c11.41,0,18.15,7.36,18.15,19.87c0,1.03-0.07,2.06-0.27,3.09c-0.07,0.55-0.41,0.83-1.03,0.83H14.71
		c0,0,0,4.33,5.78,4.33c3.51,0,7.43-0.83,10.52-2.27c0.48-0.21,0.89,0.07,1.03,0.55L35,49.09z M24.41,30.73
		c0-3.03-1.86-5.02-4.61-5.02c-3.09,0-5.16,1.99-5.16,5.02H24.41z"/>
	<path d="M52.87,18.63c2.61-2.75,7.01-4.54,11.62-4.54c10.86,0,18.15,7.98,18.15,19.94c0,11.89-7.29,19.87-18.15,19.87
		c-3.23,0-6.33-0.96-8.39-2.61v13.48c0,0.48-0.48,0.96-1.03,0.96h-12.1c-0.55,0-1.03-0.48-1.03-0.96V16.16
		c0-0.55,0.48-1.03,1.03-1.03h7.77c0.48,0,0.83,0.41,1.1,1.03L52.87,18.63z M56.1,38.3c0.82,2.27,3.02,3.78,5.43,3.78
		c3.78,0,6.33-3.16,6.33-7.98c0-4.95-2.54-8.25-6.33-8.25c-2.41,0-4.61,1.51-5.43,3.78V38.3z"/>
	<path d="M99.62,3.09c0.55,0,1.03,0.48,1.03,0.96v47.85c0,0.55-0.48,1.03-1.03,1.03h-12.1c-0.55,0-1.03-0.48-1.03-1.03V4.06
		c0-0.48,0.48-0.96,1.03-0.96H99.62z"/>
	<path d="M108.35,40.98c0.14-0.41,0.55-0.48,0.89-0.28c2.68,1.58,5.57,2.82,7.91,2.82c1.44,0.14,2.41-0.69,2.41-1.72
		c0-3.51-15.06-2.41-15.06-15.33c0-7.36,6.26-12.31,15.61-12.31c4.47,0,9.83,1.58,13.48,3.92c0.34,0.27,0.55,0.62,0.41,0.96
		l-3.51,8.11c-0.14,0.41-0.55,0.48-0.89,0.28c-2.68-1.72-5.57-2.82-7.91-2.82c-1.44-0.14-2.41,0.55-2.41,1.65
		c0,3.64,15.06,2.34,15.06,15.4c0,7.36-6.05,12.31-15.2,12.31c-4.47,0-10.04-1.58-13.89-3.92c-0.34-0.34-0.55-0.69-0.41-1.1
		L108.35,40.98z"/>
	<path d="M143.35,53.9c-3.64,0-6.05-2.27-6.05-5.64c0-3.44,2.41-5.78,6.05-5.78s6.05,2.34,6.05,5.78
		C149.4,51.64,146.99,53.9,143.35,53.9z"/>
	<path d="M192.02,3.09c0.55,0,1.03,0.48,1.03,0.96v47.85c0,0.55-0.48,1.03-1.03,1.03h-7.77c-0.48,0-0.83-0.41-1.1-1.03l-1.03-2.48
		c-2.61,2.75-7.01,4.54-11.62,4.54c-10.86,0-18.15-7.98-18.15-19.94c0-11.9,7.29-19.87,18.15-19.87c3.23,0,6.33,0.96,8.39,2.61V4.06
		c0-0.48,0.48-0.96,1.03-0.96H192.02z M178.89,29.77c-0.83-2.27-3.03-3.78-5.43-3.78c-3.78,0-6.33,3.16-6.33,7.98
		c0,4.95,2.54,8.25,6.33,8.25c2.41,0,4.61-1.51,5.43-3.78V29.77z"/>
	<path d="M231.9,49.09c0.14,0.48,0,0.76-0.48,1.03c-3.64,2.41-8.94,3.85-14.23,3.85c-12.17,0-20.28-7.98-20.28-19.87
		c0-11.96,7.98-19.94,19.94-19.94c11.41,0,18.15,7.36,18.15,19.87c0,1.03-0.07,2.06-0.27,3.09c-0.07,0.55-0.41,0.83-1.03,0.83
		h-22.07c0,0,0,4.33,5.78,4.33c3.51,0,7.43-0.83,10.52-2.27c0.48-0.21,0.89,0.07,1.03,0.55L231.9,49.09z M221.31,30.73
		c0-3.03-1.86-5.02-4.61-5.02c-3.09,0-5.16,1.99-5.16,5.02H221.31z"/>
	<path d="M241.59,40.98c0.14-0.41,0.55-0.48,0.89-0.28c2.68,1.58,5.57,2.82,7.91,2.82c1.44,0.14,2.41-0.69,2.41-1.72
		c0-3.51-15.06-2.41-15.06-15.33c0-7.36,6.26-12.31,15.61-12.31c4.47,0,9.83,1.58,13.48,3.92c0.34,0.27,0.55,0.62,0.41,0.96
		l-3.51,8.11c-0.14,0.41-0.55,0.48-0.89,0.28c-2.68-1.72-5.57-2.82-7.91-2.82c-1.44-0.14-2.41,0.55-2.41,1.65
		c0,3.64,15.06,2.34,15.06,15.4c0,7.36-6.05,12.31-15.2,12.31c-4.47,0-10.04-1.58-13.89-3.92c-0.34-0.34-0.55-0.69-0.41-1.1
		L241.59,40.98z"/>
	<path d="M286.14,7.08c0,4.06-3.03,6.81-7.56,6.81c-4.54,0-7.56-2.75-7.56-6.81c0-4.26,3.03-7.08,7.56-7.08
		C283.11,0,286.14,2.82,286.14,7.08z M284.7,15.13c0.55,0,1.03,0.48,1.03,0.96v35.82c0,0.55-0.48,1.03-1.03,1.03h-12.1
		c-0.55,0-1.03-0.48-1.03-1.03V16.09c0-0.48,0.48-0.96,1.03-0.96H284.7z"/>
	<path d="M314.53,47.99c-1.1,2.2-4.4,3.64-8.25,3.64c-10.04,0-16.71-7.22-16.71-18.08c0-12.17,6.19-19.39,16.71-19.39
		c5.29,0,9.49,1.44,11.28,3.92l1.24-1.93c0.41-0.62,1.03-1.03,1.58-1.03h7.29c0.62,0,1.03,0.41,1.03,1.03v33.28
		c0,10.38-9.42,17.33-21.11,17.33c-6.81,0-12.86-1.58-16.23-4.33c-0.41-0.34-0.55-0.83-0.41-1.17l3.51-8.53
		c0.21-0.48,0.62-0.69,1.03-0.41c2.96,2.41,7.49,3.85,12.1,3.85c4.33,0,6.94-2.27,6.94-6.19V47.99z M314.53,30.12
		c0,0-1.03-3.09-4.74-3.09c-3.44,0-5.43,2.41-5.43,6.53s1.99,6.6,5.43,6.6c3.71,0,4.74-3.09,4.74-3.09V30.12z"/>
	<path d="M344.3,18.01c2.2-2.41,6.88-3.85,11.07-3.85c9.35,0,14.44,4.33,14.44,15.06v22.69c0,0.55-0.48,1.03-1.03,1.03h-12.1
		c-0.55,0-1.03-0.48-0.96-1.03V31.35c0-2.75-1.24-4.33-3.37-4.33c-3.92,0-4.54,3.85-4.54,3.85v21.04c0,0.55-0.48,1.03-1.03,1.03
		h-12.1c-0.55,0-1.03-0.48-1.03-1.03V16.09c0-0.62,0.34-0.96,0.96-0.96h7.7c0.48,0,0.89,0.21,1.1,0.69L344.3,18.01z"/>
</g>
</svg>
