<svg xmlns="http://www.w3.org/2000/svg" viewBox="0 0 24 24"><path d="M3.53 22c-.53 0-1.03-.14-1.48-.4a3.016 3.016 0 01-1.1-4.1L9.43 3.35a2.997 2.997 0 015.13 0l8.47 14.15c.27.46.41.97.41 1.48 0 .8-.3 1.56-.86 2.13-.56.57-1.31.89-2.11.9H3.53zm7.62-17.62L2.68 18.51c-.27.46-.1 1.08.37 1.35.15.09.32.13.49.13h16.93c.26 0 .51-.11.69-.3a.99.99 0 00.29-.71c0-.17-.05-.34-.13-.49L12.85 4.37a.992.992 0 00-1.37-.33c-.14.08-.25.2-.34.34z"/><path d="M12 14c-.55 0-1-.45-1-1V9c0-.55.45-1 1-1s1 .45 1 1v4c0 .55-.45 1-1 1zm0 4c-.26 0-.52-.11-.71-.29-.04-.05-.09-.1-.12-.15a.757.757 0 01-.09-.18.636.636 0 01-.06-.18c-.01-.07-.02-.13-.02-.2 0-.13.03-.26.08-.38s.12-.23.21-.33c.28-.28.72-.36 1.09-.21.13.05.23.12.33.21.09.1.16.21.21.33.05.12.08.25.08.38 0 .07-.01.13-.02.2-.01.06-.03.12-.06.18-.02.06-.05.12-.09.18-.03.05-.08.1-.12.15-.09.09-.2.16-.33.21-.12.06-.25.08-.38.08z"/></svg>