<svg xmlns="http://www.w3.org/2000/svg" viewBox="0 0 256 256"><path d="M138.3 205.7c-3.1-3.1-3.1-8.2 0-11.3l58.3-58.3H40c-4.4 0-8-3.6-8-8s3.6-8 8-8h156.7l-58.3-58.3c-3.1-3.1-3.1-8.2 0-11.3 3.1-3.1 8.2-3.1 11.3 0l72 72s0 .1.1.1l.5.5c.1.1.2.2.2.3.1.1.2.2.2.3.1.1.1.2.2.4.1.1.1.2.2.3.1.1.1.2.2.4.1.1.1.2.2.3 0 .1.1.2.1.4 0 .1.1.3.1.4 0 .1.1.2.1.4 0 .1.1.3.1.4 0 .1 0 .3.1.4 0 .1 0 .2.1.4v1.6c0 .1 0 .2-.1.4 0 .1 0 .3-.1.4 0 .1-.1.3-.1.4 0 .1-.1.2-.1.4 0 .1-.1.3-.1.4 0 .1-.1.2-.1.4 0 .1-.1.2-.2.3-.1.1-.1.2-.2.4-.1.1-.1.2-.2.3-.1.1-.1.2-.2.4-.1.1-.2.2-.2.3-.1.1-.1.2-.2.3-.1.2-.3.3-.5.5l-.1.1-72 72c-3.2 2.7-8.2 2.7-11.4-.4z"/></svg>