<svg xmlns="http://www.w3.org/2000/svg" viewBox="0 0 24 24"><path d="M21 18H3c-.44 0-.83-.29-.96-.71s.04-.88.4-1.12c.01 0 2.55-1.9 2.55-8.17 0-3.86 3.14-7 7-7s7 3.14 7 7c0 6.27 2.54 8.16 2.57 8.18.35.25.51.71.38 1.12s-.51.7-.95.7zM5.14 16h13.72c-.9-1.48-1.86-4-1.86-8 0-2.76-2.24-5-5-5S7 5.24 7 8c0 4-.95 6.52-1.86 8zm6.85 7c-.51 0-1.03-.13-1.5-.4-.45-.26-.83-.64-1.09-1.09-.28-.48-.11-1.09.36-1.37.48-.28 1.09-.11 1.37.36.09.15.21.28.36.36.48.28 1.09.11 1.37-.36.28-.48.89-.64 1.37-.36.48.28.64.89.36 1.37-.56.96-1.56 1.49-2.6 1.49z"/></svg>