<svg xmlns="http://www.w3.org/2000/svg" viewBox="0 0 24 24"><path d="M12 23c-2.94 0-5.7-1.14-7.78-3.22-4.29-4.29-4.29-11.27 0-15.56 4.29-4.29 11.27-4.29 15.56 0 4.29 4.29 4.29 11.27 0 15.56A10.922 10.922 0 0112 23zm0-20c-2.3 0-4.61.88-6.36 2.63-3.51 3.51-3.51 9.22 0 12.73C7.34 20.06 9.6 21 12 21s4.66-.94 6.36-2.64c3.51-3.51 3.51-9.22 0-12.73A8.98 8.98 0 0012 3z"/><path d="M16 15c-.15 0-.3-.03-.45-.11l-4-2A1 1 0 0111 12V6c0-.55.45-1 1-1s1 .45 1 1v5.38l3.45 1.72c.49.25.69.85.45 1.34-.18.35-.53.55-.9.55z"/></svg>