<svg xmlns="http://www.w3.org/2000/svg" viewBox="0 0 256 256"><path d="M216 88h-64V40c0-8.8-7.2-16-16-16H40c-8.8 0-16 7.2-16 16v184c0 4.4 3.6 8 8 8s8-3.6 8-8V40h96v184c0 4.4 3.6 8 8 8s8-3.6 8-8V104h64v120c0 4.4 3.6 8 8 8s8-3.6 8-8V104c0-8.8-7.2-16-16-16z"/><path d="M64 80h32c4.4 0 8-3.6 8-8s-3.6-8-8-8H64c-4.4 0-8 3.6-8 8s3.6 8 8 8zm48 64H80c-4.4 0-8 3.6-8 8s3.6 8 8 8h32c4.4 0 8-3.6 8-8s-3.6-8-8-8zm-16 40H64c-4.4 0-8 3.6-8 8s3.6 8 8 8h32c4.4 0 8-3.6 8-8s-3.6-8-8-8zm96-16h-16c-4.4 0-8 3.6-8 8s3.6 8 8 8h16c4.4 0 8-3.6 8-8s-3.6-8-8-8zm0-40h-16c-4.4 0-8 3.6-8 8s3.6 8 8 8h16c4.4 0 8-3.6 8-8s-3.6-8-8-8z"/></svg>