<svg xmlns="http://www.w3.org/2000/svg" viewBox="0 0 24 24"><path d="M20.32 4.37c-1.56-.71-3.2-1.22-4.89-1.52-.03 0-.06 0-.08.04-.21.38-.44.86-.61 1.25-1.84-.28-3.68-.28-5.49 0-.16-.39-.41-.87-.62-1.25a.09.09 0 00-.08-.04c-1.69.29-3.33.8-4.89 1.51-.01 0-.02.02-.03.03C.53 9.05-.32 13.58.1 18.06c0 .02.01.04.03.06 2.05 1.51 4.04 2.42 5.99 3.03.03 0 .06 0 .08-.03.46-.63.87-1.3 1.23-1.99.02-.04 0-.08-.03-.1-.65-.25-1.27-.55-1.87-.89-.04-.02-.05-.07-.03-.11 0 0 .01-.02.02-.02.13-.09.25-.19.37-.29.02-.02.05-.02.08-.01 3.93 1.79 8.18 1.79 12.06 0 .03-.01.06 0 .08 0 .12.1.25.2.37.29.03.03.04.07.02.11l-.02.02c-.6.35-1.22.65-1.87.89-.04.02-.06.06-.04.1.36.7.77 1.36 1.23 1.99.02.03.05.04.08.03a19.83 19.83 0 006-3.03c.02-.01.03-.03.03-.06.5-5.18-.84-9.67-3.55-13.66 0-.01-.02-.02-.03-.03zM8.02 15.33c-1.18 0-2.16-1.09-2.16-2.42s.96-2.42 2.16-2.42 2.18 1.1 2.16 2.42c0 1.33-.96 2.42-2.16 2.42zm7.97 0c-1.18 0-2.16-1.09-2.16-2.42s.96-2.42 2.16-2.42 2.18 1.1 2.16 2.42c0 1.33-.95 2.42-2.16 2.42z"/></svg>