<svg xmlns="http://www.w3.org/2000/svg" viewBox="0 0 256 256"><path d="M232 95.9c0-.6-.1-1.2-.2-1.8 0-.1 0-.1-.1-.2-.1-.2-.1-.4-.2-.7 0-.1-.1-.2-.1-.2l-.3-.6c0-.1-.1-.2-.1-.2-.1-.2-.2-.4-.4-.6 0-.1-.1-.1-.1-.2-.2-.2-.4-.5-.6-.7l-.1-.1-.5-.5-.2-.2c-.2-.2-.4-.3-.6-.4l-.1-.1-96-64a8.01 8.01 0 00-8.9 0l-96 64-.1.1c-.2.1-.4.3-.6.4l-.2.2-.5.5-.1.1c-.2.2-.4.4-.6.7l-.1.1c-.1.2-.3.4-.4.6 0 .1-.1.2-.1.2l-.3.6c0 .1-.1.2-.1.2-.1.2-.2.4-.2.7 0 .1 0 .1-.1.2-.1.6-.2 1.2-.2 1.8v104.1c0 8.8 7.2 16 16 16h176c8.8 0 16-7.2 16-16l.1-104c0 .1 0 0 0 0zM40 111.5L96.7 152 40 192v-80.5zm73.1 48.5h29.8l56.6 40h-143l56.6-40zm46.2-8l56.7-40.4V192l-56.7-40zM128 41.6l81.9 54.6-67 47.8h-29.8l-67-47.8L128 41.6z"/></svg>