<svg xmlns="http://www.w3.org/2000/svg" viewBox="0 0 24 24"><path d="M12 22.23c-.27 0-.52-.11-.71-.29L2.45 13.1a6.525 6.525 0 010-9.2c2.53-2.53 6.66-2.53 9.19 0l.35.35.35-.35.02-.02A6.444 6.444 0 0116.94 2c1.74 0 3.37.68 4.6 1.9a6.45 6.45 0 011.9 4.6c0 1.74-.68 3.37-1.91 4.6l-8.84 8.84a.99.99 0 01-.71.29zM7.05 4c-1.15 0-2.31.44-3.18 1.32S2.55 7.3 2.55 8.5s.47 2.33 1.32 3.18L12 19.81l8.13-8.13c.85-.85 1.32-1.98 1.32-3.18 0-1.2-.47-2.33-1.32-3.18a4.49 4.49 0 00-6.36 0l-.01.01-1.05 1.05c-.38.38-1.04.38-1.41 0l-1.06-1.06A4.483 4.483 0 007.06 4z"/></svg>