<svg xmlns="http://www.w3.org/2000/svg" viewBox="0 0 24 24"><path d="M12 23c-2.94 0-5.7-1.14-7.78-3.22-4.29-4.29-4.29-11.27 0-15.56 4.29-4.29 11.27-4.29 15.56 0 4.29 4.29 4.29 11.27 0 15.56A10.922 10.922 0 0112 23zm0-20c-2.3 0-4.61.88-6.36 2.63-3.51 3.51-3.51 9.22 0 12.73C7.34 20.06 9.6 21 12 21s4.66-.94 6.36-2.64c3.51-3.51 3.51-9.22 0-12.73A8.98 8.98 0 0012 3z"/><path d="M11.92 14c-.42 0-.81-.26-.95-.68-.17-.52.11-1.09.63-1.27.6-.2 2.32-1.02 2.32-2.05 0-.85-.54-1.61-1.34-1.89-.5-.18-1.05-.15-1.53.08-.48.23-.84.64-1.02 1.14-.18.52-.75.8-1.28.61-.52-.18-.79-.75-.61-1.28a3.953 3.953 0 012.04-2.28 4.01 4.01 0 013.06-.17c1.6.56 2.68 2.08 2.67 3.78 0 2.64-3.31 3.82-3.68 3.95a.86.86 0 01-.32.05zm.08 4c-.26 0-.52-.11-.71-.29-.04-.05-.09-.1-.12-.15a.757.757 0 01-.09-.18.636.636 0 01-.06-.18c-.01-.07-.02-.13-.02-.2 0-.13.03-.26.08-.38s.12-.23.21-.33c.28-.28.72-.36 1.09-.21.13.05.23.12.33.21.09.1.16.21.21.33.05.12.08.25.08.38 0 .07-.01.13-.02.2-.01.06-.03.12-.06.18-.02.06-.05.12-.09.18-.03.05-.08.1-.12.15-.09.09-.2.16-.33.21-.12.06-.25.08-.38.08z"/></svg>