<?xml version="1.0" encoding="UTF-8"?><!DOCTYPE svg PUBLIC "-//W3C//DTD SVG 1.1//EN" "http://www.w3.org/Graphics/SVG/1.1/DTD/svg11.dtd"><svg xmlns="http://www.w3.org/2000/svg" xmlns:xlink="http://www.w3.org/1999/xlink"><symbol id="icon-alert" viewBox="0 0 24 24"><path d="M10.29 3.86L1.82 18h0a2 2 0 001.71 3h16.94a2 2 0 001.71-3L13.71 3.86h0a2 2 0 00-3.42 0zM12 9v4m0 4v0" stroke-linecap="round" stroke-width="2" stroke="#000" fill="none" stroke-linejoin="round"/></symbol><symbol id="icon-arrow-down" viewBox="0 0 24 24"><path d="M12 5v14m7-7l-7 7-7-7" stroke-linecap="round" stroke-width="2" stroke="#000" fill="none" stroke-linejoin="round"/></symbol><symbol id="icon-arrow-left" viewBox="0 0 24 24"><path d="M19 12H5m7 7l-7-7 7-7" stroke-linecap="round" stroke-width="2" stroke="#000" fill="none" stroke-linejoin="round"/></symbol><symbol id="icon-arrow-right" viewBox="0 0 24 24"><path d="M5 12h14m-7-7l7 7-7 7" stroke-linecap="round" stroke-width="2" stroke="#000" fill="none" stroke-linejoin="round"/></symbol><symbol id="icon-arrow-up" viewBox="0 0 24 24"><path d="M12 19V5m-7 7l7-7 7 7" stroke-linecap="round" stroke-width="2" stroke="#000" fill="none" stroke-linejoin="round"/></symbol><symbol id="icon-bell-off" viewBox="0 0 24 24"><path d="M13.73 21h0a2 2 0 01-3.46 0m8.36-8h0A17.89 17.89 0 0118 8M6.26 6.26h0A5.86 5.86 0 006 8c0 7-3 9-3 9h14m1-9h0a6 6 0 00-9.33-5M1 1l22 22" stroke-linecap="round" stroke-width="2" stroke="#000" fill="none" stroke-linejoin="round"/></symbol><symbol id="icon-bell" viewBox="0 0 24 24"><path d="M18 8v0A6 6 0 106 8c0 7-3 9-3 9h18s-3-2-3-9m-4.27 13h0a2 2 0 01-3.46 0" stroke-linecap="round" stroke-width="2" stroke="#000" fill="none" stroke-linejoin="round"/></symbol><symbol id="icon-bookmark" viewBox="0 0 24 24"><path d="M19 21l-7-5-7 5V5h0a2 2 0 012-2h10a2 2 0 012 2z" stroke-linecap="round" stroke-width="2" stroke="#000" fill="none" stroke-linejoin="round"/></symbol><symbol id="icon-calendar" viewBox="0 0 24 24"><path d="M5 22a2 2 0 01-2-2V6a2 2 0 012-2h14a2 2 0 012 2v14a2 2 0 01-2 2zM16 2v4M8 2v4m-5 4h18" stroke-linecap="round" stroke-width="2" stroke="#000" fill="none" stroke-linejoin="round"/></symbol><symbol id="icon-cart" viewBox="0 0 192 192"><path d="M172.4 113.1l9.8-54c.1-.7.2-1.4.2-2.1 0-6.6-5.4-12-12-12H44.6l-3.7-20.1c-1-5.7-6-9.9-11.8-9.9H15.6c-3.3 0-6 2.7-6 6s2.7 6 6 6h13.5l20 110.1c.2 1 .5 1.9.9 2.8-4.6 3.9-7.5 9.6-7.5 16 0 11.6 9.4 21 21 21s21-9.4 21-21c0-3.2-.8-6.3-2.1-9h52.1c-1.3 2.7-2.1 5.8-2.1 9 0 11.6 9.4 21 21 21s21-9.4 21-21c0-11.4-9.1-20.6-20.4-21H61l-2.2-12h101.8c5.8.1 10.8-4 11.8-9.8zM72.6 156c0 5-4 9-9 9s-9-4-9-9 4-9 9-9 9 4 9 9zm90 0c0 5-4 9-9 9s-9-4-9-9 4-9 9-9 9 4 9 9zM46.8 57h123.6l-9.8 54h-104l-9.8-54z"/></symbol><symbol id="icon-check" viewBox="0 0 24 24"><path d="M20 6L9 17l-5-5" stroke-linecap="round" stroke-width="2" stroke="#000" fill="none" stroke-linejoin="round"/></symbol><symbol id="icon-chevron-down" viewBox="0 0 24 24"><path d="M6 9l6 6 6-6" stroke-linecap="round" stroke-width="2" stroke="#000" fill="none" stroke-linejoin="round"/></symbol><symbol id="icon-chevron-left" viewBox="0 0 24 24"><path d="M15 18l-6-6 6-6" stroke-linecap="round" stroke-width="2" stroke="#000" fill="none" stroke-linejoin="round"/></symbol><symbol id="icon-chevron-right" viewBox="0 0 24 24"><path d="M9 18l6-6-6-6" stroke-linecap="round" stroke-width="2" stroke="#000" fill="none" stroke-linejoin="round"/></symbol><symbol id="icon-chevron-up" viewBox="0 0 24 24"><path d="M18 15l-6-6-6 6" stroke-linecap="round" stroke-width="2" stroke="#000" fill="none" stroke-linejoin="round"/></symbol><symbol id="icon-chevrons-left" viewBox="0 0 24 24"><path d="M11 17l-5-5 5-5m7 10l-5-5 5-5" stroke-linecap="round" stroke-width="2" stroke="#000" fill="none" stroke-linejoin="round"/></symbol><symbol id="icon-chevrons-right" viewBox="0 0 24 24"><path d="M13 17l5-5-5-5M6 17l5-5-5-5" stroke-linecap="round" stroke-width="2" stroke="#000" fill="none" stroke-linejoin="round"/></symbol><symbol id="icon-clock" viewBox="0 0 24 24"><g stroke-linecap="round" stroke-width="2" stroke="#000" fill="none" stroke-linejoin="round"><path d="M19.071 4.929c3.905 3.905 3.905 10.237 0 14.142-3.905 3.905-10.237 3.905-14.142 0-3.905-3.905-3.905-10.237 0-14.142 3.905-3.905 10.237-3.905 14.142 0"/><path d="M12 6v6l4 2"/></g></symbol><symbol id="icon-close" viewBox="0 0 24 24"><path d="M18 6L6 18M6 6l12 12" stroke-linecap="round" stroke-width="2" stroke="#000" fill="none" stroke-linejoin="round"/></symbol><symbol id="icon-discord" viewBox="0 0 24 24"><path d="M20.317 4.37a19.791 19.791 0 00-4.885-1.515.074.074 0 00-.079.037c-.21.375-.444.864-.608 1.25a18.27 18.27 0 00-5.487 0 12.64 12.64 0 00-.617-1.25.077.077 0 00-.079-.037A19.736 19.736 0 003.677 4.37a.07.07 0 00-.032.027C.533 9.046-.32 13.58.099 18.057a.082.082 0 00.031.057 19.9 19.9 0 005.993 3.03.078.078 0 00.084-.028 14.09 14.09 0 001.226-1.994.076.076 0 00-.041-.106 13.107 13.107 0 01-1.872-.892.077.077 0 01-.008-.128 10.2 10.2 0 00.372-.292.074.074 0 01.077-.01c3.928 1.793 8.18 1.793 12.062 0a.074.074 0 01.078.01c.12.098.246.198.373.292a.077.077 0 01-.006.127 12.299 12.299 0 01-1.873.892.077.077 0 00-.041.107c.36.698.772 1.362 1.225 1.993a.076.076 0 00.084.028 19.839 19.839 0 006.002-3.03.077.077 0 00.032-.054c.5-5.177-.838-9.674-3.549-13.66a.061.061 0 00-.031-.03zM8.02 15.33c-1.183 0-2.157-1.085-2.157-2.419 0-1.333.956-2.419 2.157-2.419 1.21 0 2.176 1.096 2.157 2.42 0 1.333-.956 2.418-2.157 2.418zm7.975 0c-1.183 0-2.157-1.085-2.157-2.419 0-1.333.955-2.419 2.157-2.419 1.21 0 2.176 1.096 2.157 2.42 0 1.333-.946 2.418-2.157 2.418z"/></symbol><symbol id="icon-ellipses" viewBox="0 0 256 256"><circle cx="64" cy="128" r="16"/><circle cx="128" cy="128" r="16"/><circle cx="192" cy="128" r="16"/></symbol><symbol id="icon-email" viewBox="0 0 24 24"><g stroke-linecap="round" stroke-width="2" stroke="#000" fill="none" stroke-linejoin="round"><path d="M4 4h16c1.1 0 2 .9 2 2v12c0 1.1-.9 2-2 2H4c-1.1 0-2-.9-2-2V6c0-1.1.9-2 2-2z"/><path d="M22 6l-10 7L2 6"/></g></symbol><symbol id="icon-facebook" viewBox="0 0 24 24"><path d="M9.101 23.691v-7.98H6.627v-3.667h2.474v-1.58c0-4.085 1.848-5.978 5.858-5.978.401 0 .955.042 1.468.103a8.68 8.68 0 011.141.195v3.325a8.623 8.623 0 00-.653-.036 26.805 26.805 0 00-.733-.009c-.707 0-1.259.096-1.675.309a1.686 1.686 0 00-.679.622c-.258.42-.374.995-.374 1.752v1.297h3.919l-.386 2.103-.287 1.564h-3.246v8.245C19.396 23.238 24 18.179 24 12.044c0-6.627-5.373-12-12-12s-12 5.373-12 12c0 5.628 3.874 10.35 9.101 11.647z"/></symbol><symbol id="icon-github" viewBox="0 0 24 24"><path d="M12 .297c-6.63 0-12 5.373-12 12 0 5.303 3.438 9.8 8.205 11.385.6.113.82-.258.82-.577 0-.285-.01-1.04-.015-2.04-3.338.724-4.042-1.61-4.042-1.61C4.422 18.07 3.633 17.7 3.633 17.7c-1.087-.744.084-.729.084-.729 1.205.084 1.838 1.236 1.838 1.236 1.07 1.835 2.809 1.305 3.495.998.108-.776.417-1.305.76-1.605-2.665-.3-5.466-1.332-5.466-5.93 0-1.31.465-2.38 1.235-3.22-.135-.303-.54-1.523.105-3.176 0 0 1.005-.322 3.3 1.23.96-.267 1.98-.399 3-.405 1.02.006 2.04.138 3 .405 2.28-1.552 3.285-1.23 3.285-1.23.645 1.653.24 2.873.12 3.176.765.84 1.23 1.91 1.23 3.22 0 4.61-2.805 5.625-5.475 5.92.42.36.81 1.096.81 2.22 0 1.606-.015 2.896-.015 3.286 0 .315.21.69.825.57C20.565 22.092 24 17.592 24 12.297c0-6.627-5.373-12-12-12"/></symbol><symbol id="icon-heart" viewBox="0 0 24 24"><path d="M20.84 4.61h0a5.5 5.5 0 00-7.78 0L12 5.67l-1.06-1.06h0a5.501 5.501 0 10-7.78 7.78s0 0 0 0l1.06 1.06L12 21.23l7.78-7.78 1.06-1.06h0a5.5 5.5 0 000-7.78z" stroke-linecap="round" stroke-width="2" stroke="#000" fill="none" stroke-linejoin="round"/></symbol><symbol id="icon-help-circle" viewBox="0 0 24 24"><g stroke-linecap="round" stroke-width="2" stroke="#000" fill="none" stroke-linejoin="round"><path d="M19.071 4.929c3.905 3.905 3.905 10.237 0 14.142-3.905 3.905-10.237 3.905-14.142 0-3.905-3.905-3.905-10.237 0-14.142 3.905-3.905 10.237-3.905 14.142 0"/><path d="M9.09 9h0a3 3 0 015.83 1c0 2-3 3-3 3m.08 4v0"/></g></symbol><symbol id="icon-info" viewBox="0 0 24 24"><path d="M19.071 4.929c3.905 3.905 3.905 10.237 0 14.142-3.905 3.905-10.237 3.905-14.142 0-3.905-3.905-3.905-10.237 0-14.142 3.905-3.905 10.237-3.905 14.142 0M12 16v-4m0-4v0" stroke-linecap="round" stroke-width="2" stroke="#000" fill="none" stroke-linejoin="round"/></symbol><symbol id="icon-instagram" viewBox="0 0 24 24"><path d="M7.03.084c-1.277.06-2.149.264-2.91.563a5.874 5.874 0 00-2.124 1.388 5.878 5.878 0 00-1.38 2.127C.321 4.926.12 5.8.064 7.076.008 8.354-.005 8.764.001 12.023c.007 3.259.021 3.667.083 4.947.061 1.277.264 2.149.563 2.911.308.789.72 1.457 1.388 2.123a5.872 5.872 0 002.129 1.38c.763.295 1.636.496 2.913.552 1.278.056 1.689.069 4.947.063 3.257-.007 3.668-.021 4.947-.082 1.28-.06 2.147-.265 2.91-.563a5.881 5.881 0 002.123-1.388 5.881 5.881 0 001.38-2.129c.295-.763.496-1.636.551-2.912.056-1.28.07-1.69.063-4.948-.006-3.258-.02-3.667-.081-4.947-.06-1.28-.264-2.148-.564-2.911a5.892 5.892 0 00-1.387-2.123 5.857 5.857 0 00-2.128-1.38c-.764-.294-1.636-.496-2.914-.55C15.647.009 15.236-.006 11.977 0 8.718.008 8.31.021 7.03.084m.14 21.693c-1.17-.05-1.805-.245-2.228-.408a3.736 3.736 0 01-1.382-.895 3.695 3.695 0 01-.9-1.378c-.165-.423-.363-1.058-.417-2.228-.06-1.264-.072-1.644-.08-4.848-.006-3.204.006-3.583.061-4.848.05-1.169.246-1.805.408-2.228.216-.561.477-.96.895-1.382a3.705 3.705 0 011.379-.9c.423-.165 1.057-.361 2.227-.417 1.265-.06 1.644-.072 4.848-.08 3.203-.006 3.583.006 4.85.062 1.168.05 1.804.244 2.227.408.56.216.96.475 1.382.895.421.42.681.817.9 1.378.165.422.362 1.056.417 2.227.06 1.265.074 1.645.08 4.848.005 3.203-.006 3.583-.061 4.848-.051 1.17-.245 1.805-.408 2.23-.216.56-.477.96-.896 1.38a3.705 3.705 0 01-1.378.9c-.422.165-1.058.362-2.226.418-1.266.06-1.645.072-4.85.079-3.204.007-3.582-.006-4.848-.06m9.783-16.192a1.44 1.44 0 101.437-1.442 1.44 1.44 0 00-1.437 1.442M5.839 12.012a6.161 6.161 0 1012.323-.024 6.162 6.162 0 00-12.323.024M8 12.008A4 4 0 1112.008 16 4 4 0 018 12.008"/></symbol><symbol id="icon-kebab" viewBox="0 0 24 24"><path d="M12.707 11.293a1 1 0 11-1.414 1.414 1 1 0 011.414-1.414m0-7a1 1 0 11-1.414 1.414 1 1 0 011.414-1.414m0 14a1 1 0 11-1.414 1.414 1 1 0 011.414-1.414" stroke-linecap="round" stroke-width="2" stroke="#000" fill="none" stroke-linejoin="round"/></symbol><symbol id="icon-link" viewBox="0 0 24 24"><g stroke-linecap="round" stroke-width="2" stroke="#000" fill="none" stroke-linejoin="round"><path d="M10 13h0a5 5 0 007.54.54l3-3h0a5 5 0 00-7.07-7.07l-1.72 1.71"/><path d="M14 11h0a5 5 0 00-7.54-.54l-3 3h0a5 5 0 007.07 7.07l1.71-1.71"/></g></symbol><symbol id="icon-linkedin" viewBox="0 0 24 24"><path d="M20.447 20.452h-3.554v-5.569c0-1.328-.027-3.037-1.852-3.037-1.853 0-2.136 1.445-2.136 2.939v5.667H9.351V9h3.414v1.561h.046c.477-.9 1.637-1.85 3.37-1.85 3.601 0 4.267 2.37 4.267 5.455v6.286zM5.337 7.433a2.062 2.062 0 01-2.063-2.065 2.064 2.064 0 112.063 2.065zm1.782 13.019H3.555V9h3.564v11.452zM22.225 0H1.771C.792 0 0 .774 0 1.729v20.542C0 23.227.792 24 1.771 24h20.451C23.2 24 24 23.227 24 22.271V1.729C24 .774 23.2 0 22.222 0h.003z"/></symbol><symbol id="icon-loader" viewBox="0 0 24 24"><path d="M12 2v4m0 12v4M4.93 4.93l2.83 2.83m8.48 8.48l2.83 2.83M2 12h4m12 0h4M4.93 19.07l2.83-2.83m8.48-8.48l2.83-2.83" stroke-linecap="round" stroke-width="2" stroke="#000" fill="none" stroke-linejoin="round"/></symbol><symbol id="icon-location" viewBox="0 0 24 24"><g stroke-linecap="round" stroke-width="2" stroke="#000" fill="none" stroke-linejoin="round"><path d="M21 10c0 7-9 13-9 13s-9-6-9-13h0a9 9 0 0118 0s0 0 0 0z"/><path d="M14.121 7.879A3 3 0 119.88 12.12a3 3 0 014.24-4.24"/></g></symbol><symbol id="icon-lock" viewBox="0 0 24 24"><path d="M5 22a2 2 0 01-2-2v-7a2 2 0 012-2h14a2 2 0 012 2v7a2 2 0 01-2 2zm2-11V7h0a5 5 0 0110 0s0 0 0 0v4" stroke-linecap="round" stroke-width="2" stroke="#000" fill="none" stroke-linejoin="round"/></symbol><symbol id="icon-mastodon" viewBox="0 0 24 24"><path d="M23.268 5.313c-.35-2.578-2.617-4.61-5.304-5.004C17.51.242 15.792 0 11.813 0h-.03c-3.98 0-4.835.242-5.288.309C3.882.692 1.496 2.518.917 5.127.64 6.412.61 7.837.661 9.143c.074 1.874.088 3.745.26 5.611.118 1.24.325 2.47.62 3.68.55 2.237 2.777 4.098 4.96 4.857 2.336.792 4.849.923 7.256.38.265-.061.527-.132.786-.213.585-.184 1.27-.39 1.774-.753a.057.057 0 00.023-.043v-1.809a.052.052 0 00-.02-.041.053.053 0 00-.046-.01 20.282 20.282 0 01-4.709.545c-2.73 0-3.463-1.284-3.674-1.818a5.593 5.593 0 01-.319-1.433.053.053 0 01.066-.054c1.517.363 3.072.546 4.632.546.376 0 .75 0 1.125-.01 1.57-.044 3.224-.124 4.768-.422.038-.008.077-.015.11-.024 2.435-.464 4.753-1.92 4.989-5.604.008-.145.03-1.52.03-1.67.002-.512.167-3.63-.024-5.545zm-3.748 9.195h-2.561V8.29c0-1.309-.55-1.976-1.67-1.976-1.23 0-1.846.79-1.846 2.35v3.403h-2.546V8.663c0-1.56-.617-2.35-1.848-2.35-1.112 0-1.668.668-1.67 1.977v6.218H4.822V8.102c0-1.31.337-2.35 1.011-3.12.696-.77 1.608-1.164 2.74-1.164 1.311 0 2.302.5 2.962 1.498l.638 1.06.638-1.06c.66-.999 1.65-1.498 2.96-1.498 1.13 0 2.043.395 2.74 1.164.675.77 1.012 1.81 1.012 3.12z"/></symbol><symbol id="icon-maximise" viewBox="0 0 24 24"><path d="M15 3h6v6M9 21H3v-6M21 3l-7 7M3 21l7-7" stroke-linecap="round" stroke-width="2" stroke="#000" fill="none" stroke-linejoin="round"/></symbol><symbol id="icon-meatball" viewBox="0 0 24 24"><path d="M12.707 11.293a1 1 0 11-1.414 1.414 1 1 0 011.414-1.414m7 0a1 1 0 11-1.414 1.414 1 1 0 011.414-1.414m-14 0a1 1 0 11-1.414 1.414 1 1 0 011.414-1.414" stroke-linecap="round" stroke-width="2" stroke="#000" fill="none" stroke-linejoin="round"/></symbol><symbol id="icon-medium" viewBox="0 0 24 24"><path d="M4.21 0A4.201 4.201 0 000 4.21v15.58A4.201 4.201 0 004.21 24h15.58A4.201 4.201 0 0024 19.79v-1.093a4.47 4.47 0 01-.422.02c-2.577 0-4.027-2.146-4.09-4.832a7.592 7.592 0 01.022-.708c.093-1.186.475-2.241 1.105-3.022a3.885 3.885 0 011.395-1.1c.468-.237 1.127-.367 1.664-.367h.023c.101 0 .202.004.303.01V4.211A4.201 4.201 0 0019.79 0zm.198 5.583h4.165l3.588 8.435 3.59-8.435h3.864v.146l-.019.004c-.705.16-1.063.397-1.063 1.254h-.003l.003 10.274c.06.676.424.885 1.063 1.03l.02.004v.145h-4.923v-.145l.019-.005c.639-.144.994-.353 1.054-1.03V7.267l-4.745 11.15h-.261L6.15 7.569v9.445c0 .857.358 1.094 1.063 1.253l.02.004v.147H4.405v-.147l.019-.004c.705-.16 1.065-.397 1.065-1.253V6.987c0-.857-.358-1.094-1.064-1.254l-.018-.004zm19.25 3.668c-1.086.023-1.733 1.323-1.813 3.124H24V9.298a1.378 1.378 0 00-.342-.047zm-1.862 3.632c-.1 1.756.86 3.239 2.204 3.634v-3.634z"/></symbol><symbol id="icon-minimise" viewBox="0 0 24 24"><path d="M4 14h6v6m10-10h-6V4m0 6l7-7M3 21l7-7" stroke-linecap="round" stroke-width="2" stroke="#000" fill="none" stroke-linejoin="round"/></symbol><symbol id="icon-pause" viewBox="0 0 24 24"><path d="M6 4h4v16H6zm8 0h4v16h-4z" stroke-linecap="round" stroke-width="2" stroke="#000" fill="none" stroke-linejoin="round"/></symbol><symbol id="icon-phone" viewBox="0 0 24 24"><path d="M22 16.92v3h0a2 2 0 01-2.18 2h0a19.79 19.79 0 01-8.63-3.07h0a19.5 19.5 0 01-6-6h0a19.79 19.79 0 01-3.07-8.67h0A2 2 0 014.11 2h3a2 2 0 012 1.72h0c.127.96.361 1.903.7 2.81h0a2 2 0 01-.45 2.11L8.09 9.91h0a16 16 0 006 6l1.27-1.27h0a2 2 0 012.11-.45h0c.907.339 1.85.573 2.81.7h0A2 2 0 0122 16.92z" stroke-linecap="round" stroke-width="2" stroke="#000" fill="none" stroke-linejoin="round"/></symbol><symbol id="icon-pinterest" viewBox="0 0 24 24"><path d="M12.017 0C5.396 0 .029 5.367.029 11.987c0 5.079 3.158 9.417 7.618 11.162-.105-.949-.199-2.403.041-3.439.219-.937 1.406-5.957 1.406-5.957s-.359-.72-.359-1.781c0-1.663.967-2.911 2.168-2.911 1.024 0 1.518.769 1.518 1.688 0 1.029-.653 2.567-.992 3.992-.285 1.193.6 2.165 1.775 2.165 2.128 0 3.768-2.245 3.768-5.487 0-2.861-2.063-4.869-5.008-4.869-3.41 0-5.409 2.562-5.409 5.199 0 1.033.394 2.143.889 2.741.099.12.112.225.085.345-.09.375-.293 1.199-.334 1.363-.053.225-.172.271-.401.165-1.495-.69-2.433-2.878-2.433-4.646 0-3.776 2.748-7.252 7.92-7.252 4.158 0 7.392 2.967 7.392 6.923 0 4.135-2.607 7.462-6.233 7.462-1.214 0-2.354-.629-2.758-1.379l-.749 2.848c-.269 1.045-1.004 2.352-1.498 3.146 1.123.345 2.306.535 3.55.535 6.607 0 11.985-5.365 11.985-11.987C23.97 5.39 18.592.026 11.985.026L12.017 0z"/></symbol><symbol id="icon-play" viewBox="0 0 24 24"><path d="M5 3l14 9-14 9V3z" stroke-linecap="round" stroke-width="2" stroke="#000" fill="none" stroke-linejoin="round"/></symbol><symbol id="icon-search" viewBox="0 0 24 24"><path d="M16.657 5.343A8 8 0 115.343 16.657 8 8 0 0116.657 5.343M21 21l-4.35-4.35" stroke-linecap="round" stroke-width="2" stroke="#000" fill="none" stroke-linejoin="round"/></symbol><symbol id="icon-send" viewBox="0 0 24 24"><path d="M22 2L11 13M22 2l-7 20-4-9-9-4 20-7z" stroke-linecap="round" stroke-width="2" stroke="#000" fill="none" stroke-linejoin="round"/></symbol><symbol id="icon-settings" viewBox="0 0 24 24"><g stroke-linecap="round" stroke-width="2" stroke="#000" fill="none" stroke-linejoin="round"><path d="M14.121 9.879A3 3 0 119.88 14.12a3 3 0 014.24-4.24"/><path d="M19.4 15h0a1.65 1.65 0 00.33 1.82l.06.06h0a2 2 0 010 2.83h0a2 2 0 01-2.83 0l-.06-.06h0a1.65 1.65 0 00-1.82-.33h0a1.65 1.65 0 00-1 1.51V21a2 2 0 01-2 2h0a2 2 0 01-2-2s0 0 0 0v-.09h0A1.65 1.65 0 009 19.4h0a1.65 1.65 0 00-1.82.33l-.06.06h0a2 2 0 01-2.83 0h0a2 2 0 010-2.83l.06-.06h0a1.65 1.65 0 00.33-1.82h0a1.65 1.65 0 00-1.51-1H3h0a2 2 0 01-2-2s0 0 0 0h0a2 2 0 012-2h.09A1.65 1.65 0 004.6 9h0a1.65 1.65 0 00-.33-1.82l-.06-.06h0a2 2 0 010-2.83h0a2 2 0 012.83 0l.06.06h0a1.65 1.65 0 001.82.33H9a1.65 1.65 0 001-1.51V3h0a2 2 0 012-2h0a2 2 0 012 2v.09h0a1.65 1.65 0 001 1.51h0a1.65 1.65 0 001.82-.33l.06-.06h0a2 2 0 012.83 0h0a2 2 0 010 2.83l-.06.06h0a1.65 1.65 0 00-.33 1.82V9h0c.26.604.852.997 1.51 1H21a2 2 0 012 2v0a2 2 0 01-2 2h-.09 0a1.65 1.65 0 00-1.51 1z"/></g></symbol><symbol id="icon-share" viewBox="0 0 24 24"><path d="M20.121 2.879A3 3 0 1115.88 7.12a3 3 0 014.24-4.24M8.121 9.879A3 3 0 113.88 14.12a3 3 0 014.24-4.24m12.001 6.999a3 3 0 11-4.242 4.242 3 3 0 014.242-4.242M8.59 13.51l6.83 3.98m-.01-10.98l-6.82 3.98" stroke-linecap="round" stroke-width="2" stroke="#000" fill="none" stroke-linejoin="round"/></symbol><symbol id="icon-slack" viewBox="0 0 24 24"><path d="M5.042 15.165a2.528 2.528 0 01-2.52 2.523A2.528 2.528 0 010 15.165a2.527 2.527 0 012.522-2.52h2.52v2.52zm1.271 0a2.527 2.527 0 012.521-2.52 2.527 2.527 0 012.521 2.52v6.313A2.528 2.528 0 018.834 24a2.528 2.528 0 01-2.521-2.522v-6.313zM8.834 5.042a2.528 2.528 0 01-2.521-2.52A2.528 2.528 0 018.834 0a2.528 2.528 0 012.521 2.522v2.52H8.834zm0 1.271a2.528 2.528 0 012.521 2.521 2.528 2.528 0 01-2.521 2.521H2.522A2.528 2.528 0 010 8.834a2.528 2.528 0 012.522-2.521h6.312zm10.122 2.521a2.528 2.528 0 012.522-2.521A2.528 2.528 0 0124 8.834a2.528 2.528 0 01-2.522 2.521h-2.522V8.834zm-1.268 0a2.528 2.528 0 01-2.523 2.521 2.527 2.527 0 01-2.52-2.521V2.522A2.527 2.527 0 0115.165 0a2.528 2.528 0 012.523 2.522v6.312zm-2.523 10.122a2.528 2.528 0 012.523 2.522A2.528 2.528 0 0115.165 24a2.527 2.527 0 01-2.52-2.522v-2.522h2.52zm0-1.268a2.527 2.527 0 01-2.52-2.523 2.526 2.526 0 012.52-2.52h6.313A2.527 2.527 0 0124 15.165a2.528 2.528 0 01-2.522 2.523h-6.313z"/></symbol><symbol id="icon-snapchat" viewBox="0 0 24 24"><path d="M12.206.793c.99 0 4.347.276 5.93 3.821.529 1.193.403 3.219.299 4.847l-.003.06c-.012.18-.022.345-.03.51.075.045.203.09.401.09.3-.016.659-.12 1.033-.301a.996.996 0 01.464-.104c.182 0 .359.029.509.09.45.149.734.479.734.838.015.449-.39.839-1.213 1.168-.089.029-.209.075-.344.119-.45.135-1.139.36-1.333.81-.09.224-.061.524.12.868l.015.015c.06.136 1.526 3.475 4.791 4.014.255.044.435.27.42.509a.606.606 0 01-.045.225c-.24.569-1.273.988-3.146 1.271-.059.091-.12.375-.164.57-.029.179-.074.36-.134.553-.076.271-.27.405-.555.405h-.03a3.19 3.19 0 01-.538-.074 6.034 6.034 0 00-1.273-.135c-.3 0-.599.015-.913.074-.6.104-1.123.464-1.723.884-.853.599-1.826 1.288-3.294 1.288-.06 0-.119-.015-.18-.015h-.149c-1.468 0-2.427-.675-3.279-1.288-.599-.42-1.107-.779-1.707-.884a6.623 6.623 0 00-.928-.074c-.54 0-.958.089-1.272.149a2.879 2.879 0 01-.54.074c-.374 0-.523-.224-.583-.42-.061-.192-.09-.389-.135-.567-.046-.181-.105-.494-.166-.57-1.918-.222-2.95-.642-3.189-1.226a.6.6 0 01-.055-.225.496.496 0 01.42-.509c3.264-.54 4.73-3.879 4.791-4.02l.016-.029c.18-.345.224-.645.119-.869-.195-.434-.884-.658-1.332-.809a2.233 2.233 0 01-.346-.119c-1.107-.435-1.257-.93-1.197-1.273.09-.479.674-.793 1.168-.793.146 0 .27.029.383.074.42.194.789.3 1.104.3.234 0 .384-.06.465-.105l-.046-.569c-.098-1.626-.225-3.651.307-4.837C7.392 1.077 10.739.807 11.727.807l.419-.015h.06z"/></symbol><symbol id="icon-telegram" viewBox="0 0 24 24"><path d="M11.944 0A12 12 0 000 12a12 12 0 0012 12 12 12 0 0012-12A12 12 0 0012 0a12 12 0 00-.056 0zm4.962 7.224c.1-.002.321.023.465.14a.506.506 0 01.171.325c.016.093.036.306.02.472-.18 1.898-.962 6.502-1.36 8.627-.168.9-.499 1.201-.82 1.23-.696.065-1.225-.46-1.9-.902-1.056-.693-1.653-1.124-2.678-1.8-1.185-.78-.417-1.21.258-1.91.177-.184 3.247-2.977 3.307-3.23.007-.032.014-.15-.056-.212s-.174-.041-.249-.024c-.106.024-1.793 1.14-5.061 3.345-.48.33-.913.49-1.302.48-.428-.008-1.252-.241-1.865-.44-.752-.245-1.349-.374-1.297-.789.027-.216.325-.437.893-.663 3.498-1.524 5.83-2.529 6.998-3.014 3.332-1.386 4.025-1.627 4.476-1.635z"/></symbol><symbol id="icon-threads" viewBox="0 0 24 24"><path d="M12.186 24h-.007c-3.581-.024-6.334-1.205-8.184-3.509C2.35 18.44 1.5 15.586 1.472 12.01v-.017c.03-3.579.879-6.43 2.525-8.482C5.845 1.205 8.6.024 12.18 0h.014c2.746.02 5.043.725 6.826 2.098 1.677 1.29 2.858 3.13 3.509 5.467l-2.04.569c-1.104-3.96-3.898-5.984-8.304-6.015-2.91.022-5.11.936-6.54 2.717C4.307 6.504 3.616 8.914 3.589 12c.027 3.086.718 5.496 2.057 7.164 1.43 1.783 3.631 2.698 6.54 2.717 2.623-.02 4.358-.631 5.8-2.045 1.647-1.613 1.618-3.593 1.09-4.798-.31-.71-.873-1.3-1.634-1.75-.192 1.352-.622 2.446-1.284 3.272-.886 1.102-2.14 1.704-3.73 1.79-1.202.065-2.361-.218-3.259-.801-1.063-.689-1.685-1.74-1.752-2.964-.065-1.19.408-2.285 1.33-3.082.88-.76 2.119-1.207 3.583-1.291a13.853 13.853 0 013.02.142c-.126-.742-.375-1.332-.75-1.757-.513-.586-1.308-.883-2.359-.89h-.029c-.844 0-1.992.232-2.721 1.32l-1.757-1.18c.98-1.454 2.568-2.256 4.478-2.256h.044c3.194.02 5.097 1.975 5.287 5.388.108.046.216.094.321.142 1.49.7 2.58 1.761 3.154 3.07.797 1.82.871 4.79-1.548 7.158-1.85 1.81-4.094 2.628-7.277 2.65zm1.003-11.69c-.242 0-.487.007-.739.021-1.836.103-2.98.946-2.916 2.143.067 1.256 1.452 1.839 2.784 1.767 1.224-.065 2.818-.543 3.086-3.71a10.5 10.5 0 00-2.215-.221z"/></symbol><symbol id="icon-tiktok" viewBox="0 0 24 24"><path d="M12.525.02c1.31-.02 2.61-.01 3.91-.02.08 1.53.63 3.09 1.75 4.17 1.12 1.11 2.7 1.62 4.24 1.79v4.03c-1.44-.05-2.89-.35-4.2-.97-.57-.26-1.1-.59-1.62-.93-.01 2.92.01 5.84-.02 8.75-.08 1.4-.54 2.79-1.35 3.94-1.31 1.92-3.58 3.17-5.91 3.21-1.43.08-2.86-.31-4.08-1.03-2.02-1.19-3.44-3.37-3.65-5.71-.02-.5-.03-1-.01-1.49.18-1.9 1.12-3.72 2.58-4.96 1.66-1.44 3.98-2.13 6.15-1.72.02 1.48-.04 2.96-.04 4.44-.99-.32-2.15-.23-3.02.37-.63.41-1.11 1.04-1.36 1.75-.21.51-.15 1.07-.14 1.61.24 1.64 1.82 3.02 3.5 2.87 1.12-.01 2.19-.66 2.77-1.61.19-.33.4-.67.41-1.06.1-1.79.06-3.57.07-5.36.01-4.03-.01-8.05.02-12.07z"/></symbol><symbol id="icon-tumblr" viewBox="0 0 24 24"><path d="M14.563 24c-5.093 0-7.031-3.756-7.031-6.411V9.747H5.116V6.648c3.63-1.313 4.512-4.596 4.71-6.469C9.84.051 9.941 0 9.999 0h3.517v6.114h4.801v3.633h-4.82v7.47c.016 1.001.375 2.371 2.207 2.371h.09c.631-.02 1.486-.205 1.936-.419l1.156 3.425c-.436.636-2.4 1.374-4.156 1.404h-.178l.011.002z"/></symbol><symbol id="icon-twitch" viewBox="0 0 24 24"><path d="M11.571 4.714h1.715v5.143H11.57zm4.715 0H18v5.143h-1.714zM6 0L1.714 4.286v15.428h5.143V24l4.286-4.286h3.428L22.286 12V0zm14.571 11.143l-3.428 3.428h-3.429l-3 3v-3H6.857V1.714h13.714z"/></symbol><symbol id="icon-twitter" viewBox="0 0 24 24"><path d="M18.901 1.153h3.68l-8.04 9.19L24 22.846h-7.406l-5.8-7.584-6.638 7.584H.474l8.6-9.83L0 1.154h7.594l5.243 6.932zM17.61 20.644h2.039L6.486 3.24H4.298z"/></symbol><symbol id="icon-unlock" viewBox="0 0 24 24"><path d="M5 22a2 2 0 01-2-2v-7a2 2 0 012-2h14a2 2 0 012 2v7a2 2 0 01-2 2zm2-11V7h0a5 5 0 019.9-1" stroke-linecap="round" stroke-width="2" stroke="#000" fill="none" stroke-linejoin="round"/></symbol><symbol id="icon-user-minus" viewBox="0 0 24 24"><path d="M16 21v-2 0a4 4 0 00-4-4H5h0a4 4 0 00-4 4s0 0 0 0v2M11.328 4.172a4 4 0 11-5.656 5.656 4 4 0 015.656-5.656M23 11h-6" stroke-linecap="round" stroke-width="2" stroke="#000" fill="none" stroke-linejoin="round"/></symbol><symbol id="icon-user-plus" viewBox="0 0 24 24"><path d="M16 21v-2 0a4 4 0 00-4-4H5h0a4 4 0 00-4 4s0 0 0 0v2M11.328 4.172a4 4 0 11-5.656 5.656 4 4 0 015.656-5.656M20 8v6m3-3h-6" stroke-linecap="round" stroke-width="2" stroke="#000" fill="none" stroke-linejoin="round"/></symbol><symbol id="icon-user" viewBox="0 0 24 24"><path d="M20 21v-2 0a4 4 0 00-4-4H8h0a4 4 0 00-4 4s0 0 0 0v2M14.828 4.172a4 4 0 11-5.656 5.656 4 4 0 015.656-5.656" stroke-linecap="round" stroke-width="2" stroke="#000" fill="none" stroke-linejoin="round"/></symbol><symbol id="icon-users" viewBox="0 0 24 24"><path d="M17 21v-2 0a4 4 0 00-4-4H5h0a4 4 0 00-4 4s0 0 0 0v2M11.828 4.172a4 4 0 11-5.656 5.656 4 4 0 015.656-5.656M23 21v-2h0a4 4 0 00-3-3.87m-4-12h0a4 4 0 010 7.75" stroke-linecap="round" stroke-width="2" stroke="#000" fill="none" stroke-linejoin="round"/></symbol><symbol id="icon-vimeo" viewBox="0 0 24 24"><path d="M23.977 6.417c-.105 2.338-1.74 5.543-4.894 9.609-3.268 4.247-6.026 6.37-8.29 6.37-1.41 0-2.578-1.294-3.553-3.881L5.322 11.4c-.72-2.584-1.488-3.878-2.312-3.878-.18 0-.806.378-1.881 1.132l-1.13-1.457A315.06 315.06 0 003.502 4.07C5.08 2.702 6.266 1.985 7.055 1.91c1.867-.18 3.016 1.1 3.447 3.839.465 2.953.789 4.789.97 5.507.54 2.45 1.132 3.674 1.777 3.674.502 0 1.256-.796 2.265-2.385 1.004-1.59 1.54-2.797 1.612-3.628.144-1.371-.395-2.061-1.614-2.061-.574 0-1.167.12-1.777.39C14.92 3.38 17.169 1.49 20.497 1.61c2.473.06 3.628 1.664 3.493 4.797z"/></symbol><symbol id="icon-whatsapp" viewBox="0 0 24 24"><path d="M17.472 14.382c-.297-.149-1.758-.867-2.03-.967-.273-.099-.471-.148-.67.15-.197.297-.767.966-.94 1.164-.173.199-.347.223-.644.075-.297-.15-1.255-.463-2.39-1.475-.883-.788-1.48-1.761-1.653-2.059-.173-.297-.018-.458.13-.606.134-.133.298-.347.446-.52.149-.174.198-.298.298-.497.099-.198.05-.371-.025-.52-.075-.149-.669-1.612-.916-2.207-.242-.579-.487-.5-.669-.51a12.8 12.8 0 00-.57-.01c-.198 0-.52.074-.792.372-.272.297-1.04 1.016-1.04 2.479 0 1.462 1.065 2.875 1.213 3.074.149.198 2.096 3.2 5.077 4.487.709.306 1.262.489 1.694.625.712.227 1.36.195 1.871.118.571-.085 1.758-.719 2.006-1.413.248-.694.248-1.289.173-1.413-.074-.124-.272-.198-.57-.347m-5.421 7.403h-.004a9.87 9.87 0 01-5.031-1.378l-.361-.214-3.741.982.998-3.648-.235-.374a9.86 9.86 0 01-1.51-5.26c.001-5.45 4.436-9.884 9.888-9.884 2.64 0 5.122 1.03 6.988 2.898a9.825 9.825 0 012.893 6.994c-.003 5.45-4.437 9.884-9.885 9.884m8.413-18.297A11.815 11.815 0 0012.05 0C5.495 0 .16 5.335.157 11.892c0 2.096.547 4.142 1.588 5.945L.057 24l6.305-1.654a11.882 11.882 0 005.683 1.448h.005c6.554 0 11.89-5.335 11.893-11.893a11.821 11.821 0 00-3.48-8.413z"/></symbol><symbol id="icon-wikipedia" viewBox="0 0 24 24"><path d="M12.09 13.119c-.936 1.932-2.217 4.548-2.853 5.728-.616 1.074-1.127.931-1.532.029-1.406-3.321-4.293-9.144-5.651-12.409-.251-.601-.441-.987-.619-1.139-.181-.15-.554-.24-1.122-.271C.103 5.033 0 4.982 0 4.898v-.455l.052-.045c.924-.005 5.401 0 5.401 0l.051.045v.434c0 .119-.075.176-.225.176l-.564.031c-.485.029-.727.164-.727.436 0 .135.053.33.166.601 1.082 2.646 4.818 10.521 4.818 10.521l.136.046 2.411-4.81-.482-1.067-1.658-3.264s-.318-.654-.428-.872c-.728-1.443-.712-1.518-1.447-1.617-.207-.023-.313-.05-.313-.149v-.468l.06-.045h4.292l.113.037v.451c0 .105-.076.15-.227.15l-.308.047c-.792.061-.661.381-.136 1.422l1.582 3.252 1.758-3.504c.293-.64.233-.801.111-.947-.07-.084-.305-.22-.812-.24l-.201-.021a.228.228 0 01-.145-.051.15.15 0 01-.067-.129v-.427l.061-.045c1.247-.008 4.043 0 4.043 0l.059.045v.436c0 .121-.059.178-.193.178-.646.03-.782.095-1.023.439-.12.186-.375.589-.646 1.039l-2.301 4.273-.065.135 2.792 5.712.17.048 4.396-10.438c.154-.422.129-.722-.064-.895-.197-.172-.346-.273-.857-.295l-.42-.016a.255.255 0 01-.152-.045c-.043-.029-.072-.075-.072-.119v-.436l.059-.045h4.961l.041.045v.437c0 .119-.074.18-.209.18-.648.03-1.127.18-1.443.421-.314.255-.557.616-.736 1.067 0 0-4.043 9.258-5.426 12.339-.525 1.007-1.053.917-1.503-.031-.571-1.171-1.773-3.786-2.646-5.71l.053-.036z"/></symbol><symbol id="icon-x" viewBox="0 0 24 24"><path d="M18.901 1.153h3.68l-8.04 9.19L24 22.846h-7.406l-5.8-7.584-6.638 7.584H.474l8.6-9.83L0 1.154h7.594l5.243 6.932zM17.61 20.644h2.039L6.486 3.24H4.298z"/></symbol><symbol id="icon-youtube" viewBox="0 0 24 24"><path d="M23.498 6.186a3.016 3.016 0 00-2.122-2.136C19.505 3.545 12 3.545 12 3.545s-7.505 0-9.377.505A3.017 3.017 0 00.502 6.186C0 8.07 0 12 0 12s0 3.93.502 5.814a3.016 3.016 0 002.122 2.136c1.871.505 9.376.505 9.376.505s7.505 0 9.377-.505a3.015 3.015 0 002.122-2.136C24 15.93 24 12 24 12s0-3.93-.502-5.814zM9.545 15.568V8.432L15.818 12l-6.273 3.568z"/></symbol><symbol id="icon-zoom-in" viewBox="0 0 24 24"><path d="M16.657 5.343A8 8 0 115.343 16.657 8 8 0 0116.657 5.343M21 21l-4.35-4.35M11 8v6m-3-3h6" stroke-linecap="round" stroke-width="2" stroke="#000" fill="none" stroke-linejoin="round"/></symbol><symbol id="icon-zoom-out" viewBox="0 0 24 24"><path d="M16.657 5.343A8 8 0 115.343 16.657 8 8 0 0116.657 5.343M21 21l-4.35-4.35M8 11h6" stroke-linecap="round" stroke-width="2" stroke="#000" fill="none" stroke-linejoin="round"/></symbol></svg>