<?xml version="1.0" encoding="UTF-8"?><!DOCTYPE svg PUBLIC "-//W3C//DTD SVG 1.1//EN" "http://www.w3.org/Graphics/SVG/1.1/DTD/svg11.dtd"><svg xmlns="http://www.w3.org/2000/svg" xmlns:xlink="http://www.w3.org/1999/xlink"><symbol id="icon-alert" viewBox="0 0 24 24"><path d="M3.53 22c-.53 0-1.03-.14-1.48-.4a3.016 3.016 0 01-1.1-4.1L9.43 3.35a2.997 2.997 0 015.13 0l8.47 14.15c.27.46.41.97.41 1.48 0 .8-.3 1.56-.86 2.13-.56.57-1.31.89-2.11.9H3.53zm7.62-17.62L2.68 18.51c-.27.46-.1 1.08.37 1.35.15.09.32.13.49.13h16.93c.26 0 .51-.11.69-.3a.99.99 0 00.29-.71c0-.17-.05-.34-.13-.49L12.85 4.37a.992.992 0 00-1.37-.33c-.14.08-.25.2-.34.34z"/><path d="M12 14c-.55 0-1-.45-1-1V9c0-.55.45-1 1-1s1 .45 1 1v4c0 .55-.45 1-1 1zm0 4c-.26 0-.52-.11-.71-.29-.04-.05-.09-.1-.12-.15a.757.757 0 01-.09-.18.636.636 0 01-.06-.18c-.01-.07-.02-.13-.02-.2 0-.13.03-.26.08-.38s.12-.23.21-.33c.28-.28.72-.36 1.09-.21.13.05.23.12.33.21.09.1.16.21.21.33.05.12.08.25.08.38 0 .07-.01.13-.02.2-.01.06-.03.12-.06.18-.02.06-.05.12-.09.18-.03.05-.08.1-.12.15-.09.09-.2.16-.33.21-.12.06-.25.08-.38.08z"/></symbol><symbol id="icon-arrow-down" viewBox="0 0 24 24"><path d="M12 20c-.55 0-1-.45-1-1V5c0-.55.45-1 1-1s1 .45 1 1v14c0 .55-.45 1-1 1z"/><path d="M12 20c-.26 0-.51-.1-.71-.29l-7-7A.996.996 0 115.7 11.3l6.29 6.29 6.29-6.29a.996.996 0 111.41 1.41l-7 7c-.2.2-.45.29-.71.29z"/></symbol><symbol id="icon-arrow-left" viewBox="0 0 24 24"><path d="M19 13H5c-.55 0-1-.45-1-1s.45-1 1-1h14c.55 0 1 .45 1 1s-.45 1-1 1z"/><path d="M12 20c-.26 0-.51-.1-.71-.29l-7-7a.996.996 0 010-1.41l7-7a.996.996 0 111.41 1.41L6.41 12l6.29 6.29a.996.996 0 01-.71 1.7z"/></symbol><symbol id="icon-arrow-right" viewBox="0 0 24 24"><path d="M19 13H5c-.55 0-1-.45-1-1s.45-1 1-1h14c.55 0 1 .45 1 1s-.45 1-1 1z"/><path d="M12 20c-.26 0-.51-.1-.71-.29a.996.996 0 010-1.41l6.29-6.29-6.29-6.29a.996.996 0 111.41-1.41l7 7c.39.39.39 1.02 0 1.41l-7 7c-.2.2-.45.29-.71.29z"/></symbol><symbol id="icon-arrow-up" viewBox="0 0 24 24"><path d="M12 20c-.55 0-1-.45-1-1V5c0-.55.45-1 1-1s1 .45 1 1v14c0 .55-.45 1-1 1z"/><path d="M19 13c-.26 0-.51-.1-.71-.29L12 6.42l-6.29 6.29A.996.996 0 114.3 11.3l7-7a.996.996 0 011.41 0l7 7A.996.996 0 0119 13z"/></symbol><symbol id="icon-bell-off" viewBox="0 0 24 24"><path d="M11.99 23c-.51 0-1.03-.13-1.5-.4-.45-.26-.83-.64-1.09-1.09-.28-.48-.11-1.09.36-1.37.48-.28 1.09-.11 1.37.36.09.15.21.28.36.36.48.28 1.09.11 1.37-.36.28-.48.89-.64 1.37-.36.48.28.64.89.36 1.37-.56.96-1.56 1.49-2.6 1.49zm6.64-9a.99.99 0 01-.96-.74c-.47-1.72-.69-3.5-.67-5.28 0-.55.46-.98 1-.98h.02c.55 0 .99.46.98 1.02-.03 1.59.17 3.18.59 4.72.15.53-.17 1.08-.7 1.23-.09.02-.18.04-.26.04zM17 18H3c-.44 0-.83-.29-.96-.71s.04-.88.4-1.12c.01 0 2.55-1.9 2.55-8.17 0-.69.1-1.37.3-2.03.16-.53.72-.82 1.25-.66.53.16.82.72.66 1.25-.14.47-.22.96-.22 1.44 0 4.01-.96 6.52-1.86 8h11.86c.55 0 1 .45 1 1s-.45 1-1 1z"/><path d="M18 9c-.55 0-1-.45-1-1 0-2.76-2.24-5-4.99-5.01-.99 0-1.95.29-2.77.84a1.001 1.001 0 11-1.11-1.67c1.15-.77 2.5-1.18 3.88-1.18h.01c3.86 0 7 3.15 6.99 7.01 0 .55-.45 1-1 1zm5 15c-.26 0-.51-.1-.71-.29l-22-22C-.1 1.32-.1.68.29.29s1.03-.39 1.42 0l22 22a.996.996 0 01-.71 1.7z"/></symbol><symbol id="icon-bell" viewBox="0 0 24 24"><path d="M21 18H3c-.44 0-.83-.29-.96-.71s.04-.88.4-1.12c.01 0 2.55-1.9 2.55-8.17 0-3.86 3.14-7 7-7s7 3.14 7 7c0 6.27 2.54 8.16 2.57 8.18.35.25.51.71.38 1.12s-.51.7-.95.7zM5.14 16h13.72c-.9-1.48-1.86-4-1.86-8 0-2.76-2.24-5-5-5S7 5.24 7 8c0 4-.95 6.52-1.86 8zm6.85 7c-.51 0-1.03-.13-1.5-.4-.45-.26-.83-.64-1.09-1.09-.28-.48-.11-1.09.36-1.37.48-.28 1.09-.11 1.37.36.09.15.21.28.36.36.48.28 1.09.11 1.37-.36.28-.48.89-.64 1.37-.36.48.28.64.89.36 1.37-.56.96-1.56 1.49-2.6 1.49z"/></symbol><symbol id="icon-bookmark" viewBox="0 0 24 24"><path d="M19 22c-.21 0-.41-.06-.58-.19L12 17.23l-6.42 4.58A.997.997 0 014 21V5c0-1.65 1.35-3 3-3h10c1.65 0 3 1.35 3 3v16a.997.997 0 01-1 1zm-7-7c.2 0 .41.06.58.19L18 19.06V5c0-.55-.45-1-1-1H7c-.55 0-1 .45-1 1v14.06l5.42-3.87c.17-.12.38-.19.58-.19z"/></symbol><symbol id="icon-calendar" viewBox="0 0 24 24"><path d="M19 23H5c-1.65 0-3-1.35-3-3V6c0-1.65 1.35-3 3-3h14c1.65 0 3 1.35 3 3v14c0 1.65-1.35 3-3 3zM5 5c-.55 0-1 .45-1 1v14c0 .55.45 1 1 1h14c.55 0 1-.45 1-1V6c0-.55-.45-1-1-1H5z"/><path d="M16 7c-.55 0-1-.45-1-1V2c0-.55.45-1 1-1s1 .45 1 1v4c0 .55-.45 1-1 1zM8 7c-.55 0-1-.45-1-1V2c0-.55.45-1 1-1s1 .45 1 1v4c0 .55-.45 1-1 1zm13 4H3c-.55 0-1-.45-1-1s.45-1 1-1h18c.55 0 1 .45 1 1s-.45 1-1 1z"/></symbol><symbol id="icon-cart" viewBox="0 0 192 192"><path d="M172.4 113.1l9.8-54c.1-.7.2-1.4.2-2.1 0-6.6-5.4-12-12-12H44.6l-3.7-20.1c-1-5.7-6-9.9-11.8-9.9H15.6c-3.3 0-6 2.7-6 6s2.7 6 6 6h13.5l20 110.1c.2 1 .5 1.9.9 2.8-4.6 3.9-7.5 9.6-7.5 16 0 11.6 9.4 21 21 21s21-9.4 21-21c0-3.2-.8-6.3-2.1-9h52.1c-1.3 2.7-2.1 5.8-2.1 9 0 11.6 9.4 21 21 21s21-9.4 21-21-9.1-20.6-20.4-21H61l-2.2-12h101.8c5.8.1 10.8-4 11.8-9.8zM72.6 156c0 5-4 9-9 9s-9-4-9-9 4-9 9-9 9 4 9 9zm90 0c0 5-4 9-9 9s-9-4-9-9 4-9 9-9 9 4 9 9zM46.8 57h123.6l-9.8 54h-104l-9.8-54z"/></symbol><symbol id="icon-check" viewBox="0 0 24 24"><path d="M9 18c-.26 0-.51-.1-.71-.29l-5-5A.996.996 0 114.7 11.3l4.29 4.29L19.28 5.3a.996.996 0 111.41 1.41l-11 11c-.2.2-.45.29-.71.29z"/></symbol><symbol id="icon-chevron-down" viewBox="0 0 24 24"><path d="M12 16c-.26 0-.51-.1-.71-.29l-6-6A.996.996 0 116.7 8.3l5.29 5.29 5.29-5.29a.996.996 0 111.41 1.41l-6 6c-.2.2-.45.29-.71.29z"/></symbol><symbol id="icon-chevron-left" viewBox="0 0 24 24"><path d="M15 19c-.26 0-.51-.1-.71-.29l-6-6a.996.996 0 010-1.41l6-6a.996.996 0 111.41 1.41L10.41 12l5.29 5.29a.996.996 0 01-.71 1.7z"/></symbol><symbol id="icon-chevron-right" viewBox="0 0 24 24"><path d="M9 19c-.26 0-.51-.1-.71-.29a.996.996 0 010-1.41l5.29-5.29-5.29-5.29A.996.996 0 119.7 5.31l6 6c.39.39.39 1.02 0 1.41l-6 6c-.2.2-.45.29-.71.29z"/></symbol><symbol id="icon-chevron-up" viewBox="0 0 24 24"><path d="M18 16c-.26 0-.51-.1-.71-.29L12 10.42l-5.29 5.29A.996.996 0 115.3 14.3l6-6a.996.996 0 011.41 0l6 6A.996.996 0 0118 16z"/></symbol><symbol id="icon-chevrons-left" viewBox="0 0 24 24"><path d="M11 18c-.26 0-.51-.1-.71-.29l-5-5a.996.996 0 010-1.41l5-5a.996.996 0 111.41 1.41L7.41 12l4.29 4.29a.996.996 0 01-.71 1.7z"/><path d="M18 18c-.26 0-.51-.1-.71-.29l-5-5a.996.996 0 010-1.41l5-5a.996.996 0 111.41 1.41L14.41 12l4.29 4.29a.996.996 0 01-.71 1.7z"/></symbol><symbol id="icon-chevrons-right" viewBox="0 0 24 24"><path d="M13 18c-.26 0-.51-.1-.71-.29a.996.996 0 010-1.41l4.29-4.29-4.29-4.29a.996.996 0 111.41-1.41l5 5c.39.39.39 1.02 0 1.41l-5 5c-.2.2-.45.29-.71.29z"/><path d="M6 18c-.26 0-.51-.1-.71-.29a.996.996 0 010-1.41l4.29-4.29-4.29-4.29A.996.996 0 116.7 6.31l5 5c.39.39.39 1.02 0 1.41l-5 5c-.2.2-.45.29-.71.29z"/></symbol><symbol id="icon-clock" viewBox="0 0 24 24"><path d="M12 23c-2.94 0-5.7-1.14-7.78-3.22-4.29-4.29-4.29-11.27 0-15.56 4.29-4.29 11.27-4.29 15.56 0 4.29 4.29 4.29 11.27 0 15.56A10.922 10.922 0 0112 23zm0-20c-2.3 0-4.61.88-6.36 2.63-3.51 3.51-3.51 9.22 0 12.73C7.34 20.06 9.6 21 12 21s4.66-.94 6.36-2.64c3.51-3.51 3.51-9.22 0-12.73A8.98 8.98 0 0012 3z"/><path d="M16 15c-.15 0-.3-.03-.45-.11l-4-2A1 1 0 0111 12V6c0-.55.45-1 1-1s1 .45 1 1v5.38l3.45 1.72c.49.25.69.85.45 1.34-.18.35-.53.55-.9.55z"/></symbol><symbol id="icon-close" viewBox="0 0 24 24"><path d="M6 19c-.26 0-.51-.1-.71-.29a.996.996 0 010-1.41l12-12a.996.996 0 111.41 1.41l-12 12c-.2.2-.45.29-.71.29z"/><path d="M18 19c-.26 0-.51-.1-.71-.29l-12-12A.996.996 0 116.7 5.3l12 12a.996.996 0 01-.71 1.7z"/></symbol><symbol id="icon-discord" viewBox="0 0 24 24"><path d="M20.32 4.37c-1.56-.71-3.2-1.22-4.89-1.52-.03 0-.06 0-.08.04-.21.38-.44.86-.61 1.25-1.84-.28-3.68-.28-5.49 0-.16-.39-.41-.87-.62-1.25a.09.09 0 00-.08-.04c-1.69.29-3.33.8-4.89 1.51-.01 0-.02.02-.03.03C.53 9.05-.32 13.58.1 18.06c0 .02.01.04.03.06 2.05 1.51 4.04 2.42 5.99 3.03.03 0 .06 0 .08-.03.46-.63.87-1.3 1.23-1.99.02-.04 0-.08-.03-.1-.65-.25-1.27-.55-1.87-.89-.04-.02-.05-.07-.03-.11 0 0 .01-.02.02-.02.13-.09.25-.19.37-.29.02-.02.05-.02.08-.01 3.93 1.79 8.18 1.79 12.06 0 .03-.01.06 0 .08 0 .12.1.25.2.37.29.03.03.04.07.02.11l-.02.02c-.6.35-1.22.65-1.87.89-.04.02-.06.06-.04.1.36.7.77 1.36 1.23 1.99.02.03.05.04.08.03a19.83 19.83 0 006-3.03c.02-.01.03-.03.03-.06.5-5.18-.84-9.67-3.55-13.66 0-.01-.02-.02-.03-.03zM8.02 15.33c-1.18 0-2.16-1.09-2.16-2.42s.96-2.42 2.16-2.42 2.18 1.1 2.16 2.42c0 1.33-.96 2.42-2.16 2.42zm7.97 0c-1.18 0-2.16-1.09-2.16-2.42s.96-2.42 2.16-2.42 2.18 1.1 2.16 2.42c0 1.33-.95 2.42-2.16 2.42z"/></symbol><symbol id="icon-ellipses" viewBox="0 0 256 256"><circle cx="64" cy="128" r="16"/><circle cx="128" cy="128" r="16"/><circle cx="192" cy="128" r="16"/></symbol><symbol id="icon-email" viewBox="0 0 24 24"><path d="M20 21H4c-1.65 0-3-1.35-3-3V6c0-1.65 1.35-3 3-3h16c1.65 0 3 1.35 3 3v12c0 1.65-1.35 3-3 3zM4 5c-.55 0-1 .45-1 1v12c0 .55.45 1 1 1h16c.55 0 1-.45 1-1V6c0-.55-.45-1-1-1H4z"/><path d="M12 14c-.2 0-.4-.06-.57-.18l-10-7c-.45-.32-.56-.94-.25-1.39.32-.45.94-.56 1.39-.25l9.43 6.6 9.43-6.6a.988.988 0 011.39.25c.32.45.21 1.08-.25 1.39l-10 7c-.17.12-.37.18-.57.18z"/></symbol><symbol id="icon-facebook" viewBox="0 0 24 24"><path d="M9.1 23.69v-7.98H6.63v-3.67H9.1v-1.58c0-4.09 1.85-5.98 5.86-5.98.4 0 .95.04 1.47.1.38.04.77.1 1.14.2v3.33c-.22-.02-.43-.03-.65-.04h-.73c-.71 0-1.26.1-1.68.31-.28.14-.51.36-.68.62-.26.42-.37.99-.37 1.75v1.3h3.92l-.39 2.1-.29 1.56h-3.25v8.25C19.39 23.24 24 18.18 24 12.05 24 5.42 18.63.04 12 .04s-12 5.38-12 12c0 5.63 3.87 10.35 9.1 11.65z"/></symbol><symbol id="icon-github" viewBox="0 0 24 24"><path d="M12 .3C5.37.3 0 5.67 0 12.3c0 5.3 3.44 9.8 8.2 11.38.6.11.82-.26.82-.58 0-.28-.01-1.04-.02-2.04-3.34.72-4.04-1.61-4.04-1.61-.55-1.38-1.33-1.75-1.33-1.75-1.09-.74.08-.73.08-.73 1.2.08 1.84 1.24 1.84 1.24 1.07 1.83 2.81 1.31 3.49 1 .11-.78.42-1.31.76-1.6-2.66-.3-5.47-1.33-5.47-5.93 0-1.31.47-2.38 1.24-3.22-.14-.3-.54-1.52.11-3.18 0 0 1.01-.32 3.3 1.23.96-.27 1.98-.4 3-.41 1.02 0 2.04.14 3 .41 2.28-1.55 3.29-1.23 3.29-1.23.65 1.65.24 2.87.12 3.18.76.84 1.23 1.91 1.23 3.22 0 4.61-2.81 5.62-5.48 5.92.42.36.81 1.1.81 2.22 0 1.61-.02 2.9-.02 3.29 0 .32.21.69.82.57 4.8-1.57 8.24-6.07 8.24-11.37C24 5.67 18.63.3 12 .3"/></symbol><symbol id="icon-heart" viewBox="0 0 24 24"><path d="M12 22.23c-.27 0-.52-.11-.71-.29L2.45 13.1a6.525 6.525 0 010-9.2c2.53-2.53 6.66-2.53 9.19 0l.35.35.35-.35.02-.02A6.444 6.444 0 0116.94 2c1.74 0 3.37.68 4.6 1.9a6.45 6.45 0 011.9 4.6c0 1.74-.68 3.37-1.91 4.6l-8.84 8.84a.99.99 0 01-.71.29zM7.05 4c-1.15 0-2.31.44-3.18 1.32S2.55 7.3 2.55 8.5s.47 2.33 1.32 3.18L12 19.81l8.13-8.13c.85-.85 1.32-1.98 1.32-3.18 0-1.2-.47-2.33-1.32-3.18a4.49 4.49 0 00-6.36 0l-.01.01-1.05 1.05c-.38.38-1.04.38-1.41 0l-1.06-1.06A4.483 4.483 0 007.06 4z"/></symbol><symbol id="icon-help-circle" viewBox="0 0 24 24"><path d="M12 23c-2.94 0-5.7-1.14-7.78-3.22-4.29-4.29-4.29-11.27 0-15.56 4.29-4.29 11.27-4.29 15.56 0 4.29 4.29 4.29 11.27 0 15.56A10.922 10.922 0 0112 23zm0-20c-2.3 0-4.61.88-6.36 2.63-3.51 3.51-3.51 9.22 0 12.73C7.34 20.06 9.6 21 12 21s4.66-.94 6.36-2.64c3.51-3.51 3.51-9.22 0-12.73A8.98 8.98 0 0012 3z"/><path d="M11.92 14c-.42 0-.81-.26-.95-.68-.17-.52.11-1.09.63-1.27.6-.2 2.32-1.02 2.32-2.05 0-.85-.54-1.61-1.34-1.89-.5-.18-1.05-.15-1.53.08-.48.23-.84.64-1.02 1.14-.18.52-.75.8-1.28.61-.52-.18-.79-.75-.61-1.28a3.953 3.953 0 012.04-2.28 4.01 4.01 0 013.06-.17c1.6.56 2.68 2.08 2.67 3.78 0 2.64-3.31 3.82-3.68 3.95a.86.86 0 01-.32.05zm.08 4c-.26 0-.52-.11-.71-.29-.04-.05-.09-.1-.12-.15a.757.757 0 01-.09-.18.636.636 0 01-.06-.18c-.01-.07-.02-.13-.02-.2 0-.13.03-.26.08-.38s.12-.23.21-.33c.28-.28.72-.36 1.09-.21.13.05.23.12.33.21.09.1.16.21.21.33.05.12.08.25.08.38 0 .07-.01.13-.02.2-.01.06-.03.12-.06.18-.02.06-.05.12-.09.18-.03.05-.08.1-.12.15-.09.09-.2.16-.33.21-.12.06-.25.08-.38.08z"/></symbol><symbol id="icon-info" viewBox="0 0 24 24"><path d="M12 23c-2.94 0-5.7-1.14-7.78-3.22-4.29-4.29-4.29-11.27 0-15.56 4.29-4.29 11.27-4.29 15.56 0 4.29 4.29 4.29 11.27 0 15.56A10.922 10.922 0 0112 23zm0-20c-2.3 0-4.61.88-6.36 2.63-3.51 3.51-3.51 9.22 0 12.73C7.34 20.06 9.6 21 12 21s4.66-.94 6.36-2.64c3.51-3.51 3.51-9.22 0-12.73A8.98 8.98 0 0012 3z"/><path d="M12 17c-.55 0-1-.45-1-1v-4c0-.55.45-1 1-1s1 .45 1 1v4c0 .55-.45 1-1 1zm0-8c-.06 0-.13-.01-.19-.02a.603.603 0 01-.19-.06.556.556 0 01-.17-.09c-.06-.03-.11-.08-.16-.12-.09-.1-.16-.2-.21-.33-.05-.12-.08-.25-.08-.38s.03-.26.08-.38.12-.23.21-.33c.05-.04.1-.08.16-.12.05-.04.11-.07.17-.09.06-.03.12-.05.19-.06.32-.06.67.04.9.27.09.1.16.21.21.33.06.12.08.25.08.38s-.02.26-.08.38c-.05.13-.12.23-.21.33-.19.18-.45.29-.71.29z"/></symbol><symbol id="icon-instagram" viewBox="0 0 24 24"><path d="M7.03.08C5.75.14 4.88.34 4.12.64 3.33.95 2.66 1.36 2 2.03A5.78 5.78 0 00.62 4.16c-.3.76-.5 1.64-.55 2.91C0 8.35 0 8.76 0 12.02c0 3.26.02 3.67.08 4.95.06 1.28.26 2.15.56 2.91.31.79.72 1.46 1.39 2.12.67.67 1.34 1.07 2.13 1.38.76.3 1.64.5 2.91.55 1.28.06 1.69.07 4.95.06 3.26 0 3.67-.02 4.95-.08 1.28-.06 2.15-.27 2.91-.56A5.82 5.82 0 0022 21.96c.67-.67 1.07-1.34 1.38-2.13.3-.76.5-1.64.55-2.91.06-1.28.07-1.69.06-4.95 0-3.26-.02-3.67-.08-4.95s-.26-2.15-.56-2.91a5.82 5.82 0 00-1.39-2.12A5.78 5.78 0 0019.83.61c-.76-.3-1.64-.5-2.91-.55C15.65 0 15.24 0 11.98 0 8.72 0 8.31.02 7.03.08m.14 21.7c-1.17-.05-1.81-.25-2.23-.41-.56-.22-.96-.48-1.38-.9-.42-.42-.68-.82-.9-1.38-.16-.42-.36-1.06-.42-2.23-.06-1.26-.07-1.64-.08-4.85 0-3.2 0-3.58.06-4.85.05-1.17.25-1.8.41-2.23.22-.56.48-.96.89-1.38.42-.42.82-.68 1.38-.9.42-.17 1.06-.36 2.23-.42 1.27-.06 1.64-.07 4.85-.08s3.58 0 4.85.06c1.17.05 1.81.24 2.23.41.56.22.96.48 1.38.89.42.42.68.82.9 1.38.17.42.36 1.06.42 2.23.06 1.27.07 1.64.08 4.85 0 3.2 0 3.58-.06 4.85-.05 1.17-.25 1.81-.41 2.23-.22.56-.48.96-.9 1.38-.42.42-.82.68-1.38.9-.42.16-1.06.36-2.23.42-1.27.06-1.64.07-4.85.08s-3.58 0-4.85-.06m9.79-16.18a1.44 1.44 0 101.44-1.44c-.8 0-1.44.65-1.44 1.44M5.84 12.01c0 3.4 2.77 6.16 6.17 6.15 3.4 0 6.16-2.77 6.15-6.17 0-3.4-2.77-6.16-6.17-6.15s-6.16 2.77-6.15 6.17m2.16 0c0-2.21 1.78-4 3.99-4.01 2.21 0 4 1.78 4.01 3.99 0 2.21-1.78 4-3.99 4.01-2.21 0-4-1.78-4.01-3.99"/></symbol><symbol id="icon-kebab" viewBox="0 0 24 24"><path d="M12 14c-.53 0-1.04-.21-1.41-.59-.78-.78-.78-2.05 0-2.83s2.07-.76 2.83 0c.78.78.78 2.05 0 2.83-.38.38-.88.59-1.41.59zm0-2zm0 0zm0 0zm0 0h.01H12zm0 0zm0 0zm0 0zm0 0zm0 0zm0-5c-.53 0-1.04-.21-1.41-.59-.78-.78-.78-2.05 0-2.83s2.07-.76 2.83 0c.78.78.78 2.05 0 2.83-.38.38-.88.59-1.41.59zm0-2zm0 0zm0 0zm0 0h.01H12zm0 0zm0 0zm0 0zm0 0zm0 0zm0 16c-.53 0-1.04-.21-1.41-.59-.78-.78-.78-2.05 0-2.83.76-.76 2.07-.76 2.83 0 .78.78.78 2.05 0 2.83-.38.38-.88.59-1.41.59zm0-2zm0 0zm0 0zm0 0h.01H12zm0 0zm0 0zm0 0zm0 0zm0 0z"/></symbol><symbol id="icon-link" viewBox="0 0 24 24"><path d="M14.01 16c-1.83 0-3.64-.83-4.81-2.4-.33-.44-.24-1.07.2-1.4.44-.33 1.07-.24 1.4.2a4.003 4.003 0 005.6.81c.15-.12.3-.24.43-.38l3-3c1.52-1.57 1.48-4.11-.11-5.64-1.56-1.5-4-1.5-5.56 0l-1.71 1.7a.996.996 0 11-1.41-1.41l1.72-1.71a5.98 5.98 0 018.35-.01 5.975 5.975 0 011.83 4.21c.03 1.6-.57 3.12-1.68 4.27l-3.01 3.01A5.988 5.988 0 0114.02 16z"/><path d="M7.05 22.94c-1.5 0-3-.56-4.16-1.69-2.38-2.3-2.45-6.11-.15-8.48l3.01-3.01c.2-.2.42-.39.65-.56a5.945 5.945 0 014.45-1.13c1.59.23 2.99 1.06 3.95 2.34.33.44.24 1.07-.2 1.4-.44.33-1.07.24-1.4-.2a3.933 3.933 0 00-2.63-1.56c-1.06-.15-2.11.12-2.97.76-.15.11-.3.24-.43.38l-3 3c-1.52 1.57-1.48 4.11.11 5.64 1.56 1.5 4 1.5 5.56 0l1.7-1.7a.996.996 0 111.41 1.41l-1.71 1.71a5.993 5.993 0 01-4.19 1.7z"/></symbol><symbol id="icon-linkedin" viewBox="0 0 24 24"><path d="M20.45 20.45H16.9v-5.57c0-1.33-.03-3.04-1.85-3.04s-2.14 1.44-2.14 2.94v5.67H9.36V9h3.41v1.56h.05c.48-.9 1.64-1.85 3.37-1.85 3.6 0 4.27 2.37 4.27 5.45v6.29zM5.34 7.43c-1.14 0-2.06-.93-2.06-2.07S4.2 3.3 5.34 3.3s2.06.92 2.06 2.06-.93 2.07-2.06 2.07zm1.78 13.02H3.56V9h3.56v11.45zM22.23 0H1.77C.79 0 0 .77 0 1.73v20.54C0 23.23.79 24 1.77 24h20.45c.98 0 1.78-.77 1.78-1.73V1.73C24 .78 23.2 0 22.22 0z"/></symbol><symbol id="icon-loader" viewBox="0 0 24 24"><path d="M12 7c-.55 0-1-.45-1-1V2c0-.55.45-1 1-1s1 .45 1 1v4c0 .55-.45 1-1 1zm0 16c-.55 0-1-.45-1-1v-4c0-.55.45-1 1-1s1 .45 1 1v4c0 .55-.45 1-1 1zM7.76 8.76c-.26 0-.51-.1-.71-.29L4.22 5.64a.996.996 0 111.41-1.41l2.83 2.83a.996.996 0 01-.71 1.7zm11.31 11.31c-.26 0-.51-.1-.71-.29l-2.83-2.83a.996.996 0 111.41-1.41l2.83 2.83a.996.996 0 01-.71 1.7zM6 13H2c-.55 0-1-.45-1-1s.45-1 1-1h4c.55 0 1 .45 1 1s-.45 1-1 1zm16 0h-4c-.55 0-1-.45-1-1s.45-1 1-1h4c.55 0 1 .45 1 1s-.45 1-1 1zM4.93 20.07c-.26 0-.51-.1-.71-.29a.996.996 0 010-1.41l2.83-2.83a.996.996 0 111.41 1.41l-2.83 2.83c-.2.2-.45.29-.71.29zM16.24 8.76c-.26 0-.51-.1-.71-.29a.996.996 0 010-1.41l2.83-2.83a.996.996 0 111.41 1.41l-2.83 2.83c-.2.2-.45.29-.71.29z"/></symbol><symbol id="icon-location" viewBox="0 0 24 24"><path d="M12 24a.99.99 0 01-.55-.17C11.06 23.57 2 17.45 2 10 2 4.49 6.49 0 12 0s10 4.49 10 10c0 7.45-9.06 13.58-9.45 13.83-.17.11-.36.17-.55.17zm0-22c-4.41 0-8 3.59-8 8 0 5.41 6.1 10.36 8 11.77 1.9-1.41 8-6.36 8-11.77 0-4.41-3.59-8-8-8z"/><path d="M12 14c-1.07 0-2.07-.42-2.83-1.17C8.41 12.07 8 11.07 8 10s.42-2.07 1.17-2.83c1.51-1.51 4.15-1.51 5.66 0C15.59 7.93 16 8.93 16 10s-.42 2.07-1.17 2.83C14.08 13.59 13.07 14 12 14zm0-6c-.53 0-1.04.21-1.41.59-.78.78-.78 2.05 0 2.83s2.07.76 2.83 0a1.983 1.983 0 000-2.82c-.38-.38-.88-.59-1.41-.59z"/></symbol><symbol id="icon-lock" viewBox="0 0 24 24"><path d="M19 23H5c-1.65 0-3-1.35-3-3v-7c0-1.65 1.35-3 3-3h14c1.65 0 3 1.35 3 3v7c0 1.65-1.35 3-3 3zM5 12c-.55 0-1 .45-1 1v7c0 .55.45 1 1 1h14c.55 0 1-.45 1-1v-7c0-.55-.45-1-1-1H5z"/><path d="M17 12c-.55 0-1-.45-1-1V7c0-2.21-1.79-4-4-4S8 4.79 8 7v4c0 .55-.45 1-1 1s-1-.45-1-1V7c0-3.31 2.69-6 6-6s6 2.69 6 6v4c0 .55-.45 1-1 1z"/></symbol><symbol id="icon-mastodon" viewBox="0 0 24 24"><path d="M23.27 5.31c-.35-2.58-2.62-4.61-5.3-5C17.52.24 15.8 0 11.82 0h-.03C7.81 0 6.95.24 6.5.31 3.88.69 1.5 2.52.92 5.13.64 6.42.61 7.84.66 9.15c.07 1.87.09 3.74.26 5.61.12 1.24.33 2.47.62 3.68.55 2.24 2.78 4.1 4.96 4.86 2.34.79 4.85.92 7.26.38.27-.06.53-.13.79-.21.59-.18 1.27-.39 1.77-.75.01-.01.02-.03.02-.04v-1.81s0-.03-.02-.04c-.01-.01-.03-.01-.05-.01-1.54.37-3.12.55-4.71.55-2.73 0-3.46-1.28-3.67-1.82a5.39 5.39 0 01-.32-1.43c0-.03.02-.05.05-.06h.02c1.52.36 3.07.55 4.63.55.38 0 .75 0 1.12-.01 1.57-.04 3.22-.12 4.77-.42.04 0 .08-.01.11-.02 2.43-.46 4.75-1.92 4.99-5.6 0-.15.03-1.52.03-1.67 0-.51.17-3.63-.02-5.54zm-3.75 9.2h-2.56V8.29c0-1.31-.55-1.98-1.67-1.98-1.23 0-1.85.79-1.85 2.35v3.4h-2.55v-3.4c0-1.56-.62-2.35-1.85-2.35-1.11 0-1.67.67-1.67 1.98v6.22H4.81V8.1c0-1.31.34-2.35 1.01-3.12.7-.77 1.61-1.16 2.74-1.16 1.31 0 2.3.5 2.96 1.5l.64 1.06.64-1.06c.66-1 1.65-1.5 2.96-1.5 1.13 0 2.04.39 2.74 1.16.67.77 1.01 1.81 1.01 3.12v6.41z"/></symbol><symbol id="icon-maximise" viewBox="0 0 24 24"><path d="M21 10c-.55 0-1-.45-1-1V4h-5c-.55 0-1-.45-1-1s.45-1 1-1h6c.55 0 1 .45 1 1v6c0 .55-.45 1-1 1zM9 22H3c-.55 0-1-.45-1-1v-6c0-.55.45-1 1-1s1 .45 1 1v5h5c.55 0 1 .45 1 1s-.45 1-1 1z"/><path d="M14 11c-.26 0-.51-.1-.71-.29a.996.996 0 010-1.41l7-7a.996.996 0 111.41 1.41l-7 7c-.2.2-.45.29-.71.29zM3 22c-.26 0-.51-.1-.71-.29a.996.996 0 010-1.41l7-7a.996.996 0 111.41 1.41l-7 7c-.2.2-.45.29-.71.29z"/></symbol><symbol id="icon-meatball" viewBox="0 0 24 24"><path d="M12 14c-.53 0-1.04-.21-1.41-.59-.78-.78-.78-2.05 0-2.83s2.07-.76 2.83 0c.78.78.78 2.05 0 2.83-.38.38-.88.59-1.41.59zm0-2zm0 0zm0 0zm0 0h.01H12zm0 0zm0 0zm0 0zm0 0zm0 0zm7 2c-.53 0-1.04-.21-1.41-.59-.78-.78-.78-2.05 0-2.83.76-.76 2.07-.76 2.83 0 .78.78.78 2.05 0 2.83-.38.38-.88.59-1.41.59zm0-2zm0 0zm0 0zm0 0zm0 0zm0 0zm0 0zm0 0zm0 0zM5 14c-.53 0-1.04-.21-1.41-.59-.78-.78-.78-2.05 0-2.83s2.07-.76 2.83 0 .78 2.05 0 2.83c-.38.38-.88.59-1.41.59zm0-2zm0 0zm0 0zm0 0h.01H5zm0 0zm0 0zm0 0zm0 0zm0 0z"/></symbol><symbol id="icon-medium" viewBox="0 0 24 24"><path d="M4.21 0C1.89 0 0 1.87 0 4.19v15.6C0 22.11 1.87 24 4.19 24h15.6c2.32 0 4.21-1.87 4.21-4.19V18.7c-.14.01-.28.02-.42.02-2.58 0-4.03-2.15-4.09-4.83 0-.24 0-.47.02-.71.09-1.19.48-2.24 1.1-3.02.37-.47.85-.85 1.4-1.1.47-.24 1.13-.37 1.66-.37h.02c.1 0 .2 0 .3.01V4.21A4.178 4.178 0 0019.81 0H4.21zm.2 5.58h4.16l3.59 8.44 3.59-8.44h3.86v.15h-.02c-.7.16-1.06.4-1.06 1.26v10.27c.06.68.43.89 1.07 1.03h.02v.15H14.7v-.15h.02c.64-.15.99-.36 1.05-1.03V7.27l-4.74 11.15h-.26L6.15 7.57v9.45c0 .86.36 1.09 1.06 1.25h.02v.15H4.4v-.15h.02c.7-.16 1.07-.4 1.07-1.26V6.99c0-.86-.36-1.09-1.06-1.25h-.02v-.15zm19.25 3.67c-1.09.02-1.73 1.32-1.81 3.12H24V9.29c-.11-.03-.23-.05-.34-.05zm-1.86 3.63c-.1 1.76.86 3.24 2.2 3.63v-3.63h-2.2z"/></symbol><symbol id="icon-minimise" viewBox="0 0 24 24"><path d="M10 21c-.55 0-1-.45-1-1v-5H4c-.55 0-1-.45-1-1s.45-1 1-1h6c.55 0 1 .45 1 1v6c0 .55-.45 1-1 1zm10-10h-6c-.55 0-1-.45-1-1V4c0-.55.45-1 1-1s1 .45 1 1v5h5c.55 0 1 .45 1 1s-.45 1-1 1z"/><path d="M14 11c-.26 0-.51-.1-.71-.29a.996.996 0 010-1.41l7-7a.996.996 0 111.41 1.41l-7 7c-.2.2-.45.29-.71.29zM3 22c-.26 0-.51-.1-.71-.29a.996.996 0 010-1.41l7-7a.996.996 0 111.41 1.41l-7 7c-.2.2-.45.29-.71.29z"/></symbol><symbol id="icon-pause" viewBox="0 0 24 24"><path d="M10 21H6c-.55 0-1-.45-1-1V4c0-.55.45-1 1-1h4c.55 0 1 .45 1 1v16c0 .55-.45 1-1 1zm-3-2h2V5H7v14zm11 2h-4c-.55 0-1-.45-1-1V4c0-.55.45-1 1-1h4c.55 0 1 .45 1 1v16c0 .55-.45 1-1 1zm-3-2h2V5h-2v14z"/></symbol><symbol id="icon-phone" viewBox="0 0 24 24"><path d="M19.98 22.93c-.08 0-.17 0-.25-.01-3.23-.35-6.37-1.47-9.08-3.23-2.52-1.6-4.7-3.78-6.3-6.3a20.869 20.869 0 01-3.22-9.1 3 3 0 012.71-3.28c.09 0 .18-.01.27-.01h3.03c1.48 0 2.75 1.1 2.96 2.58.12.89.34 1.76.65 2.6.41 1.09.15 2.33-.68 3.16l-.72.72c1.18 1.84 2.74 3.41 4.59 4.59l.72-.72c.83-.82 2.08-1.09 3.17-.68.83.31 1.71.53 2.59.64 1.51.21 2.62 1.52 2.59 3.03v2.99a3.005 3.005 0 01-2.99 3.01h-.03zM7.13 3H4.11c-.35.03-.59.15-.77.36-.17.21-.25.46-.23.73.31 2.9 1.32 5.75 2.91 8.22 1.45 2.28 3.42 4.25 5.7 5.7 2.46 1.6 5.3 2.6 8.2 2.92.35.04.59-.1.78-.29a.99.99 0 00.29-.71V16.9a.997.997 0 00-.86-1.01c-1.02-.13-2.04-.39-3.02-.75a1.01 1.01 0 00-1.06.22l-1.27 1.27a1 1 0 01-1.2.16 17.108 17.108 0 01-6.38-6.37 1 1 0 01.16-1.2l1.27-1.27c.27-.27.36-.69.22-1.05-.37-.98-.62-2-.76-3.03-.07-.48-.49-.85-.99-.85z"/></symbol><symbol id="icon-pinterest" viewBox="0 0 24 24"><path d="M12.02 0C5.4 0 .03 5.37.03 11.99c0 5.08 3.16 9.41 7.62 11.16-.11-.95-.2-2.4.04-3.44.22-.94 1.41-5.96 1.41-5.96s-.36-.72-.36-1.78c0-1.66.97-2.91 2.17-2.91 1.02 0 1.52.77 1.52 1.69 0 1.03-.65 2.57-.99 3.99-.28 1.19.6 2.17 1.77 2.17 2.13 0 3.77-2.24 3.77-5.49 0-2.86-2.06-4.87-5.01-4.87-3.41 0-5.41 2.56-5.41 5.2 0 1.03.39 2.14.89 2.74.1.12.11.23.09.35-.09.38-.29 1.2-.33 1.36-.05.23-.17.27-.4.17-1.49-.69-2.43-2.88-2.43-4.65 0-3.78 2.75-7.25 7.92-7.25 4.16 0 7.39 2.97 7.39 6.92s-2.61 7.46-6.23 7.46c-1.21 0-2.35-.63-2.76-1.38l-.75 2.85c-.27 1.05-1 2.35-1.5 3.15 1.12.34 2.31.53 3.55.53 6.61 0 11.98-5.36 11.98-11.99C23.98 5.39 18.6.02 11.99.02l.03-.03z"/></symbol><symbol id="icon-play" viewBox="0 0 24 24"><path d="M5 22c-.16 0-.33-.04-.48-.12C4.2 21.7 4 21.37 4 21V3c0-.37.2-.7.52-.88.32-.18.71-.16 1.02.04l14 9c.29.18.46.5.46.84s-.17.66-.46.84l-14 9c-.16.11-.35.16-.54.16zM6 4.83v14.34L17.15 12 6 4.83z"/></symbol><symbol id="icon-search" viewBox="0 0 24 24"><path d="M11 20c-2.31 0-4.61-.88-6.36-2.63-3.51-3.51-3.51-9.22 0-12.73C6.34 2.94 8.6 2 11 2s4.66.94 6.36 2.64c3.51 3.51 3.51 9.22 0 12.73A8.98 8.98 0 0111 20zm0-16c-1.87 0-3.63.73-4.95 2.05a7.007 7.007 0 000 9.9 7.007 7.007 0 009.9 0 7.007 7.007 0 000-9.9A6.96 6.96 0 0011 4z"/><path d="M21 22c-.26 0-.51-.1-.71-.29l-4.35-4.35a.996.996 0 111.41-1.41l4.35 4.35a.996.996 0 01-.71 1.7z"/></symbol><symbol id="icon-send" viewBox="0 0 24 24"><path d="M11 14c-.26 0-.51-.1-.71-.29a.996.996 0 010-1.41l11-11.01A.996.996 0 1122.7 2.7l-11 11c-.2.2-.45.29-.71.29z"/><path d="M15 23c-.39 0-.75-.23-.91-.59l-3.84-8.65-8.66-3.85a.996.996 0 01.08-1.85l20-7c.36-.13.77-.04 1.04.24.27.27.36.67.24 1.04l-7 20c-.14.39-.49.65-.9.67h-.04zM4.71 9.11l6.7 2.98c.23.1.41.28.51.51l2.98 6.7 5.48-15.66L4.72 9.12z"/></symbol><symbol id="icon-settings" viewBox="0 0 24 24"><path d="M12 16c-1.07 0-2.07-.42-2.83-1.17C8.41 14.08 8 13.07 8 12s.42-2.07 1.17-2.83c1.51-1.51 4.15-1.51 5.66 0C15.59 9.93 16 10.93 16 12s-.42 2.07-1.17 2.83C14.08 15.59 13.07 16 12 16zm0-6c-.53 0-1.04.21-1.41.59-.78.78-.78 2.05 0 2.83s2.07.76 2.83 0a1.983 1.983 0 000-2.82c-.38-.38-.88-.59-1.41-.59z"/><path d="M12.08 24c-1.65 0-3-1.35-3-3 0-.33-.17-.57-.42-.66-.3-.13-.59-.08-.78.11-1.22 1.22-3.12 1.22-4.29.05-.57-.57-.88-1.32-.88-2.12s.31-1.55.88-2.12c.24-.25.29-.53.18-.77a.65.65 0 00-.6-.4H3c-1.65 0-3-1.35-3-3s1.35-3 3-3c.33 0 .57-.17.66-.43.13-.3.08-.58-.11-.77C2.33 6.67 2.33 4.77 3.5 3.6c.57-.57 1.32-.88 2.12-.88s1.55.31 2.12.88c.25.24.53.29.77.18.06-.03.13-.05.2-.06.18-.12.28-.32.29-.54v-.17c0-1.65 1.35-3 3-3s3 1.35 3 3c0 .35.16.58.39.68.25.11.54.06.73-.13.62-.62 1.37-.93 2.17-.93a3 3 0 012.12 5.12c-.24.25-.29.53-.18.77.03.06.05.13.06.2.12.18.32.28.54.28H21c1.65 0 3 1.35 3 3s-1.35 3-3 3c-.34 0-.58.16-.68.39v.01c-.11.24-.06.53.13.72 1.22 1.22 1.22 3.12.05 4.29-.57.57-1.32.88-2.12.88s-1.55-.31-2.12-.88c-.25-.24-.53-.29-.77-.18a.65.65 0 00-.4.6V21c0 1.65-1.35 3-3 3zm-3.73-5.74c.36 0 .72.07 1.06.22.97.35 1.65 1.31 1.68 2.4v.11c0 .55.45 1 1 1s1-.45 1-1v-.17c0-1.06.64-2.01 1.61-2.43.98-.44 2.13-.23 2.91.53.26.26.51.36.78.36a.99.99 0 001-1c0-.27-.1-.52-.29-.71-.83-.85-1.04-1.99-.6-2.99.42-.97 1.37-1.6 2.42-1.6.65 0 1.09-.45 1.09-1s-.45-1-1-1h-.17a2.64 2.64 0 01-2.43-1.61.771.771 0 01-.07-.26c-.33-.95-.11-2 .61-2.73.46-.46.46-1.09.07-1.48a.99.99 0 00-.71-.29c-.27 0-.52.1-.71.29-.85.83-2 1.04-2.99.6a2.653 2.653 0 01-1.6-2.42c0-.65-.45-1.09-1-1.09s-1 .45-1 1v.17c0 1.06-.63 2.01-1.61 2.43-.08.04-.17.06-.26.07-.95.33-2 .11-2.73-.61-.46-.46-1.09-.46-1.48-.07-.39.39-.39 1.03 0 1.42.83.85 1.04 1.99.6 2.99-.35.97-1.31 1.65-2.4 1.68h-.11c-.55 0-1 .45-1 1s.45 1 1 1h.17c1.06 0 2.01.63 2.43 1.61.44.99.23 2.14-.53 2.91-.26.26-.36.51-.36.78s.1.52.29.71c.39.39 1.03.39 1.42 0 .56-.55 1.25-.82 1.93-.82zM19.4 15z"/></symbol><symbol id="icon-share" viewBox="0 0 24 24"><path d="M18 9c-1.07 0-2.07-.42-2.83-1.17C14.41 7.07 14 6.07 14 5s.42-2.07 1.17-2.83C15.92 1.41 16.93 1 18 1s2.07.42 2.83 1.17C21.59 2.93 22 3.93 22 5s-.42 2.07-1.17 2.83C20.08 8.59 19.07 9 18 9zm0-6c-.53 0-1.04.21-1.41.59S16 4.47 16 5s.21 1.04.59 1.41c.76.76 2.07.76 2.83 0a1.983 1.983 0 000-2.82c-.38-.38-.88-.59-1.41-.59zM6 16c-1.07 0-2.07-.42-2.83-1.17C2.41 14.08 2 13.07 2 12s.42-2.07 1.17-2.83c1.51-1.51 4.15-1.51 5.66 0C9.59 9.93 10 10.93 10 12s-.42 2.07-1.17 2.83C8.07 15.59 7.07 16 6 16zm0-6c-.53 0-1.04.21-1.41.59S4 11.47 4 12s.21 1.04.59 1.41c.76.76 2.07.76 2.83 0a1.983 1.983 0 000-2.82c-.38-.38-.88-.59-1.41-.59zm12 13c-1.07 0-2.07-.42-2.83-1.17C14.41 21.08 14 20.07 14 19s.42-2.07 1.17-2.83c1.51-1.51 4.15-1.51 5.66 0 .76.75 1.17 1.76 1.17 2.83s-.42 2.07-1.17 2.83C20.08 22.59 19.07 23 18 23zm0-6c-.53 0-1.04.21-1.41.59S16 18.47 16 19s.21 1.04.59 1.41c.76.76 2.07.76 2.83 0a1.983 1.983 0 000-2.82c-.38-.38-.88-.59-1.41-.59z"/><path d="M15.42 18.49c-.17 0-.34-.04-.5-.14l-6.83-3.98A.998.998 0 017.73 13c.28-.48.89-.64 1.37-.36l6.83 3.98c.48.28.64.89.36 1.37-.19.32-.52.5-.87.5zm-6.83-7a.99.99 0 01-.86-.5.998.998 0 01.36-1.37l6.82-3.98a.998.998 0 011.37.36c.28.48.12 1.09-.36 1.37L9.1 11.35c-.16.09-.33.14-.5.14z"/></symbol><symbol id="icon-slack" viewBox="0 0 24 24"><path d="M5.04 15.16c0 1.39-1.13 2.52-2.52 2.52-1.39 0-2.52-1.13-2.52-2.52 0-1.39 1.13-2.52 2.52-2.52h2.52v2.52zm1.27 0c0-1.39 1.13-2.52 2.52-2.52 1.39 0 2.52 1.13 2.52 2.52v6.31c0 1.39-1.13 2.52-2.52 2.52-1.39 0-2.52-1.13-2.52-2.52v-6.31zM8.83 5.04c-1.39 0-2.52-1.13-2.52-2.52C6.31 1.13 7.44 0 8.83 0c1.39 0 2.52 1.13 2.52 2.52v2.52H8.83zm0 1.27c1.39 0 2.52 1.13 2.52 2.52 0 1.39-1.13 2.52-2.52 2.52H2.52C1.13 11.35 0 10.22 0 8.83c0-1.39 1.13-2.52 2.52-2.52h6.31zm10.13 2.52c0-1.39 1.13-2.52 2.52-2.52 1.39 0 2.52 1.13 2.52 2.52 0 1.39-1.13 2.52-2.52 2.52h-2.52V8.83zm-1.27 0c0 1.39-1.13 2.52-2.52 2.52-1.39 0-2.52-1.13-2.52-2.52V2.52c0-1.39 1.13-2.52 2.52-2.52 1.39 0 2.52 1.13 2.52 2.52v6.31zm-2.53 10.13c1.39 0 2.52 1.13 2.52 2.52 0 1.39-1.13 2.52-2.52 2.52-1.39 0-2.52-1.13-2.52-2.52v-2.52h2.52zm0-1.27c-1.39 0-2.52-1.13-2.52-2.52 0-1.39 1.13-2.52 2.52-2.52h6.31c1.39 0 2.52 1.13 2.52 2.52 0 1.39-1.13 2.52-2.52 2.52h-6.31z"/></symbol><symbol id="icon-snapchat" viewBox="0 0 24 24"><path d="M12.21.79c.99 0 4.35.28 5.93 3.82.53 1.19.4 3.22.3 4.85v.06l-.03.51c.08.05.2.09.4.09.3-.02.66-.12 1.03-.3.17-.09.34-.1.46-.1.18 0 .36.03.51.09.45.15.73.48.73.84.01.45-.39.84-1.21 1.17-.09.03-.21.07-.34.12-.45.14-1.14.36-1.33.81-.09.22-.06.52.12.87v.02c.07.14 1.54 3.47 4.81 4.01.25.04.43.27.42.51 0 .08-.01.15-.05.23-.24.57-1.27.99-3.15 1.27-.06.09-.12.38-.16.57-.03.18-.07.36-.13.55-.08.27-.27.41-.56.41h-.03c-.14 0-.31-.03-.54-.07a5.65 5.65 0 00-1.27-.14c-.3 0-.6.01-.91.07-.6.1-1.12.46-1.72.88-.85.6-1.83 1.29-3.29 1.29-.06 0-.12-.01-.18-.01h-.15c-1.47 0-2.43-.67-3.28-1.29-.6-.42-1.11-.78-1.71-.88-.31-.05-.63-.07-.93-.07-.54 0-.96.09-1.27.15-.21.04-.39.07-.54.07-.37 0-.52-.22-.58-.42-.06-.19-.09-.39-.13-.57-.05-.18-.11-.49-.17-.57-1.92-.22-2.95-.64-3.19-1.23a.556.556 0 01-.05-.23c-.01-.24.17-.47.42-.51 3.26-.54 4.73-3.88 4.79-4.02l.02-.03c.18-.35.22-.64.12-.87-.2-.43-.88-.66-1.33-.81-.12-.03-.24-.07-.35-.12-1.11-.44-1.26-.93-1.2-1.27.09-.48.67-.79 1.17-.79.15 0 .27.03.38.07.42.19.79.3 1.1.3.23 0 .38-.06.47-.1l-.05-.57c-.1-1.63-.22-3.65.31-4.84 1.52-3.53 4.87-3.8 5.86-3.8h.42l.06-.01z"/></symbol><symbol id="icon-telegram" viewBox="0 0 24 24"><path d="M11.94 0C5.34.03 0 5.39 0 12c0 6.63 5.37 12 12 12s12-5.37 12-12S18.63 0 12 0h-.06zm4.97 7.22c.1 0 .32.02.47.14.1.08.16.2.17.32.02.09.04.31.02.47-.18 1.9-.96 6.5-1.36 8.63-.17.9-.5 1.2-.82 1.23-.7.07-1.23-.46-1.9-.9-1.06-.69-1.65-1.12-2.68-1.8-1.18-.78-.42-1.21.26-1.91.18-.18 3.25-2.98 3.31-3.23 0-.03.01-.15-.06-.21s-.17-.04-.25-.02c-.11.02-1.79 1.14-5.06 3.35-.48.33-.91.49-1.3.48-.43 0-1.25-.24-1.86-.44-.75-.24-1.35-.37-1.3-.79.03-.22.32-.44.89-.66 3.5-1.52 5.83-2.53 7-3.01 3.33-1.39 4.02-1.63 4.48-1.63z"/></symbol><symbol id="icon-threads" viewBox="0 0 24 24"><path d="M12.19 24c-3.58-.02-6.33-1.2-8.18-3.51-1.64-2.05-2.49-4.9-2.52-8.48v-.02c.03-3.58.88-6.43 2.53-8.48C5.84 1.21 8.6.02 12.18 0h.01c2.75.02 5.04.73 6.83 2.1 1.68 1.29 2.86 3.13 3.51 5.47l-2.04.57c-1.1-3.96-3.9-5.98-8.3-6.01-2.91.02-5.11.94-6.54 2.72-1.34 1.67-2.03 4.08-2.06 7.16.03 3.09.72 5.5 2.06 7.16 1.43 1.78 3.63 2.7 6.54 2.72 2.62-.02 4.36-.63 5.8-2.05 1.65-1.61 1.62-3.59 1.09-4.8-.31-.71-.87-1.3-1.63-1.75-.19 1.35-.62 2.45-1.28 3.27-.89 1.1-2.14 1.7-3.73 1.79-1.2.07-2.36-.22-3.26-.8-1.06-.69-1.68-1.74-1.75-2.96-.07-1.19.41-2.28 1.33-3.08.88-.76 2.12-1.21 3.58-1.29 1.01-.06 2.02-.02 3.02.14-.13-.74-.38-1.33-.75-1.76-.51-.59-1.31-.88-2.36-.89h-.03c-.84 0-1.99.23-2.72 1.32L7.74 7.85c.98-1.45 2.57-2.26 4.48-2.26h.04c3.19.02 5.1 1.97 5.29 5.39.11.05.22.09.32.14 1.49.7 2.58 1.76 3.15 3.07.8 1.82.87 4.79-1.55 7.16-1.85 1.81-4.09 2.63-7.28 2.65zm1-11.69c-.24 0-.49 0-.74.02-1.84.1-2.98.95-2.92 2.14.07 1.26 1.45 1.84 2.78 1.77 1.22-.07 2.82-.54 3.09-3.71-.73-.15-1.47-.23-2.22-.22z"/></symbol><symbol id="icon-tiktok" viewBox="0 0 24 24"><path d="M12.52.02c1.31-.02 2.61 0 3.91-.02.08 1.53.63 3.09 1.75 4.17 1.12 1.11 2.7 1.62 4.24 1.79v4.03c-1.44-.05-2.89-.35-4.2-.97-.57-.26-1.1-.59-1.62-.93-.01 2.92.01 5.84-.02 8.75-.08 1.4-.54 2.79-1.35 3.94-1.31 1.92-3.58 3.17-5.91 3.21-1.43.08-2.86-.31-4.08-1.03-2.02-1.19-3.44-3.37-3.65-5.71-.02-.5-.03-1 0-1.49.18-1.9 1.12-3.72 2.58-4.96 1.66-1.44 3.98-2.13 6.15-1.72.02 1.48-.04 2.96-.04 4.44-.99-.32-2.15-.23-3.02.37-.63.41-1.11 1.04-1.36 1.75-.21.51-.15 1.07-.14 1.61.24 1.64 1.82 3.02 3.5 2.87 1.12-.01 2.19-.66 2.77-1.61.19-.33.4-.67.41-1.06.1-1.79.06-3.57.07-5.36.01-4.03-.01-8.05.02-12.07z"/></symbol><symbol id="icon-tumblr" viewBox="0 0 24 24"><path d="M14.56 24c-5.09 0-7.03-3.76-7.03-6.41V9.75H5.11v-3.1C8.74 5.34 9.62 2.05 9.82.18c.01-.13.11-.18.17-.18h3.52v6.11h4.8v3.63h-4.82v7.47c.02 1 .38 2.37 2.21 2.37h.09c.63-.02 1.49-.2 1.94-.42l1.16 3.42c-.44.64-2.4 1.37-4.16 1.4h-.18.01z"/></symbol><symbol id="icon-twitch" viewBox="0 0 24 24"><path d="M11.57 4.71h1.72v5.14h-1.72V4.71zm4.72 0H18v5.14h-1.71V4.71zM6 0L1.71 4.29v15.43h5.14v4.29l4.29-4.29h3.43l7.72-7.71V0H6zm14.57 11.14l-3.43 3.43h-3.43l-3 3v-3H6.85V1.71h13.71v9.43z"/></symbol><symbol id="icon-twitter" viewBox="0 0 24 24"><path d="M18.9 1.15h3.68l-8.04 9.19L24 22.84h-7.41l-5.8-7.58-6.64 7.58H.47l8.6-9.83L0 1.15h7.59l5.24 6.93 6.06-6.93zm-1.29 19.49h2.04L6.49 3.24H4.3l13.31 17.4z"/></symbol><symbol id="icon-unlock" viewBox="0 0 24 24"><path d="M19 23H5c-1.65 0-3-1.35-3-3v-7c0-1.65 1.35-3 3-3h14c1.65 0 3 1.35 3 3v7c0 1.65-1.35 3-3 3zM5 12c-.55 0-1 .45-1 1v7c0 .55.45 1 1 1h14c.55 0 1-.45 1-1v-7c0-.55-.45-1-1-1H5z"/><path d="M7 12c-.55 0-1-.45-1-1V7c0-1.6.62-3.11 1.75-4.24A5.97 5.97 0 0111.99 1c2.84 0 5.31 2.02 5.88 4.81.11.54-.24 1.07-.78 1.18-.54.11-1.07-.24-1.18-.78a4.012 4.012 0 00-3.92-3.2c-1.07 0-2.07.42-2.83 1.17-.75.76-1.17 1.76-1.17 2.83v4c0 .55-.45 1-1 1z"/></symbol><symbol id="icon-user-minus" viewBox="0 0 24 24"><path d="M16 22c-.55 0-1-.45-1-1v-2c0-1.65-1.35-3-3-3H5c-1.65 0-3 1.35-3 3v2c0 .55-.45 1-1 1s-1-.45-1-1v-2c0-2.76 2.24-5 5-5h7c2.76 0 5 2.24 5 5v2c0 .55-.45 1-1 1zM8.5 12c-1.28 0-2.56-.49-3.54-1.46a5.003 5.003 0 010-7.07 5.003 5.003 0 017.07 0 5.003 5.003 0 010 7.07c-.97.97-2.26 1.46-3.54 1.46zm0-8c-.77 0-1.54.29-2.12.88a3 3 0 000 4.24 3 3 0 004.24 0A3 3 0 008.5 4zM23 12h-6c-.55 0-1-.45-1-1s.45-1 1-1h6c.55 0 1 .45 1 1s-.45 1-1 1z"/></symbol><symbol id="icon-user-plus" viewBox="0 0 24 24"><path d="M16 22c-.55 0-1-.45-1-1v-2c0-1.65-1.35-3-3-3H5c-1.65 0-3 1.35-3 3v2c0 .55-.45 1-1 1s-1-.45-1-1v-2c0-2.76 2.24-5 5-5h7c2.76 0 5 2.24 5 5v2c0 .55-.45 1-1 1zM8.5 12c-1.28 0-2.56-.49-3.54-1.46a5.003 5.003 0 010-7.07 5.003 5.003 0 017.07 0 5.003 5.003 0 010 7.07c-.97.97-2.26 1.46-3.54 1.46zm0-8c-.77 0-1.54.29-2.12.88a3 3 0 000 4.24 3 3 0 004.24 0A3 3 0 008.5 4zM20 15c-.55 0-1-.45-1-1V8c0-.55.45-1 1-1s1 .45 1 1v6c0 .55-.45 1-1 1z"/><path d="M23 12h-6c-.55 0-1-.45-1-1s.45-1 1-1h6c.55 0 1 .45 1 1s-.45 1-1 1z"/></symbol><symbol id="icon-user" viewBox="0 0 24 24"><path d="M20 22c-.55 0-1-.45-1-1v-2c0-1.65-1.35-3-3-3H8c-1.65 0-3 1.35-3 3v2c0 .55-.45 1-1 1s-1-.45-1-1v-2c0-2.76 2.24-5 5-5h8c2.76 0 5 2.24 5 5v2c0 .55-.45 1-1 1zm-8-10c-1.34 0-2.59-.52-3.54-1.46a5.003 5.003 0 010-7.07c.94-.94 2.2-1.46 3.54-1.46s2.59.52 3.54 1.46c.94.94 1.46 2.2 1.46 3.54s-.52 2.59-1.46 3.54-2.2 1.46-3.54 1.46zm0-8a3 3 0 00-2.12 5.12c1.13 1.13 3.11 1.13 4.24 0s1.17-3.07 0-4.24C13.55 4.31 12.8 4 12 4z"/></symbol><symbol id="icon-users" viewBox="0 0 24 24"><path d="M17 22c-.55 0-1-.45-1-1v-2c0-1.65-1.35-3-3-3H5c-1.65 0-3 1.35-3 3v2c0 .55-.45 1-1 1s-1-.45-1-1v-2c0-2.76 2.24-5 5-5h8c2.76 0 5 2.24 5 5v2c0 .55-.45 1-1 1zM9 12c-1.28 0-2.56-.49-3.54-1.46a5.003 5.003 0 010-7.07 5.003 5.003 0 017.07 0 5.003 5.003 0 010 7.07c-.97.97-2.26 1.46-3.54 1.46zm0-8c-.77 0-1.54.29-2.12.88a3 3 0 000 4.24 3 3 0 004.24 0A3 3 0 009 4zm14 18c-.55 0-1-.45-1-1v-2c0-1.37-.93-2.56-2.25-2.9a.996.996 0 01-.72-1.22c.14-.54.68-.86 1.22-.72C22.46 14.73 24 16.72 24 19v2c0 .55-.45 1-1 1zm-7-10.12c-.45 0-.85-.3-.97-.75-.14-.54.19-1.08.72-1.22 1.06-.27 1.89-1.1 2.16-2.16.41-1.6-.56-3.24-2.16-3.65a.996.996 0 01-.72-1.22c.14-.53.68-.86 1.22-.72 2.67.68 4.29 3.41 3.6 6.08a4.978 4.978 0 01-3.6 3.6c-.08.02-.17.03-.25.03z"/></symbol><symbol id="icon-vimeo" viewBox="0 0 24 24"><path d="M23.98 6.42c-.1 2.34-1.74 5.54-4.89 9.61-3.27 4.25-6.03 6.37-8.29 6.37-1.41 0-2.58-1.29-3.55-3.88l-1.92-7.11c-.72-2.58-1.49-3.88-2.31-3.88-.18 0-.81.38-1.88 1.13L0 7.2c1.17-1.03 2.34-2.08 3.5-3.13C5.08 2.7 6.26 1.98 7.05 1.91c1.87-.18 3.02 1.1 3.45 3.84.47 2.95.79 4.79.97 5.51.54 2.45 1.13 3.67 1.78 3.67.5 0 1.26-.8 2.27-2.39 1-1.59 1.54-2.8 1.61-3.63.14-1.37-.4-2.06-1.61-2.06-.57 0-1.17.12-1.78.39 1.19-3.87 3.43-5.76 6.76-5.64 2.47.06 3.63 1.66 3.49 4.8h-.01z"/></symbol><symbol id="icon-whatsapp" viewBox="0 0 24 24"><path d="M17.47 14.38c-.3-.15-1.76-.87-2.03-.97-.27-.1-.47-.15-.67.15-.2.3-.77.97-.94 1.16-.17.2-.35.22-.64.07-.3-.15-1.26-.46-2.39-1.48-.88-.79-1.48-1.76-1.65-2.06-.17-.3-.02-.46.13-.61.13-.13.3-.35.45-.52.15-.17.2-.3.3-.5.1-.2.05-.37-.02-.52s-.67-1.61-.92-2.21c-.24-.58-.49-.5-.67-.51-.17 0-.37-.01-.57-.01s-.52.07-.79.37-1.04 1.02-1.04 2.48 1.07 2.88 1.21 3.07c.15.2 2.1 3.2 5.08 4.49.71.31 1.26.49 1.69.62.71.23 1.36.19 1.87.12.57-.08 1.76-.72 2.01-1.41.25-.69.25-1.29.17-1.41-.07-.12-.27-.2-.57-.35m-5.43 7.43c-1.77 0-3.51-.48-5.03-1.38l-.36-.21-3.74.98 1-3.65-.23-.37a9.896 9.896 0 01-1.51-5.26c0-5.45 4.44-9.88 9.89-9.88 2.64 0 5.12 1.03 6.99 2.9a9.81 9.81 0 012.89 6.99c0 5.45-4.44 9.88-9.89 9.88m8.4-18.29A11.832 11.832 0 0012.05 0C5.49 0 .16 5.34.16 11.89c0 2.1.55 4.14 1.59 5.94L.06 24l6.3-1.65c1.74.95 3.7 1.45 5.68 1.45 6.55 0 11.89-5.34 11.89-11.89 0-3.16-1.24-6.19-3.48-8.41z"/></symbol><symbol id="icon-wikipedia" viewBox="0 0 24 24"><path d="M12.09 13.12c-.94 1.93-2.22 4.55-2.85 5.73-.62 1.07-1.13.93-1.53.03C6.3 15.56 3.42 9.74 2.06 6.47c-.25-.6-.44-.99-.62-1.14-.18-.15-.55-.24-1.12-.27-.21-.02-.31-.07-.31-.16v-.45l.05-.05h5.4l.05.05v.43c0 .12-.07.18-.22.18l-.56.03c-.49.03-.73.16-.73.44 0 .14.05.33.17.6 1.08 2.65 4.82 10.52 4.82 10.52l.14.05 2.41-4.81-.48-1.07L9.4 7.56s-.32-.65-.43-.87c-.73-1.44-.71-1.52-1.45-1.62-.21-.02-.31-.05-.31-.15v-.47l.06-.05h4.29l.11.04v.45c0 .11-.08.15-.23.15l-.31.05c-.79.06-.66.38-.14 1.42l1.58 3.25 1.76-3.5c.29-.64.23-.8.11-.95-.07-.08-.31-.22-.81-.24l-.2-.02c-.05 0-.1-.01-.15-.05a.146.146 0 01-.07-.13v-.43l.06-.05h4.04l.06.05v.44c0 .12-.06.18-.19.18-.65.03-.78.09-1.02.44-.12.19-.38.59-.65 1.04l-2.3 4.27-.06.14 2.79 5.71.17.05 4.4-10.44c.15-.42.13-.72-.06-.89-.2-.17-.35-.27-.86-.3l-.42-.02a.21.21 0 01-.15-.05c-.04-.03-.07-.07-.07-.12v-.44l.06-.05h4.96l.04.05v.44c0 .12-.07.18-.21.18-.65.03-1.13.18-1.44.42-.31.26-.56.62-.74 1.07 0 0-4.04 9.26-5.43 12.34-.52 1.01-1.05.92-1.5-.03-.57-1.17-1.77-3.79-2.65-5.71l.05-.04z"/></symbol><symbol id="icon-x" viewBox="0 0 24 24"><path d="M18.9 1.15h3.68l-8.04 9.19L24 22.84h-7.41l-5.8-7.58-6.64 7.58H.47l8.6-9.83L0 1.15h7.59l5.24 6.93 6.06-6.93zm-1.29 19.49h2.04L6.49 3.24H4.3l13.31 17.4z"/></symbol><symbol id="icon-youtube" viewBox="0 0 24 24"><path d="M23.5 6.19a3.033 3.033 0 00-2.12-2.14C19.51 3.54 12 3.54 12 3.54s-7.51 0-9.38.51C1.58 4.33.77 5.15.5 6.19 0 8.07 0 12 0 12s0 3.93.5 5.81a3.033 3.033 0 002.12 2.14c1.87.5 9.38.5 9.38.5s7.51 0 9.38-.5c1.04-.28 1.85-1.1 2.12-2.14.5-1.88.5-5.81.5-5.81s0-3.93-.5-5.81zM9.55 15.57V8.43L15.82 12l-6.27 3.57z"/></symbol><symbol id="icon-zoom-in" viewBox="0 0 24 24"><path d="M16.657 5.343A8 8 0 115.343 16.657 8 8 0 0116.657 5.343M21 21l-4.35-4.35M11 8v6m-3-3h6" stroke-linecap="round" stroke-width="2" stroke="#000" fill="none" stroke-linejoin="round"/></symbol><symbol id="icon-zoom-out" viewBox="0 0 24 24"><path d="M11 20c-2.31 0-4.61-.88-6.36-2.63-3.51-3.51-3.51-9.22 0-12.73C6.34 2.94 8.6 2 11 2s4.66.94 6.36 2.64c3.51 3.51 3.51 9.22 0 12.73A8.98 8.98 0 0111 20zm0-16c-1.87 0-3.63.73-4.95 2.05a7.007 7.007 0 000 9.9 7.007 7.007 0 009.9 0 7.007 7.007 0 000-9.9A6.96 6.96 0 0011 4z"/><path d="M21 22c-.26 0-.51-.1-.71-.29l-4.35-4.35a.996.996 0 111.41-1.41l4.35 4.35a.996.996 0 01-.71 1.7zm-7-10H8c-.55 0-1-.45-1-1s.45-1 1-1h6c.55 0 1 .45 1 1s-.45 1-1 1z"/></symbol></svg>