<svg xmlns="http://www.w3.org/2000/svg" viewBox="0 0 24 24"><path d="M12 23c-2.94 0-5.7-1.14-7.78-3.22-4.29-4.29-4.29-11.27 0-15.56 4.29-4.29 11.27-4.29 15.56 0 4.29 4.29 4.29 11.27 0 15.56A10.922 10.922 0 0112 23zm0-20c-2.3 0-4.61.88-6.36 2.63-3.51 3.51-3.51 9.22 0 12.73C7.34 20.06 9.6 21 12 21s4.66-.94 6.36-2.64c3.51-3.51 3.51-9.22 0-12.73A8.98 8.98 0 0012 3z"/><path d="M12 17c-.55 0-1-.45-1-1v-4c0-.55.45-1 1-1s1 .45 1 1v4c0 .55-.45 1-1 1zm0-8c-.06 0-.13-.01-.19-.02a.603.603 0 01-.19-.06.556.556 0 01-.17-.09c-.06-.03-.11-.08-.16-.12-.09-.1-.16-.2-.21-.33-.05-.12-.08-.25-.08-.38s.03-.26.08-.38.12-.23.21-.33c.05-.04.1-.08.16-.12.05-.04.11-.07.17-.09.06-.03.12-.05.19-.06.32-.06.67.04.9.27.09.1.16.21.21.33.06.12.08.25.08.38s-.02.26-.08.38c-.05.13-.12.23-.21.33-.19.18-.45.29-.71.29z"/></svg>