<svg xmlns="http://www.w3.org/2000/svg" viewBox="0 0 24 24"><path d="M7.03.08C5.75.14 4.88.34 4.12.64 3.33.95 2.66 1.36 2 2.03A5.78 5.78 0 00.62 4.16c-.3.76-.5 1.64-.55 2.91C0 8.35 0 8.76 0 12.02c0 3.26.02 3.67.08 4.95.06 1.28.26 2.15.56 2.91.31.79.72 1.46 1.39 2.12.67.67 1.34 1.07 2.13 1.38.76.3 1.64.5 2.91.55 1.28.06 1.69.07 4.95.06 3.26 0 3.67-.02 4.95-.08 1.28-.06 2.15-.27 2.91-.56A5.82 5.82 0 0022 21.96c.67-.67 1.07-1.34 1.38-2.13.3-.76.5-1.64.55-2.91.06-1.28.07-1.69.06-4.95 0-3.26-.02-3.67-.08-4.95s-.26-2.15-.56-2.91a5.82 5.82 0 00-1.39-2.12A5.78 5.78 0 0019.83.61c-.76-.3-1.64-.5-2.91-.55C15.65 0 15.24 0 11.98 0 8.72 0 8.31.02 7.03.08m.14 21.7c-1.17-.05-1.81-.25-2.23-.41-.56-.22-.96-.48-1.38-.9-.42-.42-.68-.82-.9-1.38-.16-.42-.36-1.06-.42-2.23-.06-1.26-.07-1.64-.08-4.85 0-3.2 0-3.58.06-4.85.05-1.17.25-1.8.41-2.23.22-.56.48-.96.89-1.38.42-.42.82-.68 1.38-.9.42-.17 1.06-.36 2.23-.42 1.27-.06 1.64-.07 4.85-.08s3.58 0 4.85.06c1.17.05 1.81.24 2.23.41.56.22.96.48 1.38.89.42.42.68.82.9 1.38.17.42.36 1.06.42 2.23.06 1.27.07 1.64.08 4.85 0 3.2 0 3.58-.06 4.85-.05 1.17-.25 1.81-.41 2.23-.22.56-.48.96-.9 1.38-.42.42-.82.68-1.38.9-.42.16-1.06.36-2.23.42-1.27.06-1.64.07-4.85.08s-3.58 0-4.85-.06m9.79-16.18a1.44 1.44 0 101.44-1.44c-.8 0-1.44.65-1.44 1.44M5.84 12.01c0 3.4 2.77 6.16 6.17 6.15 3.4 0 6.16-2.77 6.15-6.17 0-3.4-2.77-6.16-6.17-6.15s-6.16 2.77-6.15 6.17m2.16 0c0-2.21 1.78-4 3.99-4.01 2.21 0 4 1.78 4.01 3.99 0 2.21-1.78 4-3.99 4.01-2.21 0-4-1.78-4.01-3.99"/></svg>