<svg xmlns="http://www.w3.org/2000/svg" viewBox="0 0 24 24"><path d="M12 14c-.53 0-1.04-.21-1.41-.59-.78-.78-.78-2.05 0-2.83s2.07-.76 2.83 0c.78.78.78 2.05 0 2.83-.38.38-.88.59-1.41.59zm0-2zm0 0zm0 0zm0 0h.01H12zm0 0zm0 0zm0 0zm0 0zm0 0zm0-5c-.53 0-1.04-.21-1.41-.59-.78-.78-.78-2.05 0-2.83s2.07-.76 2.83 0c.78.78.78 2.05 0 2.83-.38.38-.88.59-1.41.59zm0-2zm0 0zm0 0zm0 0h.01H12zm0 0zm0 0zm0 0zm0 0zm0 0zm0 16c-.53 0-1.04-.21-1.41-.59-.78-.78-.78-2.05 0-2.83.76-.76 2.07-.76 2.83 0 .78.78.78 2.05 0 2.83-.38.38-.88.59-1.41.59zm0-2zm0 0zm0 0zm0 0h.01H12zm0 0zm0 0zm0 0zm0 0zm0 0z"/></svg>