<svg xmlns="http://www.w3.org/2000/svg" viewBox="0 0 24 24"><path d="M14.01 16c-1.83 0-3.64-.83-4.81-2.4-.33-.44-.24-1.07.2-1.4.44-.33 1.07-.24 1.4.2a4.003 4.003 0 005.6.81c.15-.12.3-.24.43-.38l3-3c1.52-1.57 1.48-4.11-.11-5.64-1.56-1.5-4-1.5-5.56 0l-1.71 1.7a.996.996 0 11-1.41-1.41l1.72-1.71a5.98 5.98 0 018.35-.01 5.975 5.975 0 011.83 4.21c.03 1.6-.57 3.12-1.68 4.27l-3.01 3.01A5.988 5.988 0 0114.02 16z"/><path d="M7.05 22.94c-1.5 0-3-.56-4.16-1.69-2.38-2.3-2.45-6.11-.15-8.48l3.01-3.01c.2-.2.42-.39.65-.56a5.945 5.945 0 014.45-1.13c1.59.23 2.99 1.06 3.95 2.34.33.44.24 1.07-.2 1.4-.44.33-1.07.24-1.4-.2a3.933 3.933 0 00-2.63-1.56c-1.06-.15-2.11.12-2.97.76-.15.11-.3.24-.43.38l-3 3c-1.52 1.57-1.48 4.11.11 5.64 1.56 1.5 4 1.5 5.56 0l1.7-1.7a.996.996 0 111.41 1.41l-1.71 1.71a5.993 5.993 0 01-4.19 1.7z"/></svg>