<svg xmlns="http://www.w3.org/2000/svg" viewBox="0 0 24 24"><path d="M12 24a.99.99 0 01-.55-.17C11.06 23.57 2 17.45 2 10 2 4.49 6.49 0 12 0s10 4.49 10 10c0 7.45-9.06 13.58-9.45 13.83-.17.11-.36.17-.55.17zm0-22c-4.41 0-8 3.59-8 8 0 5.41 6.1 10.36 8 11.77 1.9-1.41 8-6.36 8-11.77 0-4.41-3.59-8-8-8z"/><path d="M12 14c-1.07 0-2.07-.42-2.83-1.17C8.41 12.07 8 11.07 8 10s.42-2.07 1.17-2.83c1.51-1.51 4.15-1.51 5.66 0C15.59 7.93 16 8.93 16 10s-.42 2.07-1.17 2.83C14.08 13.59 13.07 14 12 14zm0-6c-.53 0-1.04.21-1.41.59-.78.78-.78 2.05 0 2.83s2.07.76 2.83 0a1.983 1.983 0 000-2.82c-.38-.38-.88-.59-1.41-.59z"/></svg>