<svg xmlns="http://www.w3.org/2000/svg" viewBox="0 0 24 24"><path d="M23.27 5.31c-.35-2.58-2.62-4.61-5.3-5C17.52.24 15.8 0 11.82 0h-.03C7.81 0 6.95.24 6.5.31 3.88.69 1.5 2.52.92 5.13.64 6.42.61 7.84.66 9.15c.07 1.87.09 3.74.26 5.61.12 1.24.33 2.47.62 3.68.55 2.24 2.78 4.1 4.96 4.86 2.34.79 4.85.92 7.26.38.27-.06.53-.13.79-.21.59-.18 1.27-.39 1.77-.75.01-.01.02-.03.02-.04v-1.81s0-.03-.02-.04c-.01-.01-.03-.01-.05-.01-1.54.37-3.12.55-4.71.55-2.73 0-3.46-1.28-3.67-1.82a5.39 5.39 0 01-.32-1.43c0-.03.02-.05.05-.06h.02c1.52.36 3.07.55 4.63.55.38 0 .75 0 1.12-.01 1.57-.04 3.22-.12 4.77-.42.04 0 .08-.01.11-.02 2.43-.46 4.75-1.92 4.99-5.6 0-.15.03-1.52.03-1.67 0-.51.17-3.63-.02-5.54zm-3.75 9.2h-2.56V8.29c0-1.31-.55-1.98-1.67-1.98-1.23 0-1.85.79-1.85 2.35v3.4h-2.55v-3.4c0-1.56-.62-2.35-1.85-2.35-1.11 0-1.67.67-1.67 1.98v6.22H4.81V8.1c0-1.31.34-2.35 1.01-3.12.7-.77 1.61-1.16 2.74-1.16 1.31 0 2.3.5 2.96 1.5l.64 1.06.64-1.06c.66-1 1.65-1.5 2.96-1.5 1.13 0 2.04.39 2.74 1.16.67.77 1.01 1.81 1.01 3.12v6.41z"/></svg>