<svg xmlns="http://www.w3.org/2000/svg" viewBox="0 0 24 24"><path d="M4.21 0C1.89 0 0 1.87 0 4.19v15.6C0 22.11 1.87 24 4.19 24h15.6c2.32 0 4.21-1.87 4.21-4.19V18.7c-.14.01-.28.02-.42.02-2.58 0-4.03-2.15-4.09-4.83 0-.24 0-.47.02-.71.09-1.19.48-2.24 1.1-3.02.37-.47.85-.85 1.4-1.1.47-.24 1.13-.37 1.66-.37h.02c.1 0 .2 0 .3.01V4.21A4.178 4.178 0 0019.81 0H4.21zm.2 5.58h4.16l3.59 8.44 3.59-8.44h3.86v.15h-.02c-.7.16-1.06.4-1.06 1.26v10.27c.06.68.43.89 1.07 1.03h.02v.15H14.7v-.15h.02c.64-.15.99-.36 1.05-1.03V7.27l-4.74 11.15h-.26L6.15 7.57v9.45c0 .86.36 1.09 1.06 1.25h.02v.15H4.4v-.15h.02c.7-.16 1.07-.4 1.07-1.26V6.99c0-.86-.36-1.09-1.06-1.25h-.02v-.15zm19.25 3.67c-1.09.02-1.73 1.32-1.81 3.12H24V9.29c-.11-.03-.23-.05-.34-.05zm-1.86 3.63c-.1 1.76.86 3.24 2.2 3.63v-3.63h-2.2z"/></svg>