<svg xmlns="http://www.w3.org/2000/svg" viewBox="0 0 24 24"><path d="M19.98 22.93c-.08 0-.17 0-.25-.01-3.23-.35-6.37-1.47-9.08-3.23-2.52-1.6-4.7-3.78-6.3-6.3a20.869 20.869 0 01-3.22-9.1 3 3 0 012.71-3.28c.09 0 .18-.01.27-.01h3.03c1.48 0 2.75 1.1 2.96 2.58.12.89.34 1.76.65 2.6.41 1.09.15 2.33-.68 3.16l-.72.72c1.18 1.84 2.74 3.41 4.59 4.59l.72-.72c.83-.82 2.08-1.09 3.17-.68.83.31 1.71.53 2.59.64 1.51.21 2.62 1.52 2.59 3.03v2.99a3.005 3.005 0 01-2.99 3.01h-.03zM7.13 3H4.11c-.35.03-.59.15-.77.36-.17.21-.25.46-.23.73.31 2.9 1.32 5.75 2.91 8.22 1.45 2.28 3.42 4.25 5.7 5.7 2.46 1.6 5.3 2.6 8.2 2.92.35.04.59-.1.78-.29a.99.99 0 00.29-.71V16.9a.997.997 0 00-.86-1.01c-1.02-.13-2.04-.39-3.02-.75a1.01 1.01 0 00-1.06.22l-1.27 1.27a1 1 0 01-1.2.16 17.108 17.108 0 01-6.38-6.37 1 1 0 01.16-1.2l1.27-1.27c.27-.27.36-.69.22-1.05-.37-.98-.62-2-.76-3.03-.07-.48-.49-.85-.99-.85z"/></svg>