<svg viewBox="0 0 24 24" xmlns="http://www.w3.org/2000/svg"><g stroke-linecap="round" stroke-width="2" stroke="#000" fill="none" stroke-linejoin="round"><path d="M14.121 9.879A3 3 0 119.88 14.12a3 3 0 014.24-4.24"/><path d="M19.4 15h0a1.65 1.65 0 00.33 1.82l.06.06h0a2 2 0 010 2.83h0a2 2 0 01-2.83 0l-.06-.06h0a1.65 1.65 0 00-1.82-.33h0a1.65 1.65 0 00-1 1.51V21a2 2 0 01-2 2h0a2 2 0 01-2-2s0 0 0 0v-.09h0A1.65 1.65 0 009 19.4h0a1.65 1.65 0 00-1.82.33l-.06.06h0a2 2 0 01-2.83 0h0a2 2 0 010-2.83l.06-.06h0a1.65 1.65 0 00.33-1.82h0a1.65 1.65 0 00-1.51-1H3h0a2 2 0 01-2-2s0 0 0 0h0a2 2 0 012-2h.09A1.65 1.65 0 004.6 9h0a1.65 1.65 0 00-.33-1.82l-.06-.06h0a2 2 0 010-2.83h0a2 2 0 012.83 0l.06.06h0a1.65 1.65 0 001.82.33H9a1.65 1.65 0 001-1.51V3h0a2 2 0 012-2h0a2 2 0 012 2v.09h0a1.65 1.65 0 001 1.51h0a1.65 1.65 0 001.82-.33l.06-.06h0a2 2 0 012.83 0h0a2 2 0 010 2.83l-.06.06h0a1.65 1.65 0 00-.33 1.82V9h0c.26.604.852.997 1.51 1H21a2 2 0 012 2v0a2 2 0 01-2 2h-.09 0a1.65 1.65 0 00-1.51 1z"/></g></svg>