<svg xmlns="http://www.w3.org/2000/svg" viewBox="0 0 24 24"><path d="M12 16c-1.07 0-2.07-.42-2.83-1.17C8.41 14.08 8 13.07 8 12s.42-2.07 1.17-2.83c1.51-1.51 4.15-1.51 5.66 0C15.59 9.93 16 10.93 16 12s-.42 2.07-1.17 2.83C14.08 15.59 13.07 16 12 16zm0-6c-.53 0-1.04.21-1.41.59-.78.78-.78 2.05 0 2.83s2.07.76 2.83 0a1.983 1.983 0 000-2.82c-.38-.38-.88-.59-1.41-.59z"/><path d="M12.08 24c-1.65 0-3-1.35-3-3 0-.33-.17-.57-.42-.66-.3-.13-.59-.08-.78.11-1.22 1.22-3.12 1.22-4.29.05-.57-.57-.88-1.32-.88-2.12s.31-1.55.88-2.12c.24-.25.29-.53.18-.77a.65.65 0 00-.6-.4H3c-1.65 0-3-1.35-3-3s1.35-3 3-3c.33 0 .57-.17.66-.43.13-.3.08-.58-.11-.77C2.33 6.67 2.33 4.77 3.5 3.6c.57-.57 1.32-.88 2.12-.88s1.55.31 2.12.88c.25.24.53.29.77.18.06-.03.13-.05.2-.06.18-.12.28-.32.29-.54v-.17c0-1.65 1.35-3 3-3s3 1.35 3 3c0 .35.16.58.39.68.25.11.54.06.73-.13.62-.62 1.37-.93 2.17-.93a3 3 0 012.12 5.12c-.24.25-.29.53-.18.77.03.06.05.13.06.2.12.18.32.28.54.28H21c1.65 0 3 1.35 3 3s-1.35 3-3 3c-.34 0-.58.16-.68.39v.01c-.11.24-.06.53.13.72 1.22 1.22 1.22 3.12.05 4.29-.57.57-1.32.88-2.12.88s-1.55-.31-2.12-.88c-.25-.24-.53-.29-.77-.18a.65.65 0 00-.4.6V21c0 1.65-1.35 3-3 3zm-3.73-5.74c.36 0 .72.07 1.06.22.97.35 1.65 1.31 1.68 2.4v.11c0 .55.45 1 1 1s1-.45 1-1v-.17c0-1.06.64-2.01 1.61-2.43.98-.44 2.13-.23 2.91.53.26.26.51.36.78.36a.99.99 0 001-1c0-.27-.1-.52-.29-.71-.83-.85-1.04-1.99-.6-2.99.42-.97 1.37-1.6 2.42-1.6.65 0 1.09-.45 1.09-1s-.45-1-1-1h-.17a2.64 2.64 0 01-2.43-1.61.771.771 0 01-.07-.26c-.33-.95-.11-2 .61-2.73.46-.46.46-1.09.07-1.48a.99.99 0 00-.71-.29c-.27 0-.52.1-.71.29-.85.83-2 1.04-2.99.6a2.653 2.653 0 01-1.6-2.42c0-.65-.45-1.09-1-1.09s-1 .45-1 1v.17c0 1.06-.63 2.01-1.61 2.43-.08.04-.17.06-.26.07-.95.33-2 .11-2.73-.61-.46-.46-1.09-.46-1.48-.07-.39.39-.39 1.03 0 1.42.83.85 1.04 1.99.6 2.99-.35.97-1.31 1.65-2.4 1.68h-.11c-.55 0-1 .45-1 1s.45 1 1 1h.17c1.06 0 2.01.63 2.43 1.61.44.99.23 2.14-.53 2.91-.26.26-.36.51-.36.78s.1.52.29.71c.39.39 1.03.39 1.42 0 .56-.55 1.25-.82 1.93-.82zM19.4 15z"/></svg>