<svg xmlns="http://www.w3.org/2000/svg" viewBox="0 0 24 24"><path d="M18 9c-1.07 0-2.07-.42-2.83-1.17C14.41 7.07 14 6.07 14 5s.42-2.07 1.17-2.83C15.92 1.41 16.93 1 18 1s2.07.42 2.83 1.17C21.59 2.93 22 3.93 22 5s-.42 2.07-1.17 2.83C20.08 8.59 19.07 9 18 9zm0-6c-.53 0-1.04.21-1.41.59S16 4.47 16 5s.21 1.04.59 1.41c.76.76 2.07.76 2.83 0a1.983 1.983 0 000-2.82c-.38-.38-.88-.59-1.41-.59zM6 16c-1.07 0-2.07-.42-2.83-1.17C2.41 14.08 2 13.07 2 12s.42-2.07 1.17-2.83c1.51-1.51 4.15-1.51 5.66 0C9.59 9.93 10 10.93 10 12s-.42 2.07-1.17 2.83C8.07 15.59 7.07 16 6 16zm0-6c-.53 0-1.04.21-1.41.59S4 11.47 4 12s.21 1.04.59 1.41c.76.76 2.07.76 2.83 0a1.983 1.983 0 000-2.82c-.38-.38-.88-.59-1.41-.59zm12 13c-1.07 0-2.07-.42-2.83-1.17C14.41 21.08 14 20.07 14 19s.42-2.07 1.17-2.83c1.51-1.51 4.15-1.51 5.66 0 .76.75 1.17 1.76 1.17 2.83s-.42 2.07-1.17 2.83C20.08 22.59 19.07 23 18 23zm0-6c-.53 0-1.04.21-1.41.59S16 18.47 16 19s.21 1.04.59 1.41c.76.76 2.07.76 2.83 0a1.983 1.983 0 000-2.82c-.38-.38-.88-.59-1.41-.59z"/><path d="M15.42 18.49c-.17 0-.34-.04-.5-.14l-6.83-3.98A.998.998 0 017.73 13c.28-.48.89-.64 1.37-.36l6.83 3.98c.48.28.64.89.36 1.37-.19.32-.52.5-.87.5zm-6.83-7a.99.99 0 01-.86-.5.998.998 0 01.36-1.37l6.82-3.98a.998.998 0 011.37.36c.28.48.12 1.09-.36 1.37L9.1 11.35c-.16.09-.33.14-.5.14z"/></svg>