<svg xmlns="http://www.w3.org/2000/svg" viewBox="0 0 24 24"><path d="M5.04 15.16c0 1.39-1.13 2.52-2.52 2.52-1.39 0-2.52-1.13-2.52-2.52 0-1.39 1.13-2.52 2.52-2.52h2.52v2.52zm1.27 0c0-1.39 1.13-2.52 2.52-2.52 1.39 0 2.52 1.13 2.52 2.52v6.31c0 1.39-1.13 2.52-2.52 2.52-1.39 0-2.52-1.13-2.52-2.52v-6.31zM8.83 5.04c-1.39 0-2.52-1.13-2.52-2.52C6.31 1.13 7.44 0 8.83 0c1.39 0 2.52 1.13 2.52 2.52v2.52H8.83zm0 1.27c1.39 0 2.52 1.13 2.52 2.52 0 1.39-1.13 2.52-2.52 2.52H2.52C1.13 11.35 0 10.22 0 8.83c0-1.39 1.13-2.52 2.52-2.52h6.31zm10.13 2.52c0-1.39 1.13-2.52 2.52-2.52 1.39 0 2.52 1.13 2.52 2.52 0 1.39-1.13 2.52-2.52 2.52h-2.52V8.83zm-1.27 0c0 1.39-1.13 2.52-2.52 2.52-1.39 0-2.52-1.13-2.52-2.52V2.52c0-1.39 1.13-2.52 2.52-2.52 1.39 0 2.52 1.13 2.52 2.52v6.31zm-2.53 10.13c1.39 0 2.52 1.13 2.52 2.52 0 1.39-1.13 2.52-2.52 2.52-1.39 0-2.52-1.13-2.52-2.52v-2.52h2.52zm0-1.27c-1.39 0-2.52-1.13-2.52-2.52 0-1.39 1.13-2.52 2.52-2.52h6.31c1.39 0 2.52 1.13 2.52 2.52 0 1.39-1.13 2.52-2.52 2.52h-6.31z"/></svg>