<svg xmlns="http://www.w3.org/2000/svg" viewBox="0 0 24 24"><path d="M12.21.79c.99 0 4.35.28 5.93 3.82.53 1.19.4 3.22.3 4.85v.06l-.03.51c.08.05.2.09.4.09.3-.02.66-.12 1.03-.3.17-.09.34-.1.46-.1.18 0 .36.03.51.09.45.15.73.48.73.84.01.45-.39.84-1.21 1.17-.09.03-.21.07-.34.12-.45.14-1.14.36-1.33.81-.09.22-.06.52.12.87v.02c.07.14 1.54 3.47 4.81 4.01.25.04.43.27.42.51 0 .08-.01.15-.05.23-.24.57-1.27.99-3.15 1.27-.06.09-.12.38-.16.57-.03.18-.07.36-.13.55-.08.27-.27.41-.56.41h-.03c-.14 0-.31-.03-.54-.07a5.65 5.65 0 00-1.27-.14c-.3 0-.6.01-.91.07-.6.1-1.12.46-1.72.88-.85.6-1.83 1.29-3.29 1.29-.06 0-.12-.01-.18-.01h-.15c-1.47 0-2.43-.67-3.28-1.29-.6-.42-1.11-.78-1.71-.88-.31-.05-.63-.07-.93-.07-.54 0-.96.09-1.27.15-.21.04-.39.07-.54.07-.37 0-.52-.22-.58-.42-.06-.19-.09-.39-.13-.57-.05-.18-.11-.49-.17-.57-1.92-.22-2.95-.64-3.19-1.23a.556.556 0 01-.05-.23c-.01-.24.17-.47.42-.51 3.26-.54 4.73-3.88 4.79-4.02l.02-.03c.18-.35.22-.64.12-.87-.2-.43-.88-.66-1.33-.81-.12-.03-.24-.07-.35-.12-1.11-.44-1.26-.93-1.2-1.27.09-.48.67-.79 1.17-.79.15 0 .27.03.38.07.42.19.79.3 1.1.3.23 0 .38-.06.47-.1l-.05-.57c-.1-1.63-.22-3.65.31-4.84 1.52-3.53 4.87-3.8 5.86-3.8h.42l.06-.01z"/></svg>