<svg xmlns="http://www.w3.org/2000/svg" viewBox="0 0 24 24"><path d="M1.1.9C1.2 1 2.9 3.5 5 6.5s3.9 5.7 4.2 6.1c.3.4.5.7.5.7s-.1.1-.2.3c-.1.1-.5.5-.8.9-.3.3-.8.9-1.1 1.3-.3.4-.9 1-1.2 1.4-.4.4-1 1.2-1.4 1.7-1.3 1.5-1.5 1.8-2.5 2.9-.5.6-1.1 1.2-1.1 1.3-.3 0-.4.1-.4.1h2L4 22c.6-.7 1.1-1.3 1.3-1.5.3-.3 2.2-2.6 2.4-2.8l.2-.2c0-.1.4-.5.9-1 .4-.5.8-.9.8-.9s.2-.3.5-.6l.5-.5s1.3 1.9 2.9 4.3c1.6 2.3 3 4.3 3 4.4l.1.1h6.6s-1.6-2.3-5.6-8.2c-2.9-4.2-3.3-4.8-3.3-4.8s.4-.5 3-3.5c.4-.5 1.1-1.2 1.4-1.6.3-.4.6-.7.7-.8.1-.1.4-.5.8-1 .4-.4 1-1.2 1.5-1.7.4-.5.8-.9.8-.9h-1.9l-.4.5c-.6.7-1.6 1.9-1.9 2.2-.1.2-.3.3-.4.4l-.3.3c-.1.1-.6.7-1.1 1.3-.5.6-.9 1.1-.9 1.1s-.1.1-.2.3c-.2.3-.4.5-1.4 1.7-.7.4-.8.4-.8.4s-1.3-1.9-2.8-4.1L7.6.7H1l.1.2m2.6 1.4s.6.9 1.4 2c1.4 2 6.8 9.7 10.2 14.7 1.1 1.6 2 2.9 2 2.9h3L18 18.5l-1.6-2.2c-2.1-3-5.2-7.5-6.8-9.8l-3-4.3H5.1l-1.4.1" fill-rule="evenodd" clip-rule="evenodd"/></svg>