<svg xmlns="http://www.w3.org/2000/svg" viewBox="0 0 24 24"><path d="M19 23H5c-1.65 0-3-1.35-3-3v-7c0-1.65 1.35-3 3-3h14c1.65 0 3 1.35 3 3v7c0 1.65-1.35 3-3 3zM5 12c-.55 0-1 .45-1 1v7c0 .55.45 1 1 1h14c.55 0 1-.45 1-1v-7c0-.55-.45-1-1-1H5z"/><path d="M7 12c-.55 0-1-.45-1-1V7c0-1.6.62-3.11 1.75-4.24A5.97 5.97 0 0111.99 1c2.84 0 5.31 2.02 5.88 4.81.11.54-.24 1.07-.78 1.18-.54.11-1.07-.24-1.18-.78a4.012 4.012 0 00-3.92-3.2c-1.07 0-2.07.42-2.83 1.17-.75.76-1.17 1.76-1.17 2.83v4c0 .55-.45 1-1 1z"/></svg>