<svg xmlns="http://www.w3.org/2000/svg" viewBox="0 0 24 24"><path d="M17 22c-.55 0-1-.45-1-1v-2c0-1.65-1.35-3-3-3H5c-1.65 0-3 1.35-3 3v2c0 .55-.45 1-1 1s-1-.45-1-1v-2c0-2.76 2.24-5 5-5h8c2.76 0 5 2.24 5 5v2c0 .55-.45 1-1 1zM9 12c-1.28 0-2.56-.49-3.54-1.46a5.003 5.003 0 010-7.07 5.003 5.003 0 017.07 0 5.003 5.003 0 010 7.07c-.97.97-2.26 1.46-3.54 1.46zm0-8c-.77 0-1.54.29-2.12.88a3 3 0 000 4.24 3 3 0 004.24 0A3 3 0 009 4zm14 18c-.55 0-1-.45-1-1v-2c0-1.37-.93-2.56-2.25-2.9a.996.996 0 01-.72-1.22c.14-.54.68-.86 1.22-.72C22.46 14.73 24 16.72 24 19v2c0 .55-.45 1-1 1zm-7-10.12c-.45 0-.85-.3-.97-.75-.14-.54.19-1.08.72-1.22 1.06-.27 1.89-1.1 2.16-2.16.41-1.6-.56-3.24-2.16-3.65a.996.996 0 01-.72-1.22c.14-.53.68-.86 1.22-.72 2.67.68 4.29 3.41 3.6 6.08a4.978 4.978 0 01-3.6 3.6c-.08.02-.17.03-.25.03z"/></svg>