<svg xmlns="http://www.w3.org/2000/svg" viewBox="0 0 24 24"><path d="M16 22c-.55 0-1-.45-1-1v-2c0-1.65-1.35-3-3-3H5c-1.65 0-3 1.35-3 3v2c0 .55-.45 1-1 1s-1-.45-1-1v-2c0-2.76 2.24-5 5-5h7c2.76 0 5 2.24 5 5v2c0 .55-.45 1-1 1zM8.5 12c-1.28 0-2.56-.49-3.54-1.46a5.003 5.003 0 010-7.07 5.003 5.003 0 017.07 0 5.003 5.003 0 010 7.07c-.97.97-2.26 1.46-3.54 1.46zm0-8c-.77 0-1.54.29-2.12.88a3 3 0 000 4.24 3 3 0 004.24 0A3 3 0 008.5 4zM20 15c-.55 0-1-.45-1-1V8c0-.55.45-1 1-1s1 .45 1 1v6c0 .55-.45 1-1 1z"/><path d="M23 12h-6c-.55 0-1-.45-1-1s.45-1 1-1h6c.55 0 1 .45 1 1s-.45 1-1 1z"/></svg>