<svg xmlns="http://www.w3.org/2000/svg" viewBox="0 0 24 24"><path d="M17.47 14.38c-.3-.15-1.76-.87-2.03-.97-.27-.1-.47-.15-.67.15-.2.3-.77.97-.94 1.16-.17.2-.35.22-.64.07-.3-.15-1.26-.46-2.39-1.48-.88-.79-1.48-1.76-1.65-2.06-.17-.3-.02-.46.13-.61.13-.13.3-.35.45-.52.15-.17.2-.3.3-.5.1-.2.05-.37-.02-.52s-.67-1.61-.92-2.21c-.24-.58-.49-.5-.67-.51-.17 0-.37-.01-.57-.01s-.52.07-.79.37-1.04 1.02-1.04 2.48 1.07 2.88 1.21 3.07c.15.2 2.1 3.2 5.08 4.49.71.31 1.26.49 1.69.62.71.23 1.36.19 1.87.12.57-.08 1.76-.72 2.01-1.41.25-.69.25-1.29.17-1.41-.07-.12-.27-.2-.57-.35m-5.43 7.43c-1.77 0-3.51-.48-5.03-1.38l-.36-.21-3.74.98 1-3.65-.23-.37a9.896 9.896 0 01-1.51-5.26c0-5.45 4.44-9.88 9.89-9.88 2.64 0 5.12 1.03 6.99 2.9a9.81 9.81 0 012.89 6.99c0 5.45-4.44 9.88-9.89 9.88m8.4-18.29A11.832 11.832 0 0012.05 0C5.49 0 .16 5.34.16 11.89c0 2.1.55 4.14 1.59 5.94L.06 24l6.3-1.65c1.74.95 3.7 1.45 5.68 1.45 6.55 0 11.89-5.34 11.89-11.89 0-3.16-1.24-6.19-3.48-8.41z"/></svg>