<svg xmlns="http://www.w3.org/2000/svg" viewBox="0 0 24 24"><path d="M12.09 13.12c-.94 1.93-2.22 4.55-2.85 5.73-.62 1.07-1.13.93-1.53.03C6.3 15.56 3.42 9.74 2.06 6.47c-.25-.6-.44-.99-.62-1.14-.18-.15-.55-.24-1.12-.27-.21-.02-.31-.07-.31-.16v-.45l.05-.05h5.4l.05.05v.43c0 .12-.07.18-.22.18l-.56.03c-.49.03-.73.16-.73.44 0 .14.05.33.17.6 1.08 2.65 4.82 10.52 4.82 10.52l.14.05 2.41-4.81-.48-1.07L9.4 7.56s-.32-.65-.43-.87c-.73-1.44-.71-1.52-1.45-1.62-.21-.02-.31-.05-.31-.15v-.47l.06-.05h4.29l.11.04v.45c0 .11-.08.15-.23.15l-.31.05c-.79.06-.66.38-.14 1.42l1.58 3.25 1.76-3.5c.29-.64.23-.8.11-.95-.07-.08-.31-.22-.81-.24l-.2-.02c-.05 0-.1-.01-.15-.05a.146.146 0 01-.07-.13v-.43l.06-.05h4.04l.06.05v.44c0 .12-.06.18-.19.18-.65.03-.78.09-1.02.44-.12.19-.38.59-.65 1.04l-2.3 4.27-.06.14 2.79 5.71.17.05 4.4-10.44c.15-.42.13-.72-.06-.89-.2-.17-.35-.27-.86-.3l-.42-.02a.21.21 0 01-.15-.05c-.04-.03-.07-.07-.07-.12v-.44l.06-.05h4.96l.04.05v.44c0 .12-.07.18-.21.18-.65.03-1.13.18-1.44.42-.31.26-.56.62-.74 1.07 0 0-4.04 9.26-5.43 12.34-.52 1.01-1.05.92-1.5-.03-.57-1.17-1.77-3.79-2.65-5.71l.05-.04z"/></svg>