<svg xmlns="http://www.w3.org/2000/svg" viewBox="0 0 24 24"><path d="M11 20c-2.31 0-4.61-.88-6.36-2.63-3.51-3.51-3.51-9.22 0-12.73C6.34 2.94 8.6 2 11 2s4.66.94 6.36 2.64c3.51 3.51 3.51 9.22 0 12.73A8.98 8.98 0 0111 20zm0-16c-1.87 0-3.63.73-4.95 2.05a7.007 7.007 0 000 9.9 7.007 7.007 0 009.9 0 7.007 7.007 0 000-9.9A6.96 6.96 0 0011 4z"/><path d="M21 22c-.26 0-.51-.1-.71-.29l-4.35-4.35a.996.996 0 111.41-1.41l4.35 4.35a.996.996 0 01-.71 1.7zm-10-7c-.55 0-1-.45-1-1V8c0-.55.45-1 1-1s1 .45 1 1v6c0 .55-.45 1-1 1z"/><path d="M14 12H8c-.55 0-1-.45-1-1s.45-1 1-1h6c.55 0 1 .45 1 1s-.45 1-1 1z"/></svg>