<svg version="1.1" id="Layer_1" xmlns="http://www.w3.org/2000/svg" x="0" y="0" viewBox="0 0 280.4 80.1" xml:space="preserve"><style>.st0{fill:#3b4145}</style><path class="st0" d="M112.5 17.9c1.1 1.4 1.6 3.2 1.6 5.4 0 2.8-.9 5-2.7 6.7-1.8 1.6-4.3 2.4-7.4 2.4H92V.6h10c2.9 0 5.2.7 6.8 2 1.6 1.3 2.4 3.2 2.4 5.8 0 1.5-.3 2.9-.8 4-.5 1.2-1.3 2.1-2.4 2.7 1.9.5 3.4 1.5 4.5 2.8zm-16.3-4h5.2c1.7 0 3-.3 3.9-1 .9-.7 1.3-1.9 1.3-3.7 0-1.8-.4-3-1.3-3.7-.9-.7-2.2-1-3.9-1h-5.2v9.4zm11.6 13.3c1-.9 1.5-2.2 1.5-4 0-3.6-1.9-5.5-5.8-5.5h-7.3v10.8h7.3c1.9.1 3.3-.4 4.3-1.3zm23.1 3.9c-2.4-1.4-4.2-3.3-5.6-5.8-1.3-2.5-2-5.4-2-8.7 0-3.3.7-6.2 2-8.7 1.3-2.5 3.2-4.4 5.6-5.8 2.4-1.4 5.1-2 8.1-2s5.7.7 8.1 2 4.2 3.3 5.6 5.8c1.3 2.5 2 5.4 2 8.7 0 3.3-.7 6.2-2 8.7-1.3 2.5-3.2 4.4-5.6 5.8s-5.1 2-8.1 2-5.7-.7-8.1-2zm14.2-3.8c1.7-1.1 2.9-2.5 3.8-4.4.8-1.9 1.3-4 1.3-6.3 0-2.4-.4-4.5-1.3-6.3-.8-1.9-2.1-3.3-3.8-4.4-1.7-1.1-3.7-1.6-6.1-1.6-2.4 0-4.4.5-6.1 1.6-1.7 1.1-2.9 2.5-3.8 4.4-.8 1.9-1.3 4-1.3 6.3 0 2.4.4 4.5 1.3 6.3.8 1.9 2.1 3.3 3.8 4.4 1.7 1.1 3.7 1.6 6.1 1.6 2.4 0 4.4-.5 6.1-1.6zm41.8-9.4c1.1 1.4 1.6 3.2 1.6 5.4 0 2.8-.9 5-2.7 6.7-1.8 1.6-4.3 2.4-7.4 2.4h-12V.6h10.1c2.9 0 5.2.7 6.8 2 1.6 1.3 2.4 3.2 2.4 5.8 0 1.5-.3 2.9-.8 4-.5 1.2-1.3 2.1-2.4 2.7 1.8.5 3.3 1.5 4.4 2.8zm-16.3-4h5.2c1.7 0 3-.3 3.9-1 .9-.7 1.3-1.9 1.3-3.7 0-1.8-.4-3-1.3-3.7-.9-.7-2.2-1-3.9-1h-5.2v9.4zm11.6 13.3c1-.9 1.5-2.2 1.5-4 0-3.6-1.9-5.5-5.8-5.5h-7.3v10.8h7.3c1.8.1 3.3-.4 4.3-1.3zm33.8-3.3h-12.2l-3 8.6h-4.5L207.7.7h4.5l11.4 31.8h-4.5l-3.1-8.6zm-1.3-3.9L210 6.7 205.2 20h9.5zM95.3 78.8c-1.9-.4-3.5-.9-4.7-1.4l.6-4.6c1.5.7 3.2 1.4 5.1 1.9s3.8.8 5.7.8c2.1 0 3.8-.4 4.9-1.2s1.8-1.9 1.8-3.5c0-1.2-.3-2.1-.9-2.9-.6-.8-1.5-1.4-2.6-2-1.1-.5-2.7-1.1-4.8-1.7-2.1-.6-3.8-1.3-5.1-2s-2.5-1.7-3.3-2.9c-.8-1.2-1.3-2.7-1.3-4.6 0-2.6 1-4.7 3-6.2 2-1.6 4.8-2.4 8.4-2.4 1.9 0 3.8.2 5.5.6 1.7.4 3.3.9 4.6 1.5l-.5 4.6c-1.7-1-3.3-1.7-4.9-2.2-1.6-.5-3.2-.7-4.9-.7-2 0-3.5.4-4.7 1.1-1.2.7-1.8 1.9-1.8 3.4 0 1 .3 1.9.8 2.5.5.7 1.3 1.2 2.3 1.7 1 .5 2.4 1 4.2 1.5 3.6 1.1 6.2 2.4 8 3.9 1.8 1.5 2.6 3.6 2.6 6.2 0 2.8-1 5-3.1 6.5-2.1 1.6-5.2 2.3-9.3 2.3-1.8.5-3.7.3-5.6-.2zm35.6-27.9h-9.3V47h22.9v3.9h-9.3v27.9h-4.3V50.9zm27 24.9c-2.2-2.5-3.3-6-3.3-10.4V47h4.3v17.2c0 3.5.6 6.3 1.9 8.3 1.2 2.1 3.6 3.1 7 3.1s5.8-1 7-3.1c1.2-2.1 1.9-4.8 1.9-8.3V47h4.3v18.3c0 4.5-1.1 8-3.3 10.4-2.2 2.5-5.5 3.7-9.9 3.7-4.4.1-7.7-1.2-9.9-3.6zM194 47h11.8c3.1 0 5.8.6 8.2 1.9 2.4 1.3 4.3 3.1 5.6 5.5s2 5.3 2 8.5c0 3.3-.7 6.1-2 8.5s-3.2 4.2-5.6 5.5c-2.4 1.3-5.1 1.9-8.2 1.9H194V47zm11.8 27.9c3.5 0 6.3-1.1 8.2-3.3 1.9-2.2 2.9-5.1 2.9-8.8 0-3.7-1-6.6-2.9-8.8-1.9-2.2-4.7-3.3-8.2-3.3h-7.5v24h7.5zM233.1 47h4.3v31.8h-4.3V47zm23.5 30.4c-2.4-1.4-4.2-3.3-5.6-5.8-1.3-2.5-2-5.4-2-8.7 0-3.3.7-6.2 2-8.7 1.3-2.5 3.2-4.4 5.6-5.8 2.4-1.4 5.1-2 8.1-2s5.7.7 8.1 2 4.2 3.3 5.6 5.8c1.3 2.5 2 5.4 2 8.7 0 3.3-.7 6.2-2 8.7-1.3 2.5-3.2 4.4-5.6 5.8s-5.1 2-8.1 2c-3 .1-5.7-.6-8.1-2zm14.2-3.7c1.7-1.1 2.9-2.5 3.8-4.4.8-1.9 1.3-4 1.3-6.3 0-2.4-.4-4.5-1.3-6.3-.8-1.9-2.1-3.3-3.8-4.4-1.7-1.1-3.7-1.6-6.1-1.6-2.4 0-4.4.5-6.1 1.6-1.7 1.1-2.9 2.5-3.8 4.4-.8 1.9-1.3 4-1.3 6.3 0 2.4.4 4.5 1.3 6.3.8 1.9 2.1 3.3 3.8 4.4 1.7 1.1 3.7 1.6 6.1 1.6 2.4 0 4.4-.6 6.1-1.6zM53.6 66.8c-.6 0-1.1-.1-1.3-.3-.3-.2-.5-.5-.6-1-.1-.5-.1-1.3-.1-2.4v-5.2c0-3.2-.6-5.5-1.9-6.9-1.2-1.4-3.1-2.1-5.7-2.1s-5.1.7-7.5 2l.5 3.9c1.1-.6 2.1-1 3-1.3.9-.3 1.8-.4 2.7-.4 1.4 0 2.5.3 3.1.9.6.6.9 1.6 1 3.1-1.8.1-3.6.3-5.5.8-1.8.5-3.4 1.3-4.7 2.4-1.3 1.1-2 2.6-2 4.4 0 1.9.6 3.4 1.8 4.5 1.2 1.1 2.7 1.7 4.5 1.7 1.3 0 2.5-.2 3.7-.7 1.1-.5 2.1-1.1 2.8-2 .5.9 1.1 1.5 1.8 2s1.8.7 3.2.7h1.3l.6-3.9h-.7zM46.8 65c-.5.6-1.2 1.1-2 1.5-.8.4-1.5.5-2.2.5-2 0-3-.9-3-2.8 0-1.3.7-2.3 2-3s3.1-1.1 5.2-1.1V65zM27.7 54.3c-.8-1.7-1.8-3-3.3-4-1.4-1-3.1-1.5-5.1-1.5-2.3 0-4.3.7-6 2.2v-9.2H8.5v28.4h4.4l.2-1.8c1.6 1.5 3.7 2.2 6.2 2.2 1.9 0 3.6-.5 5-1.5s2.5-2.3 3.3-4c.8-1.7 1.2-3.5 1.2-5.5 0-1.8-.4-3.7-1.1-5.3zm-5.2 10.5c-.9 1.3-2.2 1.9-3.8 1.9-1.8 0-3.2-.6-4.2-1.8-1-1.2-1.5-2.9-1.5-5.1 0-2.2.5-3.9 1.5-5.1 1-1.2 2.4-1.8 4.2-1.8 1.6 0 2.9.6 3.8 1.9.9 1.3 1.4 2.9 1.4 5 0 2-.5 3.7-1.4 5zm1.9-42.7c1-.6 1.8-1.5 2.4-2.5.5-1.1.8-2.3.8-3.8 0-2.4-.7-4.2-2.2-5.4C24 9.2 21.8 8.6 19 8.6H8.5v29.7h12c3 0 5.3-.7 7-2.3 1.7-1.5 2.6-3.6 2.6-6.2 0-4-1.9-6.6-5.7-7.7zm-11-9.1h4.9c1.4 0 2.5.3 3.2.9.7.6 1.1 1.6 1.1 2.9 0 1.4-.4 2.3-1.1 2.9-.7.6-1.8.9-3.2.9h-4.9V13zm6.4 20.9h-6.4v-9h6.4c1.6 0 2.8.3 3.7 1 .9.7 1.3 1.8 1.3 3.5.1 3-1.6 4.5-5 4.5z"/><path d="M49.2 10c-1.6-1-3.5-1.5-5.7-1.5s-4.1.5-5.7 1.5-2.9 2.3-3.7 4c-.9 1.7-1.3 3.5-1.3 5.5s.4 3.9 1.3 5.5c.9 1.7 2.1 3 3.7 4s3.5 1.5 5.7 1.5 4.1-.5 5.7-1.5c1.6-1 2.8-2.3 3.7-4 .8-1.7 1.3-3.5 1.3-5.5s-.4-3.9-1.3-5.5c-.8-1.7-2-3-3.7-4z" fill="#f08825"/><path class="st0" d="M38.2 36.2h11.6v5.6H38.2z"/><path class="st0" d="M62.7 78.9H0V.1h62.7v78.8zM4.3 74.6h54.1V4.4H4.3v70.2z"/></svg>