<?xml version="1.0" encoding="utf-8"?>
<!-- Generator: Adobe Illustrator 24.1.3, SVG Export Plug-In . SVG Version: 6.00 Build 0)  -->
<svg version="1.1" id="Layer_1" xmlns="http://www.w3.org/2000/svg" xmlns:xlink="http://www.w3.org/1999/xlink" x="0px" y="0px"
	 viewBox="0 0 280.4 80.1" style="enable-background:new 0 0 280.4 80.1;" xml:space="preserve">
<style type="text/css">
	.st0{fill:#3B4145;}
	.st1{fill:#F08825;}
</style>
<g>
	<g>
		<path class="st0" d="M112.5,17.9c1.1,1.4,1.6,3.2,1.6,5.4c0,2.8-0.9,5-2.7,6.7c-1.8,1.6-4.3,2.4-7.4,2.4h-12V0.6H102
			c2.9,0,5.2,0.7,6.8,2c1.6,1.3,2.4,3.2,2.4,5.8c0,1.5-0.3,2.9-0.8,4c-0.5,1.2-1.3,2.1-2.4,2.7C109.9,15.6,111.4,16.6,112.5,17.9z
			 M96.2,13.9h5.2c1.7,0,3-0.3,3.9-1c0.9-0.7,1.3-1.9,1.3-3.7c0-1.8-0.4-3-1.3-3.7c-0.9-0.7-2.2-1-3.9-1h-5.2V13.9z M107.8,27.2
			c1-0.9,1.5-2.2,1.5-4c0-3.6-1.9-5.5-5.8-5.5h-7.3v10.8h7.3C105.4,28.6,106.8,28.1,107.8,27.2z"/>
		<path class="st0" d="M130.9,31.1c-2.4-1.4-4.2-3.3-5.6-5.8c-1.3-2.5-2-5.4-2-8.7c0-3.3,0.7-6.2,2-8.7c1.3-2.5,3.2-4.4,5.6-5.8
			c2.4-1.4,5.1-2,8.1-2c3,0,5.7,0.7,8.1,2s4.2,3.3,5.6,5.8c1.3,2.5,2,5.4,2,8.7c0,3.3-0.7,6.2-2,8.7c-1.3,2.5-3.2,4.4-5.6,5.8
			s-5.1,2-8.1,2C136,33.1,133.3,32.4,130.9,31.1z M145.1,27.3c1.7-1.1,2.9-2.5,3.8-4.4c0.8-1.9,1.3-4,1.3-6.3c0-2.4-0.4-4.5-1.3-6.3
			c-0.8-1.9-2.1-3.3-3.8-4.4c-1.7-1.1-3.7-1.6-6.1-1.6c-2.4,0-4.4,0.5-6.1,1.6c-1.7,1.1-2.9,2.5-3.8,4.4c-0.8,1.9-1.3,4-1.3,6.3
			c0,2.4,0.4,4.5,1.3,6.3c0.8,1.9,2.1,3.3,3.8,4.4c1.7,1.1,3.7,1.6,6.1,1.6C141.4,28.9,143.4,28.4,145.1,27.3z"/>
		<path class="st0" d="M186.9,17.9c1.1,1.4,1.6,3.2,1.6,5.4c0,2.8-0.9,5-2.7,6.7c-1.8,1.6-4.3,2.4-7.4,2.4h-12V0.6h10.1
			c2.9,0,5.2,0.7,6.8,2c1.6,1.3,2.4,3.2,2.4,5.8c0,1.5-0.3,2.9-0.8,4c-0.5,1.2-1.3,2.1-2.4,2.7C184.3,15.6,185.8,16.6,186.9,17.9z
			 M170.6,13.9h5.2c1.7,0,3-0.3,3.9-1c0.9-0.7,1.3-1.9,1.3-3.7c0-1.8-0.4-3-1.3-3.7c-0.9-0.7-2.2-1-3.9-1h-5.2V13.9z M182.2,27.2
			c1-0.9,1.5-2.2,1.5-4c0-3.6-1.9-5.5-5.8-5.5h-7.3v10.8h7.3C179.7,28.6,181.2,28.1,182.2,27.2z"/>
		<path class="st0" d="M216,23.9h-12.2l-3,8.6h-4.5l11.4-31.8h4.5l11.4,31.8h-4.5L216,23.9z M214.7,20l-4.7-13.3L205.2,20H214.7z"/>
		<path class="st0" d="M95.3,78.8c-1.9-0.4-3.5-0.9-4.7-1.4l0.6-4.6c1.5,0.7,3.2,1.4,5.1,1.9s3.8,0.8,5.7,0.8c2.1,0,3.8-0.4,4.9-1.2
			s1.8-1.9,1.8-3.5c0-1.2-0.3-2.1-0.9-2.9c-0.6-0.8-1.5-1.4-2.6-2c-1.1-0.5-2.7-1.1-4.8-1.7c-2.1-0.6-3.8-1.3-5.1-2
			s-2.5-1.7-3.3-2.9c-0.8-1.2-1.3-2.7-1.3-4.6c0-2.6,1-4.7,3-6.2c2-1.6,4.8-2.4,8.4-2.4c1.9,0,3.8,0.2,5.5,0.6
			c1.7,0.4,3.3,0.9,4.6,1.5l-0.5,4.6c-1.7-1-3.3-1.7-4.9-2.2c-1.6-0.5-3.2-0.7-4.9-0.7c-2,0-3.5,0.4-4.7,1.1
			c-1.2,0.7-1.8,1.9-1.8,3.4c0,1,0.3,1.9,0.8,2.5c0.5,0.7,1.3,1.2,2.3,1.7c1,0.5,2.4,1,4.2,1.5c3.6,1.1,6.2,2.4,8,3.9
			c1.8,1.5,2.6,3.6,2.6,6.2c0,2.8-1,5-3.1,6.5c-2.1,1.6-5.2,2.3-9.3,2.3C99.1,79.5,97.2,79.3,95.3,78.8z"/>
		<path class="st0" d="M130.9,50.9h-9.3V47h22.9v3.9h-9.3v27.9h-4.3V50.9z"/>
		<path class="st0" d="M157.9,75.8c-2.2-2.5-3.3-6-3.3-10.4V47h4.3v17.2c0,3.5,0.6,6.3,1.9,8.3c1.2,2.1,3.6,3.1,7,3.1
			c3.4,0,5.8-1,7-3.1c1.2-2.1,1.9-4.8,1.9-8.3V47h4.3v18.3c0,4.5-1.1,8-3.3,10.4c-2.2,2.5-5.5,3.7-9.9,3.7
			C163.4,79.5,160.1,78.2,157.9,75.8z"/>
		<path class="st0" d="M194,47h11.8c3.1,0,5.8,0.6,8.2,1.9c2.4,1.3,4.3,3.1,5.6,5.5s2,5.3,2,8.5c0,3.3-0.7,6.1-2,8.5
			s-3.2,4.2-5.6,5.5c-2.4,1.3-5.1,1.9-8.2,1.9H194V47z M205.8,74.9c3.5,0,6.3-1.1,8.2-3.3c1.9-2.2,2.9-5.1,2.9-8.8
			c0-3.7-1-6.6-2.9-8.8c-1.9-2.2-4.7-3.3-8.2-3.3h-7.5v24H205.8z"/>
		<path class="st0" d="M233.1,47h4.3v31.8h-4.3V47z"/>
		<path class="st0" d="M256.6,77.4c-2.4-1.4-4.2-3.3-5.6-5.8c-1.3-2.5-2-5.4-2-8.7c0-3.3,0.7-6.2,2-8.7c1.3-2.5,3.2-4.4,5.6-5.8
			c2.4-1.4,5.1-2,8.1-2c3,0,5.7,0.7,8.1,2s4.2,3.3,5.6,5.8c1.3,2.5,2,5.4,2,8.7c0,3.3-0.7,6.2-2,8.7c-1.3,2.5-3.2,4.4-5.6,5.8
			s-5.1,2-8.1,2C261.7,79.5,259,78.8,256.6,77.4z M270.8,73.7c1.7-1.1,2.9-2.5,3.8-4.4c0.8-1.9,1.3-4,1.3-6.3c0-2.4-0.4-4.5-1.3-6.3
			c-0.8-1.9-2.1-3.3-3.8-4.4c-1.7-1.1-3.7-1.6-6.1-1.6c-2.4,0-4.4,0.5-6.1,1.6c-1.7,1.1-2.9,2.5-3.8,4.4c-0.8,1.9-1.3,4-1.3,6.3
			c0,2.4,0.4,4.5,1.3,6.3c0.8,1.9,2.1,3.3,3.8,4.4c1.7,1.1,3.7,1.6,6.1,1.6C267.1,75.3,269.1,74.7,270.8,73.7z"/>
	</g>
	<g>
		<path class="st0" d="M53.6,66.8c-0.6,0-1.1-0.1-1.3-0.3c-0.3-0.2-0.5-0.5-0.6-1c-0.1-0.5-0.1-1.3-0.1-2.4v-5.2
			c0-3.2-0.6-5.5-1.9-6.9c-1.2-1.4-3.1-2.1-5.7-2.1c-2.6,0-5.1,0.7-7.5,2l0.5,3.9c1.1-0.6,2.1-1,3-1.3c0.9-0.3,1.8-0.4,2.7-0.4
			c1.4,0,2.5,0.3,3.1,0.9c0.6,0.6,0.9,1.6,1,3.1c-1.8,0.1-3.6,0.3-5.5,0.8c-1.8,0.5-3.4,1.3-4.7,2.4c-1.3,1.1-2,2.6-2,4.4
			c0,1.9,0.6,3.4,1.8,4.5c1.2,1.1,2.7,1.7,4.5,1.7c1.3,0,2.5-0.2,3.7-0.7c1.1-0.5,2.1-1.1,2.8-2c0.5,0.9,1.1,1.5,1.8,2
			c0.7,0.5,1.8,0.7,3.2,0.7h1.3l0.6-3.9H53.6z M46.8,65c-0.5,0.6-1.2,1.1-2,1.5c-0.8,0.4-1.5,0.5-2.2,0.5c-2,0-3-0.9-3-2.8
			c0-1.3,0.7-2.3,2-3s3.1-1.1,5.2-1.1V65z"/>
		<path class="st0" d="M27.7,54.3c-0.8-1.7-1.8-3-3.3-4c-1.4-1-3.1-1.5-5.1-1.5c-2.3,0-4.3,0.7-6,2.2v-9.2H8.5v28.4h4.4l0.2-1.8
			c1.6,1.5,3.7,2.2,6.2,2.2c1.9,0,3.6-0.5,5-1.5c1.4-1,2.5-2.3,3.3-4c0.8-1.7,1.2-3.5,1.2-5.5C28.8,57.8,28.4,55.9,27.7,54.3z
			 M22.5,64.8c-0.9,1.3-2.2,1.9-3.8,1.9c-1.8,0-3.2-0.6-4.2-1.8c-1-1.2-1.5-2.9-1.5-5.1c0-2.2,0.5-3.9,1.5-5.1
			c1-1.2,2.4-1.8,4.2-1.8c1.6,0,2.9,0.6,3.8,1.9c0.9,1.3,1.4,2.9,1.4,5C23.9,61.8,23.4,63.5,22.5,64.8z"/>
		<path class="st0" d="M24.4,22.1c1-0.6,1.8-1.5,2.4-2.5c0.5-1.1,0.8-2.3,0.8-3.8c0-2.4-0.7-4.2-2.2-5.4C24,9.2,21.8,8.6,19,8.6H8.5
			v29.7h12c3,0,5.3-0.7,7-2.3c1.7-1.5,2.6-3.6,2.6-6.2C30.1,25.8,28.2,23.2,24.4,22.1z M13.4,13h4.9c1.4,0,2.5,0.3,3.2,0.9
			c0.7,0.6,1.1,1.6,1.1,2.9c0,1.4-0.4,2.3-1.1,2.9c-0.7,0.6-1.8,0.9-3.2,0.9h-4.9V13z M19.8,33.9h-6.4v-9h6.4c1.6,0,2.8,0.3,3.7,1
			c0.9,0.7,1.3,1.8,1.3,3.5C24.9,32.4,23.2,33.9,19.8,33.9z"/>
		<path class="st1" d="M49.2,10c-1.6-1-3.5-1.5-5.7-1.5c-2.2,0-4.1,0.5-5.7,1.5s-2.9,2.3-3.7,4c-0.9,1.7-1.3,3.5-1.3,5.5
			c0,2,0.4,3.9,1.3,5.5c0.9,1.7,2.1,3,3.7,4c1.6,1,3.5,1.5,5.7,1.5c2.2,0,4.1-0.5,5.7-1.5c1.6-1,2.8-2.3,3.7-4
			c0.8-1.7,1.3-3.5,1.3-5.5c0-2-0.4-3.9-1.3-5.5C52.1,12.3,50.9,11,49.2,10z"/>
		<rect x="38.2" y="36.2" class="st0" width="11.6" height="5.6"/>
		<g>
			<path class="st0" d="M62.7,78.9H0L0,0.1h62.7L62.7,78.9z M4.3,74.6h54.1l0-70.2H4.3L4.3,74.6z"/>
		</g>
	</g>
</g>
</svg>
