<svg viewBox="0 0 100 100" xmlns="http://www.w3.org/2000/svg"><symbol viewBox="0 0 24 24" id="icon-facebook"><title>facebook</title><path d="M23.998 12c0-6.628-5.372-12-11.999-12C5.372 0 0 5.372 0 12c0 5.988 4.388 10.952 10.124 11.852v-8.384H7.078v-3.469h3.046V9.356c0-3.008 1.792-4.669 4.532-4.669 1.313 0 2.686.234 2.686.234v2.953H15.83c-1.49 0-1.955.925-1.955 1.874V12h3.328l-.532 3.469h-2.796v8.384c5.736-.9 10.124-5.864 10.124-11.853z"/></symbol><symbol viewBox="0 0 24 24" id="icon-instagram"><title>instagram</title><path d="M12 0C8.74 0 8.333.015 7.053.072 5.775.132 4.905.333 4.14.63c-.789.306-1.459.717-2.126 1.384S.935 3.35.63 4.14C.333 4.905.131 5.775.072 7.053.012 8.333 0 8.74 0 12s.015 3.667.072 4.947c.06 1.277.261 2.148.558 2.913a5.885 5.885 0 001.384 2.126A5.868 5.868 0 004.14 23.37c.766.296 1.636.499 2.913.558C8.333 23.988 8.74 24 12 24s3.667-.015 4.947-.072c1.277-.06 2.148-.262 2.913-.558a5.898 5.898 0 002.126-1.384 5.86 5.86 0 001.384-2.126c.296-.765.499-1.636.558-2.913.06-1.28.072-1.687.072-4.947s-.015-3.667-.072-4.947c-.06-1.277-.262-2.149-.558-2.913a5.89 5.89 0 00-1.384-2.126A5.847 5.847 0 0019.86.63c-.765-.297-1.636-.499-2.913-.558C15.667.012 15.26 0 12 0zm0 2.16c3.203 0 3.585.016 4.85.071 1.17.055 1.805.249 2.227.415.562.217.96.477 1.382.896.419.42.679.819.896 1.381.164.422.36 1.057.413 2.227.057 1.266.07 1.646.07 4.85s-.015 3.585-.074 4.85c-.061 1.17-.256 1.805-.421 2.227a3.81 3.81 0 01-.899 1.382 3.744 3.744 0 01-1.38.896c-.42.164-1.065.36-2.235.413-1.274.057-1.649.07-4.859.07-3.211 0-3.586-.015-4.859-.074-1.171-.061-1.816-.256-2.236-.421a3.716 3.716 0 01-1.379-.899 3.644 3.644 0 01-.9-1.38c-.165-.42-.359-1.065-.42-2.235-.045-1.26-.061-1.649-.061-4.844 0-3.196.016-3.586.061-4.861.061-1.17.255-1.814.42-2.234.21-.57.479-.96.9-1.381.419-.419.81-.689 1.379-.898.42-.166 1.051-.361 2.221-.421 1.275-.045 1.65-.06 4.859-.06l.045.03zm0 3.678a6.162 6.162 0 100 12.324 6.162 6.162 0 100-12.324zM12 16c-2.21 0-4-1.79-4-4s1.79-4 4-4 4 1.79 4 4-1.79 4-4 4zm7.846-10.405a1.441 1.441 0 01-2.88 0 1.44 1.44 0 012.88 0z"/></symbol><symbol viewBox="0 0 24 24" id="icon-linkedin"><title>linkedin</title><path d="M20.447 20.452h-3.554v-5.569c0-1.328-.027-3.037-1.852-3.037-1.853 0-2.136 1.445-2.136 2.939v5.667H9.351V9h3.414v1.561h.046c.477-.9 1.637-1.85 3.37-1.85 3.601 0 4.267 2.37 4.267 5.455v6.286zM5.337 7.433a2.062 2.062 0 01-2.063-2.065 2.064 2.064 0 112.063 2.065zm1.782 13.019H3.555V9h3.564v11.452zM22.225 0H1.771C.792 0 0 .774 0 1.729v20.542C0 23.227.792 24 1.771 24h20.451C23.2 24 24 23.227 24 22.271V1.729C24 .774 23.2 0 22.222 0h.003z"/></symbol><symbol viewBox="0 0 24 24" id="icon-microsoftteams"><title>microsoftteams</title><path d="M20.625 8.127q-.55 0-1.025-.205-.475-.205-.832-.563-.358-.357-.563-.832Q18 6.053 18 5.502q0-.54.205-1.02t.563-.837q.357-.358.832-.563.474-.205 1.025-.205.54 0 1.02.205t.837.563q.358.357.563.837.205.48.205 1.02 0 .55-.205 1.025-.205.475-.563.832-.357.358-.837.563-.48.205-1.02.205zm0-3.75q-.469 0-.797.328-.328.328-.328.797 0 .469.328.797.328.328.797.328.469 0 .797-.328.328-.328.328-.797 0-.469-.328-.797-.328-.328-.797-.328zM24 10.002v5.578q0 .774-.293 1.46-.293.685-.803 1.194-.51.51-1.195.803-.686.293-1.459.293-.445 0-.908-.105-.463-.106-.85-.329-.293.95-.855 1.729-.563.78-1.319 1.336-.756.557-1.67.861-.914.305-1.898.305-1.148 0-2.162-.398-1.014-.399-1.805-1.102-.79-.703-1.312-1.664t-.674-2.086h-5.8q-.411 0-.704-.293T0 16.881V6.873q0-.41.293-.703t.703-.293h8.59q-.34-.715-.34-1.5 0-.727.275-1.365.276-.639.75-1.114.475-.474 1.114-.75.638-.275 1.365-.275t1.365.275q.639.276 1.114.75.474.475.75 1.114.275.638.275 1.365t-.275 1.365q-.276.639-.75 1.113-.475.475-1.114.75-.638.276-1.365.276-.188 0-.375-.024-.188-.023-.375-.058v1.078h10.875q.469 0 .797.328.328.328.328.797zM12.75 2.373q-.41 0-.78.158-.368.158-.638.434-.27.275-.428.639-.158.363-.158.773 0 .41.158.78.159.368.428.638.27.27.639.428.369.158.779.158.41 0 .773-.158.364-.159.64-.428.274-.27.433-.639.158-.369.158-.779 0-.41-.158-.773-.159-.364-.434-.64-.275-.275-.639-.433-.363-.158-.773-.158zM6.937 9.814h2.25V7.94H2.814v1.875h2.25v6h1.875zm10.313 7.313v-6.75H12v6.504q0 .41-.293.703t-.703.293H8.309q.152.809.556 1.5.405.691.985 1.19.58.497 1.318.779.738.281 1.582.281.926 0 1.746-.352.82-.351 1.436-.966.615-.616.966-1.43.352-.815.352-1.752zm5.25-1.547v-5.203h-3.75v6.855q.305.305.691.452.387.146.809.146.469 0 .879-.176.41-.175.715-.48.304-.305.48-.715t.176-.879z"/></symbol><symbol viewBox="0 0 24 24" id="icon-pinterest"><title>pinterest</title><path d="M12.017 0C5.396 0 .029 5.367.029 11.987c0 5.079 3.158 9.417 7.618 11.162-.105-.949-.199-2.403.041-3.439.219-.937 1.406-5.957 1.406-5.957s-.359-.72-.359-1.781c0-1.663.967-2.911 2.168-2.911 1.024 0 1.518.769 1.518 1.688 0 1.029-.653 2.567-.992 3.992-.285 1.193.6 2.165 1.775 2.165 2.128 0 3.768-2.245 3.768-5.487 0-2.861-2.063-4.869-5.008-4.869-3.41 0-5.409 2.562-5.409 5.199 0 1.033.394 2.143.889 2.741.099.12.112.225.085.345-.09.375-.293 1.199-.334 1.363-.053.225-.172.271-.401.165-1.495-.69-2.433-2.878-2.433-4.646 0-3.776 2.748-7.252 7.92-7.252 4.158 0 7.392 2.967 7.392 6.923 0 4.135-2.607 7.462-6.233 7.462-1.214 0-2.354-.629-2.758-1.379l-.749 2.848c-.269 1.045-1.004 2.352-1.498 3.146 1.123.345 2.306.535 3.55.535 6.607 0 11.985-5.365 11.985-11.987C23.97 5.39 18.592.026 11.985.026L12.017 0z"/></symbol><symbol viewBox="0 0 20 20" id="icon-play"><title>play</title><path d="M8.8 13.9l4.7-3.5c.3-.2.3-.6 0-.8L8.8 6.1c-.3-.3-.8 0-.8.4v7c0 .4.5.6.8.4zM10 0C4.5 0 0 4.5 0 10s4.5 10 10 10 10-4.5 10-10S15.5 0 10 0zm0 18c-4.4 0-8-3.6-8-8s3.6-8 8-8 8 3.6 8 8-3.6 8-8 8z" fill-rule="evenodd" clip-rule="evenodd"/></symbol><symbol viewBox="0 0 24 24" id="icon-skype"><title>skype</title><path d="M14.04 10.92l-2.52-.56c-.96-.24-2.04-.52-2.04-1.44 0-.92.76-1.56 2.16-1.56 2.84 0 2.6 1.96 4 1.96.72 0 1.36-.4 1.36-1.16 0-1.76-2.8-3.08-5.2-3.08-2.56 0-5.28 1.08-5.28 4 0 1.4.48 2.92 3.24 3.64l3.44.88c1.04.24 1.36.84 1.36 1.36 0 .88-.92 1.84-2.48 1.84-3.08 0-2.64-2.44-4.28-2.44-.72 0-1.32.52-1.32 1.24 0 1.44 1.76 3.4 5.6 3.4 3.68 0 5.52-1.84 5.52-4.24-.04-1.6-.76-3.2-3.56-3.84zm9.08 3.04c.12-.64.16-1.28.16-1.96C23.28 5.76 18.24.72 12 .72c-.68 0-1.32.04-1.96.16C9.04.32 7.92 0 6.72 0 3 0 0 3 0 6.72c0 1.2.32 2.36.88 3.32-.12.64-.16 1.28-.16 1.96 0 6.24 5.04 11.28 11.28 11.28.68 0 1.32-.04 1.96-.16 1 .56 2.12.88 3.32.88C21 24 24 21 24 17.28c0-1.2-.32-2.36-.88-3.32zm-5.84 8.32c-.88 0-1.72-.24-2.48-.64l-.52-.32-.6.12c-.52.08-1.08.16-1.68.16a9.56 9.56 0 01-9.56-9.56c0-.56.04-1.12.16-1.68l.12-.6-.32-.52c-.44-.76-.64-1.6-.64-2.48 0-2.76 2.24-5 5-5 .88 0 1.72.24 2.48.64l.52.32.6-.12c.56-.08 1.12-.16 1.68-.16A9.56 9.56 0 0121.6 12c0 .56-.04 1.12-.16 1.68l-.12.6.32.52c.44.76.64 1.6.64 2.48 0 2.76-2.24 5-5 5z"/></symbol><symbol viewBox="0 0 24 24" id="icon-twitter"><title>twitter</title><path d="M23.954 4.569a10 10 0 01-2.825.775 4.958 4.958 0 002.163-2.723c-.951.555-2.005.959-3.127 1.184a4.92 4.92 0 00-8.384 4.482C7.691 8.094 4.066 6.13 1.64 3.161a4.822 4.822 0 00-.666 2.475c0 1.71.87 3.213 2.188 4.096a4.904 4.904 0 01-2.228-.616v.061a4.923 4.923 0 003.946 4.827 4.996 4.996 0 01-2.212.085 4.937 4.937 0 004.604 3.417 9.868 9.868 0 01-6.102 2.105c-.39 0-.779-.023-1.17-.067a13.995 13.995 0 007.557 2.209c9.054 0 13.999-7.496 13.999-13.986 0-.209 0-.42-.015-.63a9.936 9.936 0 002.46-2.548l-.047-.02z"/></symbol><symbol viewBox="0 0 24 24" id="icon-vimeo"><title>vimeo</title><path d="M23.977 6.416c-.105 2.338-1.739 5.543-4.894 9.609-3.268 4.247-6.026 6.37-8.29 6.37-1.409 0-2.578-1.294-3.553-3.881L5.322 11.4C4.603 8.816 3.834 7.522 3.01 7.522c-.179 0-.806.378-1.881 1.132L0 7.197a315.065 315.065 0 003.501-3.128C5.08 2.701 6.266 1.984 7.055 1.91c1.867-.18 3.016 1.1 3.447 3.838.465 2.953.789 4.789.971 5.507.539 2.45 1.131 3.674 1.776 3.674.502 0 1.256-.796 2.265-2.385 1.004-1.589 1.54-2.797 1.612-3.628.144-1.371-.395-2.061-1.614-2.061-.574 0-1.167.121-1.777.391 1.186-3.868 3.434-5.757 6.762-5.637 2.473.06 3.628 1.664 3.493 4.797l-.013.01z"/></symbol><symbol viewBox="0 0 24 24" id="icon-whatsapp"><title>whatsapp</title><path d="M17.472 14.382c-.297-.149-1.758-.867-2.03-.967-.273-.099-.471-.148-.67.15-.197.297-.767.966-.94 1.164-.173.199-.347.223-.644.075-.297-.15-1.255-.463-2.39-1.475-.883-.788-1.48-1.761-1.653-2.059-.173-.297-.018-.458.13-.606.134-.133.298-.347.446-.52.149-.174.198-.298.298-.497.099-.198.05-.371-.025-.52-.075-.149-.669-1.612-.916-2.207-.242-.579-.487-.5-.669-.51a12.8 12.8 0 00-.57-.01c-.198 0-.52.074-.792.372-.272.297-1.04 1.016-1.04 2.479 0 1.462 1.065 2.875 1.213 3.074.149.198 2.096 3.2 5.077 4.487.709.306 1.262.489 1.694.625.712.227 1.36.195 1.871.118.571-.085 1.758-.719 2.006-1.413.248-.694.248-1.289.173-1.413-.074-.124-.272-.198-.57-.347m-5.421 7.403h-.004a9.87 9.87 0 01-5.031-1.378l-.361-.214-3.741.982.998-3.648-.235-.374a9.86 9.86 0 01-1.51-5.26c.001-5.45 4.436-9.884 9.888-9.884 2.64 0 5.122 1.03 6.988 2.898a9.825 9.825 0 012.893 6.994c-.003 5.45-4.437 9.884-9.885 9.884m8.413-18.297A11.815 11.815 0 0012.05 0C5.495 0 .16 5.335.157 11.892c0 2.096.547 4.142 1.588 5.945L.057 24l6.305-1.654a11.882 11.882 0 005.683 1.448h.005c6.554 0 11.89-5.335 11.893-11.893a11.821 11.821 0 00-3.48-8.413z"/></symbol><symbol viewBox="0 0 24 24" id="icon-youtube"><title>youtube</title><path d="M23.495 6.205a3.007 3.007 0 00-2.088-2.088c-1.87-.501-9.396-.501-9.396-.501s-7.507-.01-9.396.501A3.007 3.007 0 00.527 6.205a31.247 31.247 0 00-.522 5.805 31.247 31.247 0 00.522 5.783 3.007 3.007 0 002.088 2.088c1.868.502 9.396.502 9.396.502s7.506 0 9.396-.502a3.007 3.007 0 002.088-2.088 31.247 31.247 0 00.5-5.783 31.247 31.247 0 00-.5-5.805zM9.609 15.601V8.408l6.264 3.602z"/></symbol><symbol viewBox="0 0 24 24" id="icon-zoom"><title>zoom</title><path d="M4.587 13.63l-.27-.012H1.89l3.235-3.235-.013-.27a.815.815 0 00-.795-.795l-.27-.013H.004l.014.27c.034.438.353.77.794.795l.27.013H3.51L.273 13.618l.014.269c.015.433.362.78.795.796l.27.013h4.044l-.014-.27c-.036-.443-.35-.767-.795-.795zm3.237-4.325H7.82a2.695 2.695 0 10.003 0zm1.141 3.839a1.618 1.618 0 11-2.288-2.287 1.618 1.618 0 012.288 2.287zm12.872-3.838a2.157 2.157 0 00-1.615.729 2.152 2.152 0 00-1.618-.731 2.147 2.147 0 00-1.208.37c-.21-.233-.68-.37-.948-.37v5.392l.27-.013c.45-.03.777-.349.795-.796l.013-.27V11.73l.014-.27c.01-.202.04-.382.132-.54a1.078 1.078 0 011.473-.393 1.078 1.078 0 01.392.392c.093.16.12.339.132.54l.014.271v1.887l.013.269c.027.44.35.768.795.796l.27.013V11.73l.012-.27c.01-.2.04-.384.134-.543.299-.514.959-.69 1.473-.39a1.078 1.078 0 01.392.393c.092.16.12.343.131.54l.014.27v1.887l.013.269c.028.443.35.77.796.796l.27.013V11.46a2.157 2.157 0 00-2.16-2.155zm-10.26.788a2.696 2.696 0 103.81 3.813 2.696 2.696 0 00-3.81-3.813zm3.049 3.05a1.618 1.618 0 11-2.288-2.288 1.618 1.618 0 012.288 2.288z"/></symbol></svg>