<svg xmlns="http://www.w3.org/2000/svg" viewBox="0 0 256 256"><path d="M200 224h-49.5c6.9-6.2 15.2-14.2 23.5-23.8 27.5-31.6 42-64.9 42-96.2 0-48.5-39.5-88-88-88s-88 39.5-88 88c0 31.4 14.5 64.7 42 96.2 8.3 9.5 16.6 17.6 23.5 23.8H56c-4.4 0-8 3.6-8 8s3.6 8 8 8h144c4.4 0 8-3.6 8-8s-3.6-8-8-8zM56 104c0-39.7 32.3-72 72-72s72 32.3 72 72c0 57.2-55.5 105-72 118-16.5-13-72-60.8-72-118z"/><path d="M168 104c0-22.1-17.9-40-40-40s-40 17.9-40 40 17.9 40 40 40 40-17.9 40-40zm-64 0c0-13.2 10.8-24 24-24s24 10.8 24 24-10.8 24-24 24-24-10.8-24-24z"/></svg>