<?xml version="1.0" encoding="utf-8"?>
<!-- Generator: Adobe Illustrator 27.8.0, SVG Export Plug-In . SVG Version: 6.00 Build 0)  -->
<svg version="1.1" id="Layer_1" xmlns="http://www.w3.org/2000/svg" xmlns:xlink="http://www.w3.org/1999/xlink" x="0px" y="0px"
	 viewBox="0 0 48 48" style="enable-background:new 0 0 48 48;" xml:space="preserve">
<style type="text/css">
	.st0{fill:#FFFFFF;stroke:#000000;}
	.st1{fill-rule:evenodd;clip-rule:evenodd;}
</style>
<rect x="0" y="0" class="st0" width="48" height="48"/>
<path class="st1" d="M9,36l30,0c1.1,0,2-0.9,2-2l0-20c0-1.1-0.9-2-2-2L9,12c-1.1,0-2,0.9-2,2l0,20C7,35.1,7.9,36,9,36z M9,14l19,0
	l2,0l9,0l0,20l-9,0h-2L9,34L9,14z"/>
<rect x="23" y="14" transform="matrix(-1 -2.080741e-07 2.080741e-07 -1 48 48)" class="st1" width="2" height="20"/>
<rect x="19.6" y="14" transform="matrix(-1 -2.080740e-07 2.080740e-07 -1 44.6 48)" class="st1" width="5.4" height="20"/>
<rect x="7" y="14" transform="matrix(-1 -2.080741e-07 2.080741e-07 -1 16 48)" class="st1" width="2" height="20"/>
<rect x="39" y="14" transform="matrix(-1 -2.080741e-07 2.080741e-07 -1 80 48)" class="st1" width="2" height="20"/>
<rect x="7" y="14" transform="matrix(-1 -2.080741e-07 2.080741e-07 -1 16 48)" class="st1" width="2" height="20"/>
</svg>
