<?xml version="1.0" encoding="utf-8"?>
<!-- Generator: Adobe Illustrator 27.8.0, SVG Export Plug-In . SVG Version: 6.00 Build 0)  -->
<svg version="1.1" id="Layer_1" xmlns="http://www.w3.org/2000/svg" xmlns:xlink="http://www.w3.org/1999/xlink" x="0px" y="0px"
	 viewBox="0 0 48 48" style="enable-background:new 0 0 48 48;" xml:space="preserve">
<style type="text/css">
	.st0{fill-rule:evenodd;clip-rule:evenodd;}
</style>
<path class="st0" d="M39,12H9c-1.1,0-2,0.9-2,2v20c0,1.1,0.9,2,2,2h30c1.1,0,2-0.9,2-2V14C41,12.9,40.1,12,39,12z M9,34V14h1.7h2.7
	v20h-2.7H9z M17,34h-1.6V14H17h1h1.8v20H18H17z M23,34h-1.2V14H23h2h1.2v20H25H23z M28.2,34V14H31h1.6v20H31H28.2z M39,34h-4.4V14
	H39V34z"/>
</svg>
