<?xml version="1.0" encoding="utf-8"?>
<!-- Generator: Adobe Illustrator 27.8.0, SVG Export Plug-In . SVG Version: 6.00 Build 0)  -->
<svg version="1.1" id="Layer_1" xmlns="http://www.w3.org/2000/svg" xmlns:xlink="http://www.w3.org/1999/xlink" x="0px" y="0px"
	 viewBox="0 0 48 48" style="enable-background:new 0 0 48 48;" xml:space="preserve">
<style type="text/css">
	.st0{fill:#FFFFFF;stroke:#000000;}
	.st1{fill-rule:evenodd;clip-rule:evenodd;}
</style>
<rect class="st0" width="48" height="48"/>
<path class="st1" d="M39,12H9c-1.1,0-2,0.9-2,2v20c0,1.1,0.9,2,2,2h30c1.1,0,2-0.9,2-2V14C41,12.9,40.1,12,39,12z M9,34V14h6v20H9z
	 M20,34h-2h-1V14h1h2h3v20H20z M25,34V14h6v20H25z M39,34h-6V14h6V34z"/>
<rect x="39" y="14" class="st1" width="2" height="20"/>
</svg>
