<?xml version="1.0" encoding="utf-8"?>
<!-- Generator: Adobe Illustrator 27.8.0, SVG Export Plug-In . SVG Version: 6.00 Build 0)  -->
<svg version="1.1" id="Layer_1" xmlns="http://www.w3.org/2000/svg" xmlns:xlink="http://www.w3.org/1999/xlink" x="0px" y="0px"
	 viewBox="0 0 48 48" style="enable-background:new 0 0 48 48;" xml:space="preserve">
<style type="text/css">
	.st0{fill-rule:evenodd;clip-rule:evenodd;}
</style>
<path class="st0" d="M39,12H9c-1.1,0-2,0.9-2,2v20c0,1.1,0.9,2,2,2h30c1.1,0,2-0.9,2-2V14C41,12.9,40.1,12,39,12z M9,34V14h1.7h1.6
	v20h-1.6H9z M15,34h-0.7V14H15h2h0.7v20H17H15z M19.7,34V14H20h3v20h-3H19.7z M25,14h3.3v20H25V14z M33,34h-2h-0.7V14H31h2h0.7v20
	H33z M39,34h-3.3V14H39V34z"/>
</svg>
