<?xml version="1.0" encoding="utf-8"?>
<!-- Generator: Adobe Illustrator 27.8.0, SVG Export Plug-In . SVG Version: 6.00 Build 0)  -->
<svg version="1.1" id="Layer_1" xmlns="http://www.w3.org/2000/svg" xmlns:xlink="http://www.w3.org/1999/xlink" x="0px" y="0px"
	 viewBox="0 0 48 48" style="enable-background:new 0 0 48 48;" xml:space="preserve">
<style type="text/css">
	.st0{fill:#FFFFFF;stroke:#000000;}
	.st1{fill-rule:evenodd;clip-rule:evenodd;}
</style>
<rect class="st0" width="48" height="48"/>
<path class="st1" d="M39,12H9c-1.1,0-2,0.9-2,2v20c0,1.1,0.9,2,2,2h30c1.1,0,2-0.9,2-2V14C41,12.9,40.1,12,39,12z M39,34H20h-2H9V14
	h9h2h19V34z"/>
<rect x="17.7" y="14" class="st1" width="2" height="20"/>
<rect x="28.3" y="14" class="st1" width="2" height="20"/>
<rect x="39" y="14" class="st1" width="2" height="20"/>
<rect x="7" y="14" class="st1" width="2" height="20"/>
<rect x="39" y="14" class="st1" width="2" height="20"/>
</svg>
