<?xml version="1.0" encoding="utf-8"?>
<!-- Generator: Adobe Illustrator 25.0.0, SVG Export Plug-In . SVG Version: 6.00 Build 0)  -->
<svg version="1.1" id="Raw" xmlns="http://www.w3.org/2000/svg" xmlns:xlink="http://www.w3.org/1999/xlink" x="0px" y="0px"
	 viewBox="0 0 256 256" style="enable-background:new 0 0 256 256;" xml:space="preserve">
<path d="M208,32h-24v-8c0-4.4-3.6-8-8-8s-8,3.6-8,8v8H88v-8c0-4.4-3.6-8-8-8s-8,3.6-8,8v8H48c-8.8,0-16,7.2-16,16v160
	c0,8.8,7.2,16,16,16h160c8.8,0,16-7.2,16-16V48C224,39.2,216.8,32,208,32z M48,48h24v8c0,4.4,3.6,8,8,8s8-3.6,8-8v-8h80v8
	c0,4.4,3.6,8,8,8s8-3.6,8-8v-8h24v32H48L48,48C48,48,48,48,48,48z M48,208l0-112h160v112H48z"/>
</svg>
