<?xml version="1.0" encoding="utf-8"?>
<!-- Generator: Adobe Illustrator 25.0.0, SVG Export Plug-In . SVG Version: 6.00 Build 0)  -->
<svg version="1.1" id="Layer_1" xmlns="http://www.w3.org/2000/svg" xmlns:xlink="http://www.w3.org/1999/xlink" x="0px" y="0px"
	 viewBox="0 0 192 192" style="enable-background:new 0 0 192 192;" xml:space="preserve">
<path d="M172.4,113.1l9.8-54c0.1-0.7,0.2-1.4,0.2-2.1c0-6.6-5.4-12-12-12H44.6l-3.7-20.1c-1-5.7-6-9.9-11.8-9.9H15.6
	c-3.3,0-6,2.7-6,6s2.7,6,6,6h13.5l20,110.1c0.2,1,0.5,1.9,0.9,2.8c-4.6,3.9-7.5,9.6-7.5,16c0,11.6,9.4,21,21,21s21-9.4,21-21
	c0-3.2-0.8-6.3-2.1-9h52.1c-1.3,2.7-2.1,5.8-2.1,9c0,11.6,9.4,21,21,21s21-9.4,21-21c0-11.4-9.1-20.6-20.4-21c-0.2,0-0.4,0-0.6,0H61
	l-2.2-12h101.8C166.4,123,171.4,118.9,172.4,113.1z M72.6,156c0,5-4,9-9,9s-9-4-9-9s4-9,9-9S72.6,151,72.6,156z M162.6,156
	c0,5-4,9-9,9s-9-4-9-9s4-9,9-9S162.6,151,162.6,156z M46.8,57h123.6l-9.8,54h-104L46.8,57z"/>
</svg>
