<?xml version="1.0" encoding="UTF-8"?>
<svg version="1.1" viewBox="0 0 512 512" xmlns="http://www.w3.org/2000/svg" xmlns:xlink="http://www.w3.org/1999/xlink">
    <!--Generated by IJSVG (https://github.com/iconjar/IJSVG)-->
    <g fill="#000">
        <path d="M146,80h220c9.9,0 18,-8.1 18,-18v0c0,-9.9 -8.1,-18 -18,-18h-220c-9.9,0 -18,8.1 -18,18v0c0,9.9 8.1,18 18,18Z"></path>
        <path d="M398,100h-284c-9.9,0 -18,8.1 -18,18c0,9.3 6.9,17.1 16,18v300c0,13.2 10.8,24 24,24h88c4.4,0 8,-3.6 8,-8v-40c0,-4.4 3.6,-8 8,-8h32c4.4,0 8,3.6 8,8v40c0,4.4 3.6,8 8,8h88c13.2,0 24,-10.8 24,-24v-300c9.1,-0.9 16,-8.7 16,-18c0,-9.9 -8.1,-18 -18,-18Zm-206,264c0,4.4 -3.6,8 -8,8h-16c-4.4,0 -8,-3.6 -8,-8v-16c0,-4.4 3.6,-8 8,-8h16c4.4,0 8,3.6 8,8v16Zm0,-64c0,4.4 -3.6,8 -8,8h-16c-4.4,0 -8,-3.6 -8,-8v-16c0,-4.4 3.6,-8 8,-8h16c4.4,0 8,3.6 8,8v16Zm0,-64c0,4.4 -3.6,8 -8,8h-16c-4.4,0 -8,-3.6 -8,-8v-16c0,-4.4 3.6,-8 8,-8h16c4.4,0 8,3.6 8,8v16Zm0,-64c0,4.4 -3.6,8 -8,8h-16c-4.4,0 -8,-3.6 -8,-8v-16c0,-4.4 3.6,-8 8,-8h16c4.4,0 8,3.6 8,8v16Zm80,192c0,4.4 -3.6,8 -8,8h-16c-4.4,0 -8,-3.6 -8,-8v-16c0,-4.4 3.6,-8 8,-8h16c4.4,0 8,3.6 8,8v16Zm0,-64c0,4.4 -3.6,8 -8,8h-16c-4.4,0 -8,-3.6 -8,-8v-16c0,-4.4 3.6,-8 8,-8h16c4.4,0 8,3.6 8,8v16Zm0,-64c0,4.4 -3.6,8 -8,8h-16c-4.4,0 -8,-3.6 -8,-8v-16c0,-4.4 3.6,-8 8,-8h16c4.4,0 8,3.6 8,8v16Zm0,-64c0,4.4 -3.6,8 -8,8h-16c-4.4,0 -8,-3.6 -8,-8v-16c0,-4.4 3.6,-8 8,-8h16c4.4,0 8,3.6 8,8v16Zm80,192c0,4.4 -3.6,8 -8,8h-16c-4.4,0 -8,-3.6 -8,-8v-16c0,-4.4 3.6,-8 8,-8h16c4.4,0 8,3.6 8,8v16Zm0,-64c0,4.4 -3.6,8 -8,8h-16c-4.4,0 -8,-3.6 -8,-8v-16c0,-4.4 3.6,-8 8,-8h16c4.4,0 8,3.6 8,8v16Zm0,-64c0,4.4 -3.6,8 -8,8h-16c-4.4,0 -8,-3.6 -8,-8v-16c0,-4.4 3.6,-8 8,-8h16c4.4,0 8,3.6 8,8v16Zm0,-64c0,4.4 -3.6,8 -8,8h-16c-4.4,0 -8,-3.6 -8,-8v-16c0,-4.4 3.6,-8 8,-8h16c4.4,0 8,3.6 8,8v16Z"></path>
    </g>
</svg>