<?xml version="1.0" encoding="utf-8"?>
<!-- Generator: Adobe Illustrator 25.0.0, SVG Export Plug-In . SVG Version: 6.00 Build 0)  -->
<svg version="1.1" id="Raw" xmlns="http://www.w3.org/2000/svg" xmlns:xlink="http://www.w3.org/1999/xlink" x="0px" y="0px"
	 viewBox="0 0 256 256" style="enable-background:new 0 0 256 256;" xml:space="preserve">
<g>
	<path d="M176,224C96.6,224,32,159.4,32,80c0-28.1,21-52,48.9-55.6c7.1-0.8,13.9,3.1,16.7,9.6l20.1,46.9c2.1,4.9,1.6,10.6-1.3,15.1
		l-16.6,25.4c7.5,15.2,20,27.7,35.2,35.1c0,0,0,0,0,0l25-16.7c4.5-3,10.2-3.5,15.2-1.4l46.8,20.1c6.5,2.8,10.4,9.6,9.6,16.6
		C228,203,204.1,224,176,224z M82.9,40.3C63,42.9,48,59.9,48,80c0,70.6,57.4,128,128,128c20.1,0,37.1-15,39.7-34.9l-46.9-20
		l-25,16.7c-4.6,3.1-10.6,3.6-15.7,1.2c-18.6-9-33.8-24.1-42.8-42.6c0,0,0,0,0-0.1c-2.4-5-2-11,1.1-15.7L103,87.2L82.9,40.3z
		 M135,156.5C135,156.5,135,156.5,135,156.5C135,156.5,135,156.5,135,156.5z"/>
</g>
</svg>
