<?xml version="1.0" encoding="utf-8"?>
<!-- Generator: Adobe Illustrator 24.3.0, SVG Export Plug-In . SVG Version: 6.00 Build 0)  -->
<svg version="1.1" id="Layer_1" xmlns="http://www.w3.org/2000/svg" xmlns:xlink="http://www.w3.org/1999/xlink" x="0px" y="0px"
	 viewBox="0 0 24 24" style="enable-background:new 0 0 24 24;" xml:space="preserve">
<path d="M17.4,22L17.4,22C8.9,22,2,15.1,2,6.6v0C2,4.1,4.1,2,6.6,2l0,0c0.3,0,0.5,0,0.8,0.1h0c0.2,0,0.5,0.1,0.7,0.2l0,0
	C8.4,2.4,8.7,2.7,8.7,3l1.4,6l0,0c0.1,0.3,0,0.7-0.3,0.9c-0.1,0.1-0.1,0.1-1.4,0.8l0,0c1,2.2,2.7,3.9,4.9,4.9
	c0.6-1.2,0.7-1.2,0.8-1.4l0,0c0.2-0.2,0.6-0.3,0.9-0.3l6,1.4l0,0c0.3,0.1,0.6,0.3,0.7,0.6l0,0c0.1,0.2,0.1,0.5,0.2,0.7l0,0
	c0,0.3,0.1,0.5,0.1,0.8v0C22,20,19.9,22,17.4,22z"/>
</svg>
