<?xml version="1.0" encoding="utf-8"?>
<!-- Generator: Adobe Illustrator 24.3.0, SVG Export Plug-In . SVG Version: 6.00 Build 0)  -->
<svg version="1.1" id="Layer_1" xmlns="http://www.w3.org/2000/svg" xmlns:xlink="http://www.w3.org/1999/xlink" x="0px" y="0px"
	 viewBox="0 0 24 24" style="enable-background:new 0 0 24 24;" xml:space="preserve">
<path d="M18.8,17.2l4.9,4.9l-1.6,1.6l-4.9-4.9c-1.8,1.5-4.1,2.3-6.5,2.3c-5.7,0-10.4-4.7-10.4-10.4S4.9,0.3,10.7,0.3
	s10.4,4.7,10.4,10.4C21.1,13,20.3,15.3,18.8,17.2z M16.5,16.3c1.5-1.5,2.3-3.5,2.3-5.6c0-4.5-3.6-8.1-8.1-8.1
	c-4.5,0-8.1,3.6-8.1,8.1c0,4.5,3.6,8.1,8.1,8.1c2.1,0,4.1-0.8,5.6-2.3C16.3,16.5,16.5,16.3,16.5,16.3z"/>
</svg>
